<svg id="Layer_1" data-name="Layer 1" xmlns="http://www.w3.org/2000/svg" viewBox="0 0 501.22 155.41"><defs><style>.cls-1{fill:#fff;stroke:#fff;stroke-miterlimit:10;}</style></defs><title>imu_logo final 20.07.15</title><path class="cls-1" d="M472.49,52.83,492.73,114l.51.05L512.77,53h25.28c-1.57,4.24-3.1,8.36-4.63,12.49q-16.53,44.43-33.09,88.85c-2.41,6.44-6,12.07-12.22,15.51a32.75,32.75,0,0,1-15.56,3.67c-5.75.08-11.51-.29-17.4-.47V152.78c2.58.21,5.1.43,7.62.61,1.6.11,3.2.23,4.8.22,7.64-.07,12.46-5.87,11.11-13.42a29,29,0,0,0-1.46-5q-11.87-31.93-23.76-63.86c-.59-1.59-1.32-2.21-3-2.05s-3.71,0-5.79,0v72.95H420.08V69.47h-8.93V142.3H386.67V122.54c-.3.14-.47.17-.5.24-3.13,10-10.14,16.24-19.9,19.16a67.31,67.31,0,0,1-40.12-.25c-9-2.81-15.74-8.4-19.45-17.28a5.31,5.31,0,0,0-.52-.7v18.6h-23.4V130.25l-.74-.47a7.75,7.75,0,0,1-.51,1.18c-5.9,9.23-14.8,13.16-25.3,13.66a51.34,51.34,0,0,1-13.34-1.19C231.25,140.86,225,133,223.21,121.55A87.59,87.59,0,0,1,222,108.36c-.13-17.94-.05-35.89-.05-53.84V53.07h24.52v2.18c0,16.09-.1,32.18.07,48.26a58.25,58.25,0,0,0,1.51,12.14c1.4,6.19,5.71,9.42,11.94,9.84a30.28,30.28,0,0,0,8-.49c7.31-1.5,11.46-6.41,12.73-15a71.35,71.35,0,0,0,.79-10.13c.08-14.8,0-29.61,0-44.42V53.07h24.46v60.56h21.82c.1.88.15,1.62.27,2.35a13.3,13.3,0,0,0,7.73,10.34,23.7,23.7,0,0,0,20.09.47,13,13,0,0,0,4.33-3.08c4.09-4.42,3.22-10.77-2.15-13.46A67.84,67.84,0,0,0,346.09,106c-7-2-14.17-3.45-21.17-5.47-6.13-1.77-11.76-4.65-15.24-10.32A19.66,19.66,0,0,1,307,83.09c-2.1-13.53,4.15-24.18,16.93-29,8.42-3.19,17.22-3.76,26.11-3.26a52.21,52.21,0,0,1,16.69,3.32c11,4.41,17.91,13.89,18.08,24.76h-23c-.09-.14-.19-.24-.2-.35-.58-6.18-4.23-9.45-10.06-10.72a29.87,29.87,0,0,0-14.08.08c-4.27,1.12-6.44,3.92-6.35,7.79a6.94,6.94,0,0,0,3.1,5.67c3.62,2.65,7.88,3.6,12.1,4.64,7.33,1.81,14.68,3.52,22,5.43A33.39,33.39,0,0,1,374.67,94a23.65,23.65,0,0,1,11.83,12.43V53.09h33.55c0-2.78,0-5.26,0-7.73.17-7.4,2.46-14,7.93-19.17,4.1-3.92,9.18-5.71,14.66-6.57,6.71-1.06,13.39-.28,20.16.31V37.46h-7.38c-1,0-1.93,0-2.88,0-4.88.28-7.4,2.65-7.86,7.71-.23,2.47,0,5,0,7.63Z" transform="translate(-58.39 -18.59)"/><path class="cls-1" d="M107.59,53.07v11.7l.6.43a9.13,9.13,0,0,1,.68-1.28c11-14.71,28.48-15.86,41.75-10.17a20.53,20.53,0,0,1,10.05,9.67l1,1.81c.37-.39.69-.67.94-1,8.62-11.15,19.93-15.35,33.75-13a51.61,51.61,0,0,1,5.26,1.1c11.23,3.12,18.38,11.94,19.45,24,.25,2.8.37,5.63.38,8.44q0,27.59,0,55.18v2.39H196.91v-2.25c0-16.66,0-33.32,0-50a55.7,55.7,0,0,0-.77-9.55c-1.19-6.63-5.67-10.27-12.38-10.76-11.81-.86-16.87,6.36-18,15.59a68.56,68.56,0,0,0-.44,8.05c0,15.51,0,31,0,46.52v2.39H140.77v-2.25c0-17,0-34.09,0-51.14a47.17,47.17,0,0,0-.78-9c-1.29-6.49-5.29-9.75-11.92-10.16-9.72-.62-17.17,5.47-18.48,15.15a45.45,45.45,0,0,0-.4,5.93q0,24.51,0,49v2.41H84.75V53.07Z" transform="translate(-58.39 -18.59)"/><path class="cls-1" d="M58.93,53.18H83.16v89.1H58.93Z" transform="translate(-58.39 -18.59)"/><path class="cls-1" d="M559.11,116.15v26.16h-27V116.15Z" transform="translate(-58.39 -18.59)"/><path class="cls-1" d="M83.13,39.29H58.89V19.22H83.13Z" transform="translate(-58.39 -18.59)"/><path class="cls-1" d="M386.76,19.15H411V39.22H386.76Z" transform="translate(-58.39 -18.59)"/><path class="cls-1" d="M403.29,164.95a11.47,11.47,0,0,1-2.5,5.62,5.93,5.93,0,0,1-4.55,1.87,4,4,0,0,1-2.21-.64,4.78,4.78,0,0,1-1.61-1.78l-.71,2.1h-3.07l4.62-23.1h3.54l-1.69,8.46a5.86,5.86,0,0,1,1.78-1.24,5.08,5.08,0,0,1,2.08-.43,4.08,4.08,0,0,1,3.88,2.54,9.73,9.73,0,0,1,.49,6.29Zm-3.48-.31a8.78,8.78,0,0,0,0-4.27,2.13,2.13,0,0,0-2.23-1.61,2.9,2.9,0,0,0-1.74.59,5.68,5.68,0,0,0-1.44,1.59L393,167.81a2.44,2.44,0,0,0,1,1.26,3.23,3.23,0,0,0,1.78.44,3.09,3.09,0,0,0,2.54-1.19,7.85,7.85,0,0,0,1.4-3.37Z" transform="translate(-58.39 -18.59)"/><path class="cls-1" d="M411.48,172.44a5.36,5.36,0,0,1-4.67-2.25,7.45,7.45,0,0,1-1-5.7l.09-.59a10.39,10.39,0,0,1,2.79-5.86,6.89,6.89,0,0,1,5.06-2.22,4.81,4.81,0,0,1,4.29,2,7.14,7.14,0,0,1,.82,5.25l-.34,2.12h-9.26a5.09,5.09,0,0,0,.52,3.21,2.6,2.6,0,0,0,2.41,1.19,7.09,7.09,0,0,0,2.31-.36,9.06,9.06,0,0,0,2-1l.74,2.36a8.29,8.29,0,0,1-2.44,1.35A9.51,9.51,0,0,1,411.48,172.44Zm1.78-13.74a2.74,2.74,0,0,0-2.07,1.06,6.59,6.59,0,0,0-1.39,2.69l0,.07h5.57l.06-.37a4,4,0,0,0-.28-2.52A2,2,0,0,0,413.26,158.7Z" transform="translate(-58.39 -18.59)"/><path class="cls-1" d="M428.38,152.21l-.79,3.89h2.65l-.53,2.67h-2.65l-1.76,8.86a1.87,1.87,0,0,0,.08,1.45,1.14,1.14,0,0,0,1,.38,6.32,6.32,0,0,0,.77-.05,5.4,5.4,0,0,0,.74-.14l-.16,2.64a5.8,5.8,0,0,1-1.31.39,8.36,8.36,0,0,1-1.55.14,3.14,3.14,0,0,1-2.67-1.19,4.43,4.43,0,0,1-.4-3.63l1.76-8.86h-2.24l.53-2.67h2.24l.79-3.89Z" transform="translate(-58.39 -18.59)"/><path class="cls-1" d="M439.12,172.13a9.55,9.55,0,0,1-.07-1,9.35,9.35,0,0,1,0-1,8.08,8.08,0,0,1-2.11,1.64,5.13,5.13,0,0,1-2.47.65,3.87,3.87,0,0,1-3.19-1.33,4,4,0,0,1-.63-3.5,5.41,5.41,0,0,1,2.4-3.7,9.29,9.29,0,0,1,5.06-1.22h2.34l.28-1.41a2.46,2.46,0,0,0-.24-2,2.07,2.07,0,0,0-1.75-.67,3.06,3.06,0,0,0-1.87.6,2.41,2.41,0,0,0-1,1.52h-3.39l0-.09a5.18,5.18,0,0,1,2.3-3.42,8,8,0,0,1,4.75-1.41,5.18,5.18,0,0,1,3.88,1.45,4.27,4.27,0,0,1,.9,4.06l-1.42,7.12a13.55,13.55,0,0,0-.27,1.94,9,9,0,0,0,.07,1.75Zm-3.24-2.58a4.32,4.32,0,0,0,2-.53,4.87,4.87,0,0,0,1.61-1.29l.56-2.78h-2.4a3.43,3.43,0,0,0-2.24.79,3.12,3.12,0,0,0-1.17,1.82,1.45,1.45,0,0,0,1.63,2Z" transform="translate(-58.39 -18.59)"/></svg>