<svg xmlns="http://www.w3.org/2000/svg" xmlns:xlink="http://www.w3.org/1999/xlink" preserveAspectRatio="xMidYMid" width="26" height="26" viewBox="0 0 26 26">
  <defs>
    <style>
      .cls-1 {
        fill: #fff;
        fill-rule: evenodd;
      }
    </style>
  </defs>
  <path d="M12.987,26.000 C5.807,26.000 -0.013,20.180 -0.013,13.000 C-0.013,5.820 5.807,0.000 12.987,0.000 C20.167,0.000 25.987,5.820 25.987,13.000 C25.987,20.180 20.167,26.000 12.987,26.000 ZM22.546,19.144 L15.331,15.283 C15.319,15.295 15.304,15.304 15.292,15.316 L19.596,22.239 C20.761,21.401 21.766,20.353 22.546,19.144 ZM1.612,13.000 C1.612,19.272 6.715,24.375 12.987,24.375 C14.872,24.375 16.641,23.899 18.206,23.083 L13.886,16.134 C13.599,16.217 13.302,16.275 12.987,16.275 C11.178,16.275 9.712,14.809 9.712,13.000 C9.712,12.765 9.739,12.537 9.786,12.315 L2.568,8.453 C1.957,9.847 1.612,11.383 1.612,13.000 ZM11.337,13.000 C11.337,13.910 12.077,14.651 12.987,14.651 C13.898,14.651 14.638,13.910 14.638,13.000 C14.638,12.090 13.898,11.350 12.987,11.350 C12.077,11.350 11.337,12.090 11.337,13.000 ZM3.331,7.018 L10.522,10.866 C10.539,10.846 10.561,10.831 10.579,10.812 L6.254,3.853 C5.092,4.713 4.097,5.786 3.331,7.018 ZM12.987,1.625 C11.047,1.625 9.229,2.127 7.631,2.989 L11.939,9.920 C12.270,9.805 12.616,9.725 12.987,9.725 C14.797,9.725 16.263,11.191 16.263,13.000 C16.263,13.303 16.209,13.590 16.132,13.868 L23.325,17.717 C23.985,16.278 24.363,14.684 24.363,13.000 C24.363,6.728 19.260,1.625 12.987,1.625 Z" class="cls-1"/>
</svg>
