<svg xmlns="http://www.w3.org/2000/svg" xmlns:xlink="http://www.w3.org/1999/xlink" preserveAspectRatio="xMidYMid" width="29" height="29" viewBox="0 0 29 29">
  <defs>
    <style>
      .cls-1 {
      fill: #fff;
      fill-rule: evenodd;
      }
    </style>
  </defs>
  <path d="M27.082,9.160 L14.892,15.735 C14.771,15.800 14.639,15.833 14.506,15.833 C14.372,15.833 14.239,15.799 14.118,15.733 L2.055,9.158 C1.790,9.013 1.626,8.733 1.631,8.431 C1.636,8.128 1.809,7.853 2.078,7.717 L14.268,1.585 C14.499,1.469 14.771,1.470 15.001,1.587 L27.064,7.719 C27.333,7.856 27.505,8.131 27.509,8.435 C27.513,8.737 27.348,9.017 27.082,9.160 ZM14.631,3.223 L4.195,8.473 L14.509,14.094 L24.944,8.465 L14.631,3.223 ZM4.486,12.412 L6.222,13.359 L4.056,14.448 L14.369,20.070 L24.804,14.441 L22.773,13.409 L24.514,12.469 L26.925,13.695 C27.194,13.832 27.365,14.107 27.369,14.410 C27.373,14.713 27.208,14.992 26.942,15.135 L14.752,21.711 C14.632,21.776 14.499,21.809 14.367,21.809 C14.233,21.809 14.099,21.775 13.978,21.709 L1.915,15.134 C1.650,14.989 1.487,14.709 1.491,14.406 C1.496,14.104 1.669,13.829 1.939,13.693 L4.486,12.412 ZM1.939,19.386 L4.334,18.283 L6.070,19.230 L4.056,20.141 L14.369,25.763 L24.804,20.134 L22.900,19.203 L24.640,18.264 L26.925,19.388 C27.194,19.525 27.365,19.800 27.369,20.103 C27.373,20.406 27.208,20.685 26.942,20.828 L14.752,27.404 C14.632,27.469 14.499,27.502 14.367,27.502 C14.233,27.502 14.099,27.468 13.978,27.402 L1.915,20.827 C1.650,20.682 1.487,20.402 1.491,20.099 C1.496,19.797 1.669,19.522 1.939,19.386 Z" class="cls-1"/>
</svg>
