<svg xmlns="http://www.w3.org/2000/svg" xmlns:xlink="http://www.w3.org/1999/xlink" preserveAspectRatio="xMidYMid" width="31" height="21" viewBox="0 0 31 21">
	<defs>
		<style>
			.cls-1 {
			fill: #fff;
			fill-rule: evenodd;
			}
		</style>
	</defs>
	<path d="M22.388,20.942 C21.865,20.994 21.377,20.622 21.318,20.099 C21.259,19.574 21.643,19.102 22.175,19.044 C26.101,18.617 29.063,15.354 29.063,11.455 C29.063,7.244 25.586,3.818 21.313,3.818 C19.362,3.818 17.494,4.543 16.052,5.860 C15.797,6.094 15.432,6.175 15.097,6.067 C14.763,5.961 14.514,5.687 14.445,5.349 C14.035,3.356 12.238,1.909 10.172,1.909 C7.768,1.909 5.813,3.836 5.813,6.205 C5.813,6.927 5.999,7.642 6.352,8.273 C6.500,8.536 6.513,8.852 6.388,9.126 C6.262,9.400 6.014,9.600 5.716,9.666 C3.527,10.150 1.937,12.107 1.937,14.318 C1.937,16.950 4.111,19.091 6.781,19.091 L8.719,19.091 C9.254,19.091 9.688,19.518 9.688,20.045 C9.688,20.573 9.254,21.000 8.719,21.000 L6.781,21.000 C3.042,21.000 -0.000,18.002 -0.000,14.318 C-0.000,11.557 1.675,9.156 4.191,8.143 C3.983,7.519 3.875,6.865 3.875,6.205 C3.875,2.783 6.700,0.000 10.172,0.000 C12.645,0.000 14.851,1.436 15.871,3.566 C17.471,2.490 19.358,1.909 21.313,1.909 C26.654,1.909 31.000,6.191 31.000,11.455 C31.000,16.328 27.298,20.407 22.388,20.942 ZM14.675,11.312 C14.686,11.297 14.699,11.282 14.714,11.269 C14.949,11.050 15.257,10.933 15.581,10.942 C15.905,10.950 16.207,11.082 16.430,11.313 L18.863,13.915 C19.042,14.099 19.139,14.347 19.132,14.607 C19.125,14.868 19.015,15.110 18.822,15.289 C18.630,15.467 18.378,15.563 18.113,15.556 C17.848,15.549 17.601,15.441 17.418,15.252 L16.488,14.327 L16.409,20.054 L16.413,20.054 C16.399,20.591 15.942,21.017 15.394,21.003 C14.846,20.989 14.412,20.540 14.426,20.003 L14.430,20.003 L14.505,14.272 L13.518,15.157 C13.331,15.332 13.078,15.427 12.813,15.420 C12.548,15.413 12.301,15.305 12.118,15.117 C11.753,14.740 11.771,14.098 12.155,13.739 L14.675,11.312 Z" class="cls-1"/>
</svg>