<svg xmlns="http://www.w3.org/2000/svg" width="17.031" height="12" viewBox="0 0 17.031 12">
  <path fill="#ffffff" fill-rule="evenodd" d="M77.029,3037.24v-10.66a0.649,0.649,0,0,0-.995-0.58c-0.4.23-7.92,4.92-8.6,5.32a0.674,0.674,0,0,0,0,1.16c0.487,0.29,8.041,5,8.617,5.33A0.646,0.646,0,0,0,77.029,3037.24Zm-7.141,0v-10.66a0.649,0.649,0,0,0-.995-0.58c-0.4.23-7.921,4.92-8.6,5.32a0.675,0.675,0,0,0,0,1.16c0.487,0.29,8.041,5,8.617,5.33A0.646,0.646,0,0,0,69.888,3037.24Z" transform="translate(-60 -3025.91)"/>
</svg>
