<svg xmlns="http://www.w3.org/2000/svg" width="42.75" height="32.375" viewBox="0 0 42.75 32.375">
  <defs>
    <style>
      .cls-1 {
        fill: #fdfdff;
        fill-rule: evenodd;
      }
    </style>
  </defs>
  <path id="album.svg" class="cls-1" d="M412.918,388.7l-5.227.013L407.625,363.4l5.227-.014,0.005,1.746-3.485.009,0.057,21.817,3.484-.009Zm37.456-.1-6.1.016,0-1.745,4.356-.012-0.057-21.817-4.355.011,0-1.746,6.1-.015Zm-25.691-1.527c1.72-.834,2.775-2.306,2.662-3.541l0.063-.01-1.463-11.06,7.709-4.588,1.523,9.071a5.7,5.7,0,0,0-2.024.4c-2.092.82-3.353,2.593-2.82,3.955s2.658,1.811,4.752.991,3.352-2.592,2.818-3.957c-0.071-.18-2.57-14.077-2.57-14.077l-11.816,7.028L424.9,381.72a5.494,5.494,0,0,0-2.526.57c-2.024.978-3.143,2.842-2.507,4.164S422.659,388.051,424.683,387.072Zm20.474,5.032-32.23.083L412.843,359.9l32.23-.083Zm-29.624-2.542,27-.07-0.07-27.054-27,.07Z" transform="translate(-619.625 -156.813)"/>
</svg>
