<svg xmlns="http://www.w3.org/2000/svg" width="18.875" height="17.75" viewBox="0 0 18.875 17.75">
  <defs>
    <style>
      .cls-1 {
        fill: #fff;
        fill-rule: evenodd;
        opacity: 0.6;
      }
    </style>
  </defs>
  <path id="ico-time.svg" class="cls-1" d="M-501.784,107.693a8.954,8.954,0,0,1-9-8.885h1.13a7.829,7.829,0,0,0,7.871,7.769,7.829,7.829,0,0,0,7.87-7.769,7.829,7.829,0,0,0-7.87-7.769V89.923a8.954,8.954,0,0,1,9,8.885A8.954,8.954,0,0,1-501.784,107.693Zm-9.887-8.012,1.451-2.062,1.452,2.062h-2.9Zm9.832-7.37a0.823,0.823,0,0,0-.828.817v5.686a0.823,0.823,0,0,0,.828.817,0.822,0.822,0,0,0,.827-0.817V93.128A0.822,0.822,0,0,0-501.839,92.311Zm-4.451,7.789a0.827,0.827,0,0,0,1.028.551l3.665-1.072a0.816,0.816,0,0,0,.559-1.015,0.83,0.83,0,0,0-1.029-.551l-3.665,1.072A0.815,0.815,0,0,0-506.29,100.1Z" transform="translate(-928.344 -395.938)"/>
</svg>
