<svg xmlns="http://www.w3.org/2000/svg" width="32.187" height="42" viewBox="0 0 32.187 42">
  <defs>
    <style>
      .cls-1 {
        fill: #fdfdff;
        fill-rule: evenodd;
      }
    </style>
  </defs>
  <path id="music.svg" class="cls-1" d="M62.744,360.937l18.507,3.9,0.024-3.937-18.556-4.074Zm-5,14.868a6.206,6.206,0,1,0,7.058,4.88A6.078,6.078,0,0,0,57.745,375.805ZM83.8,359.35l-22.187-4.873a1.738,1.738,0,0,0-1.494.371,1.887,1.887,0,0,0-.651,1.443l0.118,17.977A7.288,7.288,0,0,1,63.2,375.7l-0.069-11.265,18.484,3.893-0.088,14.764a7.6,7.6,0,0,1,3.585,2.865l0.152-24.727A1.9,1.9,0,0,0,83.8,359.35Zm-2.177,7.284-18.508-3.9-0.025-4.113L81.645,362.7Zm-3.75,17.559a6.208,6.208,0,1,0,7.058,4.882A6.081,6.081,0,0,0,77.87,384.193Z" transform="translate(-265.063 -151.438)"/>
</svg>
