<svg xmlns="http://www.w3.org/2000/svg" width="37" height="37" viewBox="0 0 37 37">
  <defs>
    <style>
      .cls-1 {
        fill: #fdfdff;
        fill-rule: evenodd;
      }
    </style>
  </defs>
  <path id="photos.svg" class="cls-1" d="M563.375,360.312a2.315,2.315,0,0,1,2.312,2.313v20.813a2.314,2.314,0,0,1-2.312,2.312h-27.75a2.314,2.314,0,0,1-2.312-2.312V362.625a2.316,2.316,0,0,1,2.312-2.313h27.75m0-2.312h-27.75A4.625,4.625,0,0,0,531,362.625v27.75A4.625,4.625,0,0,0,535.625,395h27.75A4.625,4.625,0,0,0,568,390.375v-27.75A4.625,4.625,0,0,0,563.375,358h0Zm0,25.438-9.234-16.188L544.9,383.438h18.471Zm-18.009-5.479-2.812-3.772-6.9,9.251h6.588Zm-5.116-13.021a2.313,2.313,0,1,0,2.312,2.312A2.311,2.311,0,0,0,540.25,364.938Z" transform="translate(-743 -155)"/>
</svg>
