<svg xmlns="http://www.w3.org/2000/svg" width="41" height="38" viewBox="0 0 41 38">
  <defs>
    <style>
      .cls-1 {
        fill: #fdfdff;
        fill-rule: evenodd;
      }
    </style>
  </defs>
  <path id="playlist.svg" class="cls-1" d="M291.468,364.859l12.767,9.716a1.836,1.836,0,0,1-.009,2.85L291.4,387.139a1.515,1.515,0,0,1-2.367-1.426l0.063-19.43A1.522,1.522,0,0,1,291.468,364.859Zm37.017-4.4-37.869,0a1.626,1.626,0,0,1-1.5-1.727h0A1.639,1.639,0,0,1,290.628,357l37.869,0a1.627,1.627,0,0,1,1.5,1.727h0A1.639,1.639,0,0,1,328.485,360.457ZM328.372,395L290.5,395a1.626,1.626,0,0,1-1.5-1.727h0a1.639,1.639,0,0,1,1.512-1.727l37.869,0a1.626,1.626,0,0,1,1.5,1.727h0A1.639,1.639,0,0,1,328.372,395Zm1.568-19a1.639,1.639,0,0,1-1.511,1.727h-18.67a1.628,1.628,0,0,1-1.5-1.728h0a1.639,1.639,0,0,1,1.511-1.727h18.67a1.627,1.627,0,0,1,1.5,1.728h0Zm-0.028,8.635a1.639,1.639,0,0,1-1.511,1.727l-25.07,0a1.626,1.626,0,0,1-1.5-1.727h0a1.639,1.639,0,0,1,1.511-1.727l25.07,0a1.626,1.626,0,0,1,1.5,1.727h0Zm0.057-17.271a1.64,1.64,0,0,1-1.512,1.727l-25.07,0a1.626,1.626,0,0,1-1.5-1.727h0a1.639,1.639,0,0,1,1.512-1.727l25.069,0a1.626,1.626,0,0,1,1.5,1.727h0Z" transform="translate(-501 -154)"/>
</svg>
