<svg xmlns="http://www.w3.org/2000/svg" xmlns:xlink="http://www.w3.org/1999/xlink" preserveAspectRatio="xMidYMid" width="22.844" height="22.781" viewBox="0 0 22.844 22.781">
  <defs>
    <style>
      .cls-1 {
        fill: #fff;
        fill-rule: evenodd;
      }
    </style>
  </defs>
  <path d="M12.024,18.315 C12.024,20.710 9.743,21.531 7.697,21.531 C5.499,21.531 2.532,20.518 2.532,17.891 C2.532,15.044 5.883,14.332 8.136,14.332 C8.370,14.332 8.590,14.332 8.823,14.359 C10.224,15.331 12.024,16.399 12.024,18.315 ZM10.375,6.516 C10.375,8.186 9.730,9.542 7.848,9.542 C5.403,9.542 4.029,6.284 4.029,4.204 C4.029,2.588 4.908,1.001 6.708,1.001 C9.249,1.001 10.375,4.436 10.375,6.516 ZM8.576,0.015 C7.710,0.015 6.845,0.111 6.007,0.289 C3.507,0.836 1.488,3.054 1.488,5.654 C1.488,8.405 3.795,10.363 6.460,10.363 C6.776,10.363 7.092,10.335 7.422,10.294 C7.285,10.719 7.120,11.020 7.120,11.471 C7.120,12.237 7.546,12.922 7.999,13.511 C5.540,13.579 1.721,14.208 0.499,16.672 C0.210,17.247 -0.010,17.877 -0.010,18.520 C-0.010,21.695 3.699,22.790 6.268,22.790 C8.301,22.790 10.458,22.352 12.037,20.998 C13.205,19.984 13.961,18.712 13.961,17.138 C13.961,13.305 9.840,12.607 9.840,10.841 C9.840,9.035 12.917,8.761 12.917,5.134 C12.917,3.601 12.230,1.945 10.870,1.096 L12.724,1.096 L14.579,0.015 L8.576,0.015 ZM22.848,3.519 L19.332,3.519 L19.332,0.015 L17.573,0.015 L17.573,3.519 L14.057,3.519 L14.057,5.271 L17.573,5.271 L17.573,8.775 L19.332,8.775 L19.332,5.271 L22.848,5.271 L22.848,3.519 Z" class="cls-1"/>
</svg>
