<svg xmlns="http://www.w3.org/2000/svg" xmlns:xlink="http://www.w3.org/1999/xlink" preserveAspectRatio="xMidYMid" width="21.094" height="20.094" viewBox="0 0 21.094 20.094">
  <defs>
    <style>
      .cls-1 {
        fill: #fff;
        fill-rule: evenodd;
      }
    </style>
  </defs>
  <path d="M4.792,6.536 L0.259,6.536 L0.259,20.101 L4.792,20.101 L4.792,6.536 ZM5.080,2.348 C5.067,1.021 4.105,0.008 2.553,0.008 C1.014,0.008 -0.002,1.021 -0.002,2.348 C-0.002,3.649 0.973,4.689 2.498,4.689 L2.525,4.689 L2.525,4.689 C4.105,4.689 5.094,3.649 5.080,2.348 ZM21.097,12.326 C21.097,8.166 18.872,6.222 15.891,6.222 C13.446,6.222 12.375,7.577 11.784,8.507 L11.811,8.507 L11.811,6.536 L7.292,6.536 C7.292,6.536 7.347,7.810 7.292,20.101 L7.292,20.101 L11.811,20.101 L11.811,12.531 C11.811,12.121 11.853,11.724 11.963,11.423 C12.292,10.615 13.034,9.781 14.284,9.781 C15.919,9.781 16.578,11.026 16.578,12.846 L16.578,20.101 L21.097,20.101 L21.097,12.326 Z" class="cls-1"/>
</svg>
