<svg xmlns="http://www.w3.org/2000/svg" xmlns:xlink="http://www.w3.org/1999/xlink" preserveAspectRatio="xMidYMid" width="21.625" height="17.5" viewBox="0 0 21.625 17.5">
  <defs>
    <style>
      .cls-1 {
        fill: #fff;
        fill-rule: evenodd;
      }
    </style>
  </defs>
  <path d="M21.635,2.067 C20.839,2.409 19.973,2.655 19.081,2.751 C20.001,2.203 20.701,1.341 21.031,0.315 C20.179,0.821 19.218,1.191 18.215,1.382 C17.405,0.520 16.251,-0.014 14.973,-0.014 C12.514,-0.014 10.536,1.971 10.536,4.407 C10.536,4.749 10.577,5.091 10.646,5.420 C6.965,5.228 3.682,3.476 1.498,0.793 C1.113,1.451 0.893,2.203 0.893,3.025 C0.893,4.558 1.676,5.912 2.871,6.707 C2.143,6.679 1.456,6.474 0.866,6.145 C0.866,6.159 0.866,6.186 0.866,6.200 C0.866,8.349 2.390,10.128 4.424,10.539 C4.052,10.635 3.654,10.690 3.256,10.690 C2.967,10.690 2.693,10.662 2.418,10.621 C2.981,12.373 4.616,13.646 6.566,13.687 C5.042,14.878 3.132,15.575 1.058,15.575 C0.687,15.575 0.344,15.562 -0.013,15.521 C1.951,16.780 4.286,17.506 6.800,17.506 C14.960,17.506 19.424,10.772 19.424,4.927 C19.424,4.735 19.424,4.544 19.410,4.352 C20.276,3.723 21.031,2.943 21.635,2.067 Z" class="cls-1"/>
</svg>
