<svg class="prnt-svg" xmlns="http://www.w3.org/2000/svg" xmlns:xlink="http://www.w3.org/1999/xlink" preserveAspectRatio="xMidYMid" width="59.844" height="58" viewBox="0 0 59.844 58">
  <defs>
    <style>
      .cls-1 { fill: #fff; fill-rule: evenodd;
        transition: all .25s ease-out; transform-origin: 50% 50%; }
    </style>
  </defs>
  <path d="M34.143,58.000 L33.082,58.000 L7.384,58.000 L7.384,48.210 C7.384,39.503 14.090,32.264 22.652,31.729 L23.179,31.696 L33.613,56.727 L44.049,31.696 L44.576,31.729 C53.138,32.264 59.844,39.503 59.844,48.210 L59.844,58.000 L34.143,58.000 ZM22.220,33.286 C14.696,34.026 8.877,40.482 8.877,48.210 L8.877,56.483 L31.889,56.483 L22.220,33.286 ZM58.351,48.210 C58.351,40.482 52.532,34.026 45.008,33.286 L35.336,56.483 L58.351,56.483 L58.351,48.210 ZM33.922,31.964 C25.252,31.964 18.199,24.795 18.199,15.982 C18.199,7.170 25.252,-0.000 33.922,-0.000 C42.592,-0.000 49.646,7.170 49.646,15.982 C49.646,24.795 42.592,31.964 33.922,31.964 ZM33.922,1.517 C26.076,1.517 19.692,8.006 19.692,15.982 C19.692,23.958 26.076,30.447 33.922,30.447 C41.769,30.447 48.153,23.958 48.153,15.982 C48.153,8.006 41.769,1.517 33.922,1.517 ZM33.686,26.443 C28.102,26.443 23.559,21.825 23.559,16.148 C23.559,10.472 28.102,5.854 33.686,5.854 C39.271,5.854 43.814,10.472 43.814,16.148 C43.814,21.825 39.271,26.443 33.686,26.443 ZM33.686,7.372 C28.925,7.372 25.052,11.309 25.052,16.148 C25.052,20.988 28.925,24.925 33.686,24.925 C38.448,24.925 42.321,20.988 42.321,16.148 C42.321,11.309 38.448,7.372 33.686,7.372 ZM17.533,24.139 L4.871,27.243 C4.564,27.318 4.251,27.356 3.938,27.356 C3.938,27.356 3.938,27.356 3.938,27.356 C2.106,27.356 0.524,26.089 0.092,24.275 C-0.156,23.229 0.012,22.148 0.564,21.231 C1.116,20.314 1.986,19.671 3.014,19.421 L15.675,16.315 C16.076,16.216 16.479,16.467 16.576,16.875 L18.084,23.223 C18.130,23.419 18.098,23.625 17.995,23.797 C17.892,23.968 17.725,24.091 17.533,24.139 ZM15.300,17.968 L3.363,20.896 C2.722,21.052 2.181,21.453 1.837,22.023 C1.493,22.594 1.389,23.267 1.543,23.918 C1.812,25.049 2.797,25.839 3.938,25.839 L3.938,25.839 C4.133,25.839 4.329,25.815 4.521,25.768 L16.457,22.841 L15.300,17.968 Z" class="cls-1"/>
</svg>
