<svg class="prnt-svg" xmlns="http://www.w3.org/2000/svg" xmlns:xlink="http://www.w3.org/1999/xlink" preserveAspectRatio="xMidYMid" width="27" height="53.1" viewBox="0 0 27 53.1">
  <defs>
    <style>
      .cls-1 { fill: #fff; fill-rule: evenodd;         transition: all .25s ease-out; transform-origin: 50% 50%; }

    </style>
  </defs>
  <path d="M26.760,32.083 L23.905,43.725 L24.808,53.100 L4.017,53.100 L6.596,44.304 L1.590,39.539 C1.546,39.503 1.516,39.479 1.513,39.478 C1.497,39.454 1.478,39.432 1.458,39.412 C0.518,38.495 0.000,37.276 0.000,35.976 C0.000,35.412 0.104,34.848 0.317,34.280 C0.398,34.016 0.502,33.768 0.617,33.560 L5.892,25.173 C5.900,25.161 5.907,25.147 5.914,25.133 C6.042,24.862 6.204,24.604 6.394,24.367 C6.472,24.271 6.555,24.179 6.642,24.091 C6.981,23.747 7.384,23.473 7.827,23.276 C7.827,23.275 7.827,23.275 7.828,23.275 C7.921,23.233 8.017,23.196 8.114,23.161 C8.131,23.155 8.150,23.149 8.167,23.143 C8.252,23.114 8.338,23.086 8.425,23.063 C8.471,23.051 8.517,23.041 8.562,23.031 C8.628,23.015 8.694,22.999 8.761,22.987 C8.880,22.966 9.001,22.949 9.123,22.939 C9.198,22.929 9.274,22.924 9.387,22.920 C9.462,22.919 9.538,22.920 9.610,22.925 L9.804,22.942 C9.824,22.944 9.844,22.945 9.870,22.945 C9.884,22.948 9.897,22.950 9.912,22.951 L14.312,23.327 L18.247,23.663 C18.881,23.711 19.461,24.000 19.879,24.479 C19.880,24.481 19.882,24.483 19.883,24.485 C20.097,24.732 20.253,25.012 20.349,25.311 C20.356,25.336 20.363,25.361 20.369,25.386 C20.377,25.413 20.386,25.441 20.393,25.469 C20.393,25.470 20.393,25.470 20.393,25.471 C20.401,25.503 20.407,25.535 20.413,25.568 C20.419,25.597 20.424,25.626 20.429,25.656 C20.436,25.703 20.442,25.751 20.446,25.799 C20.448,25.816 20.449,25.833 20.450,25.850 C20.452,25.874 20.454,25.897 20.456,25.922 C20.459,26.010 20.458,26.099 20.451,26.188 C20.412,26.689 20.212,27.153 19.883,27.531 C19.883,27.531 19.883,27.531 19.883,27.531 C19.803,27.623 19.717,27.711 19.622,27.791 C19.135,28.202 18.518,28.402 17.885,28.355 L14.312,28.074 L12.585,27.938 L11.660,27.865 C11.521,27.855 11.392,27.914 11.312,28.022 L10.777,28.740 L8.695,31.538 C8.597,31.669 8.594,31.847 8.687,31.982 C8.779,32.117 8.948,32.181 9.108,32.141 L10.086,31.899 C10.289,31.848 14.571,30.822 17.859,32.883 C17.884,32.899 17.910,32.914 17.935,32.931 C18.109,33.043 18.280,33.163 18.446,33.293 C18.474,33.314 18.500,33.336 18.527,33.358 C18.697,33.494 18.865,33.638 19.027,33.796 C19.065,33.833 19.109,33.861 19.157,33.879 C19.203,33.898 19.251,33.907 19.300,33.907 C19.301,33.907 19.302,33.908 19.303,33.908 C19.403,33.908 19.502,33.870 19.579,33.796 C19.580,33.795 19.582,33.795 19.582,33.794 C19.735,33.642 19.734,33.397 19.580,33.247 C19.467,33.136 19.351,33.032 19.234,32.930 C19.196,32.897 19.158,32.868 19.119,32.837 C19.039,32.769 18.958,32.703 18.874,32.640 C18.832,32.607 18.789,32.577 18.745,32.545 C18.665,32.487 18.584,32.428 18.503,32.374 C18.461,32.345 18.418,32.318 18.375,32.291 C18.290,32.236 18.204,32.182 18.118,32.131 C18.079,32.108 18.040,32.086 18.001,32.063 C17.909,32.011 17.816,31.960 17.723,31.912 C17.688,31.894 17.655,31.877 17.621,31.860 C17.519,31.809 17.416,31.759 17.313,31.713 C17.288,31.702 17.262,31.690 17.237,31.679 C17.121,31.628 17.005,31.580 16.888,31.534 C16.875,31.529 16.862,31.523 16.848,31.518 C16.717,31.468 16.585,31.420 16.453,31.376 C13.522,30.400 10.515,31.006 9.972,31.130 L11.816,28.652 L17.823,29.125 C17.923,29.133 18.022,29.135 18.120,29.133 C18.152,29.133 18.184,29.130 18.216,29.128 C18.283,29.125 18.348,29.121 18.412,29.114 C18.451,29.110 18.488,29.104 18.527,29.098 C18.585,29.090 18.644,29.081 18.701,29.069 C18.740,29.061 18.780,29.052 18.819,29.042 C18.874,29.029 18.930,29.014 18.984,28.998 C19.024,28.986 19.063,28.974 19.101,28.961 C19.156,28.942 19.209,28.921 19.263,28.900 C19.299,28.885 19.337,28.871 19.373,28.854 C19.430,28.829 19.485,28.801 19.540,28.772 C19.572,28.756 19.603,28.741 19.634,28.724 C19.809,28.625 19.976,28.510 20.134,28.377 C20.779,27.832 21.171,27.075 21.234,26.246 C21.248,26.085 21.246,25.924 21.234,25.766 C21.231,25.732 21.222,25.700 21.219,25.666 C21.168,25.214 21.021,24.780 20.778,24.389 C20.784,23.056 20.784,9.163 20.784,9.163 C20.784,8.028 21.728,7.100 22.882,7.100 C24.035,7.100 24.979,8.029 24.979,9.163 C24.979,9.610 24.979,14.500 24.979,16.499 C24.979,18.024 24.921,19.530 25.075,21.030 C25.145,21.709 25.255,22.387 25.429,23.064 C25.764,24.367 26.032,25.687 26.333,26.999 C26.500,27.730 26.660,28.463 26.825,29.194 L26.825,29.217 C26.935,29.636 27.000,30.074 27.000,30.528 C27.000,31.070 26.916,31.592 26.760,32.083 ZM19.570,23.261 C19.532,23.240 19.493,23.221 19.455,23.203 C19.383,23.168 19.308,23.137 19.234,23.107 C19.188,23.089 19.143,23.070 19.096,23.054 C18.845,22.968 18.583,22.912 18.312,22.891 L14.313,22.550 L14.313,18.535 C14.313,17.029 15.566,15.796 17.098,15.796 C18.630,15.796 19.884,17.029 19.884,18.535 L19.884,22.834 L19.884,23.449 C19.883,23.448 19.880,23.447 19.878,23.446 C19.779,23.377 19.675,23.317 19.570,23.261 ZM9.975,22.177 C9.947,22.174 9.920,22.173 9.876,22.172 L9.673,22.155 C9.573,22.148 9.474,22.145 9.373,22.147 L9.323,22.149 C9.221,22.152 9.119,22.160 9.038,22.170 C8.621,22.205 8.215,22.301 7.827,22.441 L7.827,16.070 C7.827,14.563 9.081,13.330 10.612,13.330 C12.144,13.330 13.398,14.563 13.398,16.070 L13.398,22.472 L10.012,22.183 C9.999,22.181 9.987,22.179 9.975,22.177 ZM5.211,24.786 L1.341,30.939 L1.341,2.733 C1.341,1.227 2.595,-0.006 4.127,-0.006 C5.659,-0.006 6.913,1.227 6.912,2.733 L6.912,22.886 C6.484,23.156 6.098,23.491 5.778,23.888 C5.554,24.166 5.364,24.468 5.211,24.786 Z" class="cls-1"/>
</svg>
