<svg class="prnt-svg" xmlns="http://www.w3.org/2000/svg" xmlns:xlink="http://www.w3.org/1999/xlink" preserveAspectRatio="xMidYMid" width="53" height="32" viewBox="0 0 53 32">
  <defs>
    <style>
      .cls-1 { fill: #fff; fill-rule: evenodd;         transition: all .25s ease-out; transform-origin: 50% 50%; }

    </style>
  </defs>
  <path d="M48.760,32.000 C39.020,32.000 35.010,23.492 33.567,18.983 L19.433,18.983 C17.990,23.492 13.980,32.000 4.240,32.000 C1.898,32.000 -0.000,30.057 -0.000,27.661 C-0.000,27.493 0.928,12.027 1.112,9.763 L1.114,9.763 C1.645,4.282 6.163,0.000 11.660,0.000 C13.703,0.000 15.605,0.602 17.224,1.627 L35.776,1.627 C37.395,0.602 39.297,0.000 41.340,0.000 C46.837,0.000 51.355,4.282 51.886,9.763 L51.888,9.763 C52.072,12.027 53.000,27.493 53.000,27.661 C53.000,30.057 51.102,32.000 48.760,32.000 ZM11.660,4.339 C8.147,4.339 5.300,7.253 5.300,10.847 C5.300,14.442 8.147,17.356 11.660,17.356 C15.173,17.356 18.020,14.442 18.020,10.847 C18.020,7.253 15.173,4.339 11.660,4.339 ZM41.340,4.339 C37.827,4.339 34.980,7.253 34.980,10.847 C34.980,14.442 37.827,17.356 41.340,17.356 C44.853,17.356 47.700,14.442 47.700,10.847 C47.700,7.253 44.853,4.339 41.340,4.339 ZM41.340,13.017 C41.340,11.818 42.291,10.847 43.460,10.847 C44.631,10.847 45.580,11.818 45.580,13.017 C45.580,14.216 44.631,15.187 43.460,15.187 C42.291,15.187 41.340,14.216 41.340,13.017 ZM39.220,10.847 C38.051,10.847 37.100,9.877 37.100,8.678 C37.100,7.479 38.051,6.508 39.220,6.508 C40.391,6.508 41.340,7.479 41.340,8.678 C41.340,9.877 40.391,10.847 39.220,10.847 ZM13.250,15.729 L10.070,15.729 L10.070,12.475 L6.890,12.475 L6.890,9.220 L10.070,9.220 L10.070,5.966 L13.250,5.966 L13.250,9.220 L16.430,9.220 L16.430,12.475 L13.250,12.475 L13.250,15.729 Z" class="cls-1"/>
</svg>
