<svg class="prnt-svg" xmlns="http://www.w3.org/2000/svg" xmlns:xlink="http://www.w3.org/1999/xlink" preserveAspectRatio="xMidYMid" width="72" height="46" viewBox="0 0 72 46">
  <defs>
    <style>
      .cls-1 { fill: #fff; fill-rule: evenodd;         transition: all .25s ease-out; transform-origin: 50% 50%; }

    </style>
  </defs>
  <path d="M71.183,23.403 C70.939,23.566 70.678,23.841 70.412,24.205 C70.148,24.571 69.884,25.032 69.604,25.568 C69.315,26.102 69.038,26.721 68.598,27.368 C68.482,27.527 68.355,27.691 68.181,27.840 C68.091,27.913 67.999,27.980 67.865,28.032 C67.795,28.057 67.708,28.084 67.668,28.084 L67.630,28.090 C67.606,28.091 67.631,28.091 67.567,28.095 C67.523,28.092 67.474,28.090 67.433,28.079 C67.265,28.032 67.157,27.941 67.065,27.855 C66.974,27.766 66.904,27.673 66.835,27.579 C66.703,27.388 66.593,27.191 66.488,26.989 C65.689,25.364 65.120,23.411 64.304,21.306 C64.100,20.782 63.883,20.247 63.628,19.728 C63.501,19.469 63.364,19.213 63.208,18.982 C63.130,18.869 63.047,18.761 62.964,18.676 C62.922,18.632 62.880,18.598 62.842,18.571 C62.820,18.554 62.784,18.538 62.773,18.533 C62.802,18.533 62.745,18.527 62.708,18.525 C62.767,18.529 62.706,18.529 62.711,18.532 L62.680,18.535 C62.636,18.542 62.593,18.554 62.546,18.575 C62.454,18.609 62.355,18.689 62.256,18.767 C62.058,18.944 61.870,19.179 61.693,19.433 C61.336,19.945 61.011,20.528 60.649,21.120 C60.281,21.709 59.906,22.334 59.299,22.888 C59.142,23.022 58.973,23.155 58.768,23.259 C58.669,23.315 58.556,23.356 58.445,23.397 C58.386,23.417 58.311,23.431 58.244,23.446 L58.141,23.465 L58.072,23.472 L58.004,23.477 C57.953,23.478 58.019,23.485 57.874,23.480 C57.814,23.475 57.751,23.464 57.691,23.449 C57.632,23.434 57.590,23.408 57.541,23.385 C57.348,23.279 57.260,23.158 57.175,23.050 C57.025,22.833 56.947,22.636 56.869,22.440 C56.599,21.668 56.468,20.918 56.337,20.149 C56.212,19.381 56.110,18.603 56.014,17.813 C55.632,14.657 55.364,11.299 54.860,7.815 C54.734,6.946 54.590,6.069 54.409,5.200 C54.224,4.337 54.007,3.457 53.674,2.698 C53.591,2.513 53.500,2.334 53.401,2.194 C53.329,2.086 53.249,1.998 53.190,1.948 C53.158,1.998 53.124,2.062 53.091,2.134 C52.938,2.476 52.817,2.916 52.717,3.359 C52.617,3.804 52.535,4.268 52.462,4.736 C52.179,6.618 52.020,8.591 51.882,10.599 C51.749,12.611 51.653,14.666 51.563,16.760 C51.381,20.947 51.254,25.284 51.087,29.750 C51.000,31.983 50.908,34.248 50.771,36.547 C50.703,37.697 50.622,38.855 50.514,40.026 C50.401,41.202 50.284,42.371 50.018,43.614 C49.947,43.929 49.867,44.248 49.732,44.606 C49.660,44.785 49.580,44.979 49.411,45.223 C49.366,45.288 49.311,45.355 49.248,45.424 C49.167,45.502 49.100,45.569 48.972,45.651 C48.936,45.705 48.529,45.857 48.442,45.850 C48.490,45.854 48.060,45.882 47.957,45.829 C47.595,45.732 47.401,45.552 47.261,45.412 C47.138,45.278 47.054,45.152 46.992,45.047 C46.867,44.829 46.794,44.647 46.729,44.474 C46.603,44.125 46.524,43.811 46.449,43.496 C46.171,42.251 46.029,41.056 45.891,39.846 C45.632,37.435 45.468,35.017 45.316,32.578 C45.018,27.704 44.804,22.758 44.530,17.763 C44.389,15.266 44.250,12.755 44.057,10.248 C43.961,8.994 43.852,7.739 43.712,6.497 C43.640,5.876 43.563,5.258 43.468,4.649 C43.457,4.577 43.446,4.506 43.433,4.435 C43.300,5.241 43.197,6.074 43.104,6.906 C42.832,9.427 42.660,11.994 42.502,14.565 C42.198,19.713 41.984,24.899 41.699,30.094 C41.557,32.691 41.407,35.290 41.193,37.899 C41.084,39.203 40.961,40.507 40.780,41.831 C40.685,42.495 40.582,43.156 40.414,43.859 C40.319,44.220 40.243,44.563 40.004,45.044 C39.944,45.161 39.856,45.311 39.714,45.478 C39.626,45.574 39.540,45.665 39.375,45.772 C39.267,45.891 38.665,46.030 38.787,45.989 C38.401,46.022 38.302,45.968 38.085,45.902 C37.911,45.835 37.771,45.742 37.671,45.661 C37.468,45.495 37.352,45.339 37.271,45.216 C37.101,44.958 37.016,44.754 36.938,44.558 C36.861,44.364 36.803,44.183 36.750,44.003 C36.645,43.646 36.565,43.305 36.496,42.970 C36.355,42.297 36.252,41.640 36.158,40.984 C35.974,39.676 35.837,38.382 35.714,37.090 C35.471,34.508 35.286,31.942 35.104,29.390 C34.926,26.843 34.748,24.307 34.571,21.782 C34.375,19.269 34.176,16.758 33.827,14.343 C33.773,13.981 33.713,13.623 33.646,13.274 C33.543,13.653 33.448,14.044 33.361,14.439 C32.858,16.788 32.526,19.216 32.203,21.616 C31.897,24.029 31.594,26.422 31.294,28.794 C31.137,29.984 30.978,31.169 30.785,32.359 C30.687,32.954 30.584,33.549 30.444,34.163 C30.370,34.475 30.300,34.779 30.156,35.153 C30.116,35.253 30.077,35.349 30.001,35.484 C29.962,35.552 29.913,35.630 29.835,35.724 C29.683,35.841 29.760,35.925 29.207,36.118 C29.221,36.178 28.385,36.123 28.342,35.957 C28.138,35.816 28.084,35.724 28.011,35.635 C27.895,35.468 27.850,35.359 27.803,35.254 C27.717,35.050 27.667,34.883 27.620,34.720 C27.575,34.556 27.536,34.400 27.501,34.245 C27.431,33.938 27.374,33.639 27.321,33.343 C27.214,32.750 27.127,32.168 27.045,31.587 C26.883,30.426 26.741,29.277 26.606,28.137 C26.335,25.859 26.085,23.613 25.810,21.407 C25.532,19.202 25.245,17.027 24.848,14.937 C24.747,14.415 24.638,13.900 24.514,13.400 C24.404,12.959 24.280,12.523 24.133,12.142 C24.063,12.326 23.998,12.525 23.939,12.727 C23.670,13.675 23.483,14.689 23.311,15.690 C23.144,16.694 22.999,17.699 22.863,18.698 C22.595,20.696 22.365,22.669 22.133,24.603 C21.901,26.539 21.673,28.436 21.397,30.294 C21.257,31.223 21.107,32.145 20.909,33.059 C20.807,33.516 20.697,33.972 20.538,34.440 C20.456,34.676 20.371,34.910 20.210,35.180 C20.109,35.321 20.068,35.446 19.759,35.653 C19.680,35.703 19.514,35.758 19.496,35.758 C19.411,35.767 19.570,35.759 19.285,35.781 C19.207,35.775 19.128,35.765 19.053,35.747 C18.987,35.727 18.923,35.701 18.860,35.673 C18.640,35.553 18.504,35.410 18.409,35.290 C18.307,35.163 18.236,35.044 18.170,34.926 C18.041,34.693 17.946,34.470 17.860,34.248 C17.694,33.808 17.564,33.376 17.447,32.946 C17.218,32.088 17.038,31.246 16.872,30.415 C16.542,28.752 16.273,27.139 16.005,25.580 C15.737,24.023 15.483,22.514 15.175,21.086 C15.019,20.377 14.856,19.672 14.629,19.052 C14.572,18.902 14.508,18.754 14.443,18.646 C14.436,18.634 14.428,18.622 14.420,18.611 C14.386,18.637 14.345,18.671 14.307,18.715 C14.217,18.814 14.128,18.940 14.045,19.071 C13.712,19.607 13.446,20.220 13.196,20.814 C12.947,21.412 12.721,22.010 12.502,22.596 C12.063,23.768 11.663,24.898 11.226,25.961 C11.003,26.493 10.782,27.008 10.479,27.499 C10.401,27.623 10.316,27.746 10.206,27.866 C10.153,27.925 10.086,27.985 10.005,28.041 C9.986,28.057 9.959,28.070 9.936,28.084 C9.914,28.095 9.890,28.109 9.846,28.123 C9.812,28.136 9.758,28.149 9.738,28.151 L9.690,28.157 C9.599,28.160 9.622,28.154 9.582,28.151 L9.507,28.143 C9.454,28.137 9.419,28.118 9.374,28.106 C9.283,28.080 9.220,28.038 9.146,28.001 C9.013,27.923 8.899,27.835 8.794,27.745 C8.385,27.377 8.081,26.984 7.786,26.603 C7.495,26.223 7.227,25.849 6.970,25.491 C6.454,24.780 5.982,24.114 5.477,23.605 C5.349,23.483 5.221,23.371 5.090,23.289 L4.994,23.238 C4.967,23.227 4.946,23.222 4.923,23.208 C4.907,23.204 4.882,23.201 4.862,23.199 L4.829,23.194 C4.829,23.193 4.819,23.193 4.813,23.192 L4.692,23.190 C4.352,23.184 4.031,23.180 3.728,23.175 C1.297,23.138 -0.000,23.119 -0.000,23.119 L-0.000,22.875 C-0.000,22.875 1.296,22.855 3.727,22.819 C4.031,22.815 4.352,22.810 4.691,22.804 L4.819,22.802 C4.874,22.804 4.853,22.805 4.873,22.806 L4.905,22.810 C4.928,22.813 4.946,22.813 4.973,22.813 C5.032,22.828 5.096,22.846 5.151,22.868 L5.291,22.938 C5.467,23.040 5.617,23.166 5.763,23.297 C6.330,23.835 6.823,24.494 7.363,25.193 C7.631,25.544 7.908,25.906 8.202,26.268 C8.497,26.628 8.812,27.003 9.167,27.299 C9.255,27.372 9.345,27.437 9.434,27.487 C9.477,27.504 9.522,27.533 9.558,27.539 C9.576,27.542 9.599,27.557 9.611,27.553 L9.633,27.555 C9.629,27.557 9.643,27.557 9.647,27.557 L9.670,27.553 C9.681,27.551 9.658,27.549 9.655,27.552 C9.643,27.558 9.648,27.555 9.653,27.551 C9.658,27.546 9.662,27.546 9.668,27.541 C9.694,27.521 9.726,27.493 9.760,27.454 C9.825,27.376 9.893,27.277 9.956,27.173 C10.207,26.743 10.414,26.234 10.616,25.713 C11.018,24.664 11.390,23.529 11.800,22.339 C12.006,21.744 12.220,21.134 12.460,20.514 C12.704,19.894 12.954,19.263 13.328,18.624 C13.424,18.464 13.529,18.304 13.667,18.143 C13.811,17.992 13.968,17.800 14.324,17.708 C14.371,17.701 14.419,17.696 14.466,17.693 C14.647,17.705 14.553,17.702 14.611,17.708 C14.628,17.708 14.737,17.744 14.793,17.775 C14.872,17.814 14.896,17.839 14.928,17.865 C15.063,17.976 15.123,18.073 15.191,18.171 C15.311,18.361 15.390,18.540 15.465,18.720 C15.745,19.433 15.923,20.144 16.100,20.873 C16.444,22.329 16.730,23.837 17.031,25.392 C17.331,26.945 17.633,28.548 17.991,30.177 C18.171,30.991 18.365,31.812 18.599,32.621 C18.718,33.024 18.847,33.423 18.998,33.798 C19.071,33.976 19.152,34.150 19.236,34.298 C19.269,34.214 19.301,34.124 19.329,34.032 C19.451,33.647 19.548,33.221 19.634,32.788 C19.803,31.921 19.937,31.018 20.059,30.103 C20.301,28.269 20.498,26.377 20.699,24.441 C20.900,22.505 21.098,20.525 21.336,18.503 C21.456,17.491 21.585,16.470 21.742,15.437 C21.902,14.400 22.074,13.359 22.359,12.282 C22.434,12.011 22.514,11.739 22.623,11.454 C22.739,11.167 22.841,10.882 23.122,10.523 C23.162,10.477 23.194,10.435 23.242,10.387 C23.297,10.337 23.354,10.288 23.413,10.242 C23.460,10.198 23.569,10.144 23.650,10.105 C23.731,10.062 23.842,10.030 23.960,10.014 C24.088,9.990 24.305,10.000 24.250,10.002 C24.381,10.014 24.551,10.065 24.618,10.100 C24.797,10.180 24.924,10.282 25.019,10.372 C25.209,10.557 25.311,10.719 25.404,10.874 C25.495,11.028 25.566,11.174 25.630,11.318 C25.879,11.887 26.034,12.427 26.180,12.971 C26.322,13.513 26.443,14.053 26.553,14.596 C26.991,16.761 27.305,18.950 27.611,21.169 C27.914,23.388 28.192,25.636 28.488,27.901 C28.626,28.959 28.770,30.021 28.929,31.080 C29.043,30.240 29.151,29.392 29.254,28.537 C29.537,26.171 29.807,23.770 30.110,21.345 C30.421,18.918 30.733,16.474 31.248,13.983 C31.382,13.356 31.529,12.730 31.730,12.082 C31.833,11.757 31.946,11.428 32.114,11.071 C32.201,10.892 32.298,10.705 32.453,10.491 C32.530,10.386 32.624,10.271 32.763,10.146 C32.901,10.026 33.091,9.883 33.382,9.797 C33.558,9.758 33.622,9.727 33.924,9.747 C33.831,9.719 34.327,9.815 34.427,9.902 C34.719,10.065 34.855,10.236 34.954,10.363 C35.154,10.633 35.234,10.829 35.318,11.023 C35.470,11.402 35.561,11.737 35.645,12.070 C35.807,12.732 35.919,13.369 36.020,14.007 C36.404,16.548 36.619,19.067 36.835,21.602 C37.043,24.136 37.232,26.677 37.416,29.225 C37.603,31.770 37.793,34.325 38.038,36.867 C38.162,38.137 38.299,39.406 38.478,40.652 C38.491,40.739 38.504,40.823 38.517,40.907 C38.646,39.853 38.745,38.781 38.833,37.704 C39.037,35.140 39.182,32.555 39.317,29.966 C39.580,24.789 39.803,19.598 40.127,14.419 C40.292,11.828 40.472,9.241 40.759,6.645 C40.909,5.344 41.068,4.052 41.371,2.703 C41.451,2.363 41.538,2.021 41.667,1.651 C41.732,1.467 41.811,1.271 41.927,1.052 C41.953,0.999 41.984,0.941 42.024,0.880 C42.058,0.823 42.100,0.759 42.152,0.691 C42.247,0.563 42.381,0.403 42.619,0.243 C42.737,0.164 42.897,0.086 43.082,0.038 C43.160,-0.019 43.681,-0.000 43.623,0.006 C43.628,-0.017 44.150,0.138 44.181,0.195 C44.324,0.277 44.411,0.354 44.503,0.436 C44.658,0.589 44.759,0.728 44.833,0.848 C44.910,0.971 44.966,1.081 45.015,1.186 C45.206,1.601 45.300,1.948 45.394,2.298 C45.571,2.987 45.682,3.641 45.782,4.295 C45.881,4.947 45.961,5.592 46.033,6.236 C46.176,7.523 46.283,8.800 46.378,10.072 C46.566,12.615 46.705,15.139 46.822,17.646 C47.058,22.659 47.235,27.605 47.493,32.453 C47.626,34.875 47.772,37.277 48.005,39.623 C48.079,40.336 48.162,41.048 48.266,41.738 C48.361,41.108 48.438,40.464 48.507,39.825 C48.626,38.691 48.719,37.551 48.801,36.415 C48.966,34.145 49.087,31.891 49.200,29.665 C49.424,25.213 49.606,20.874 49.842,16.674 C49.961,14.572 50.100,12.506 50.270,10.476 C50.444,8.446 50.638,6.454 50.969,4.490 C51.054,3.997 51.149,3.508 51.270,3.015 C51.392,2.521 51.525,2.030 51.769,1.506 C51.832,1.375 51.903,1.239 52.002,1.096 C52.100,0.956 52.221,0.798 52.439,0.646 C52.547,0.573 52.687,0.505 52.849,0.468 C52.960,0.452 52.947,0.439 53.168,0.445 L53.257,0.455 C53.296,0.460 53.289,0.454 53.376,0.473 C53.443,0.488 53.512,0.507 53.579,0.528 C53.651,0.552 53.706,0.576 53.747,0.599 L53.885,0.674 C54.230,0.891 54.427,1.153 54.592,1.397 C54.756,1.645 54.871,1.888 54.976,2.128 C55.374,3.087 55.570,4.013 55.755,4.930 C55.929,5.845 56.060,6.747 56.172,7.636 C56.606,11.192 56.798,14.558 57.106,17.693 C57.183,18.476 57.266,19.244 57.370,19.990 C57.477,20.730 57.599,21.473 57.806,22.102 C57.859,22.250 57.921,22.396 57.979,22.483 C57.984,22.491 57.990,22.497 57.994,22.503 L58.001,22.503 C58.201,22.493 58.458,22.362 58.683,22.170 C59.143,21.772 59.531,21.202 59.895,20.643 C60.264,20.077 60.608,19.495 61.016,18.940 C61.223,18.664 61.446,18.391 61.735,18.146 C62.030,17.918 62.415,17.665 62.948,17.767 C63.118,17.812 63.199,17.869 63.296,17.936 C63.385,18.002 63.459,18.070 63.522,18.141 C63.651,18.280 63.753,18.422 63.844,18.563 C64.023,18.847 64.164,19.130 64.293,19.411 C64.550,19.973 64.756,20.526 64.949,21.066 C65.332,22.146 65.654,23.172 65.972,24.129 C66.291,25.085 66.587,25.985 66.949,26.762 C67.039,26.954 67.136,27.137 67.241,27.300 C67.340,27.457 67.482,27.605 67.551,27.622 C67.557,27.626 67.562,27.623 67.566,27.626 C67.573,27.626 67.580,27.625 67.580,27.625 L67.618,27.620 C67.682,27.619 67.688,27.602 67.711,27.598 C67.765,27.580 67.838,27.536 67.900,27.489 C68.028,27.388 68.145,27.252 68.253,27.113 C68.675,26.537 68.980,25.921 69.285,25.393 C69.586,24.861 69.875,24.395 70.164,24.019 C70.457,23.643 70.749,23.353 71.033,23.175 C71.316,22.994 71.571,22.918 71.742,22.894 C71.827,22.879 71.892,22.883 71.936,22.879 C71.980,22.877 72.001,22.875 71.998,22.874 L71.998,23.118 C72.008,23.138 71.676,23.068 71.183,23.403 ZM57.927,22.509 C57.841,22.515 57.910,22.510 57.930,22.509 C57.928,22.509 57.928,22.509 57.927,22.509 Z" class="cls-1"/>
</svg>
