<svg class="prnt-svg" xmlns="http://www.w3.org/2000/svg" xmlns:xlink="http://www.w3.org/1999/xlink" preserveAspectRatio="xMidYMid" width="47" height="50" viewBox="0 0 47 50">
  <defs>
    <style>
      .cls-1 { fill: #fff; fill-rule: evenodd;         transition: all .25s ease-out; transform-origin: 50% 50%; }

    </style>
  </defs>
  <path d="M38.017,47.271 C37.847,47.271 37.708,47.132 37.708,46.961 C37.708,46.789 37.847,46.650 38.017,46.650 C40.124,46.650 47.000,46.773 47.000,48.336 C47.000,48.685 46.753,49.192 44.612,49.573 C43.043,49.852 40.806,50.000 38.142,50.000 C35.029,50.000 32.953,49.039 31.970,47.143 C28.853,41.124 37.981,27.199 40.853,23.074 C43.982,18.581 42.567,16.142 39.482,13.863 C39.442,13.833 39.414,13.794 39.392,13.751 C39.343,13.650 39.346,13.527 39.417,13.430 C39.477,13.347 39.570,13.303 39.665,13.303 C39.700,13.303 39.735,13.311 39.768,13.323 C39.795,13.332 39.822,13.346 39.846,13.364 C42.629,15.419 44.984,18.222 41.357,23.430 C38.536,27.482 29.560,41.147 32.516,46.857 C33.384,48.533 35.277,49.381 38.140,49.381 C43.918,49.381 46.156,48.691 46.376,48.337 C46.154,47.977 43.884,47.271 38.017,47.271 ZM38.780,13.352 C38.741,13.359 38.703,13.364 38.664,13.364 C38.524,13.364 38.384,13.320 38.265,13.226 C38.265,13.226 38.110,13.116 38.043,13.067 C37.977,13.018 38.000,12.964 38.016,12.943 C38.247,12.617 38.475,12.302 38.699,11.998 C38.715,11.977 38.753,11.941 38.826,12.002 C38.896,12.064 39.063,12.208 39.063,12.208 C39.237,12.345 39.322,12.555 39.308,12.762 C39.299,12.887 39.255,13.011 39.172,13.117 C39.071,13.247 38.930,13.325 38.780,13.352 ZM38.467,11.272 C38.030,11.854 37.569,12.497 37.105,13.157 C35.808,14.996 34.477,16.976 33.528,18.228 C32.558,19.507 31.565,19.923 30.540,19.923 C29.594,19.923 28.619,19.568 27.608,19.212 C27.399,19.138 27.121,19.042 26.794,18.929 C26.698,18.896 26.600,18.862 26.496,18.826 C26.401,18.794 26.300,18.759 26.199,18.724 C24.902,20.976 22.876,24.478 21.549,26.704 C21.510,26.768 21.430,26.905 21.675,27.097 C21.758,27.161 21.834,27.232 21.914,27.299 C23.582,28.709 25.195,30.069 25.951,30.693 C27.851,32.261 29.655,33.683 28.419,36.857 C27.184,40.032 24.430,47.263 24.276,47.738 C24.256,47.802 24.182,47.834 24.073,47.834 C23.369,47.834 21.154,46.529 21.839,44.361 C22.633,41.860 24.063,37.334 24.348,36.504 C24.632,35.674 24.308,35.153 23.122,34.529 C23.122,34.529 19.329,32.924 16.669,31.804 C16.647,31.795 16.626,31.786 16.604,31.776 C16.154,31.587 15.737,31.411 15.380,31.261 C15.049,31.122 14.767,31.004 14.556,30.916 C13.553,30.498 13.109,29.746 12.961,28.923 C12.945,28.836 12.933,28.748 12.922,28.660 C12.915,28.584 12.909,28.509 12.906,28.432 C12.849,27.316 13.226,26.168 13.421,25.613 L13.422,25.612 C13.536,25.238 13.677,24.840 13.844,24.416 C15.154,21.096 18.962,12.355 18.962,12.355 C19.852,10.542 21.453,9.395 23.214,9.395 C23.853,9.395 24.513,9.546 25.167,9.871 L25.631,10.100 C27.340,10.949 28.148,12.548 28.047,14.272 C28.035,14.448 28.134,14.588 28.323,14.698 C28.512,14.808 28.515,14.804 28.515,14.804 L28.613,14.857 L29.232,15.198 C29.759,15.517 30.161,15.676 30.495,15.676 C30.822,15.676 31.084,15.525 31.333,15.222 C31.839,14.608 34.930,11.518 36.486,9.721 C36.623,9.563 36.758,9.436 36.893,9.330 C37.222,9.074 37.544,8.960 37.827,8.960 C38.690,8.960 39.216,9.979 38.632,11.016 C38.584,11.101 38.531,11.187 38.467,11.272 ZM31.256,14.676 C30.965,14.963 30.696,15.080 30.419,15.080 C30.031,15.080 29.626,14.854 29.118,14.547 C29.045,14.502 28.996,14.430 28.978,14.352 C28.959,14.275 28.970,14.193 29.013,14.121 C29.071,14.024 29.174,13.970 29.278,13.970 C29.333,13.970 29.387,13.983 29.437,14.015 C29.964,14.333 30.235,14.461 30.422,14.461 C30.579,14.461 30.680,14.374 30.822,14.233 C31.143,13.918 34.299,10.517 34.326,10.490 C34.373,10.451 34.335,10.404 34.325,10.396 C34.223,10.297 34.182,10.142 34.181,9.976 C34.180,9.828 34.212,9.674 34.269,9.538 C34.302,9.462 34.339,9.390 34.383,9.333 C34.445,9.254 34.533,9.179 34.634,9.117 C34.763,9.037 34.913,8.979 35.056,8.963 C35.085,8.960 35.111,8.957 35.139,8.957 C35.246,8.957 35.348,8.984 35.426,9.046 L35.502,9.110 C35.502,9.110 35.557,9.161 35.604,9.110 C35.702,9.006 35.757,8.946 35.762,8.940 C35.824,8.874 35.906,8.841 35.988,8.841 C36.063,8.841 36.139,8.868 36.198,8.924 C36.235,8.959 36.259,9.001 36.274,9.047 C36.313,9.152 36.295,9.274 36.214,9.362 C36.034,9.558 31.777,14.163 31.256,14.676 ZM34.402,8.901 C34.367,8.964 34.328,9.025 34.282,9.083 C34.204,9.184 34.115,9.269 34.018,9.342 C33.894,9.437 33.757,9.510 33.614,9.559 C33.464,9.610 33.309,9.636 33.151,9.636 C32.840,9.636 32.529,9.535 32.265,9.327 C31.642,8.835 31.533,7.927 32.023,7.301 C32.306,6.938 32.728,6.748 33.154,6.748 C33.464,6.748 33.776,6.849 34.039,7.056 C34.477,7.401 34.660,7.948 34.563,8.462 C34.534,8.613 34.480,8.761 34.402,8.901 ZM29.486,7.454 C29.113,8.643 28.020,9.404 26.842,9.404 C26.566,9.404 26.286,9.361 26.007,9.274 L24.742,8.873 C23.283,8.409 22.471,6.844 22.932,5.377 L24.024,1.949 C24.397,0.760 25.491,-0.000 26.668,-0.000 C26.944,-0.000 27.225,0.042 27.502,0.129 L28.769,0.531 C30.228,0.994 31.039,2.559 30.578,4.026 L29.486,7.454 ZM14.320,31.491 C14.530,31.579 14.812,31.696 15.142,31.835 C15.390,31.938 15.666,32.053 15.961,32.179 C16.092,32.235 16.061,32.332 16.022,32.371 C11.617,36.872 1.797,47.018 1.515,47.336 C1.183,47.708 -1.086,45.224 0.643,43.258 C2.110,41.587 8.904,33.602 12.374,29.601 C12.457,29.505 12.508,29.604 12.530,29.659 C12.841,30.499 13.444,31.126 14.320,31.491 Z" class="cls-1"/>
</svg>
