<svg class="prnt-svg" xmlns="http://www.w3.org/2000/svg" xmlns:xlink="http://www.w3.org/1999/xlink" preserveAspectRatio="xMidYMid" width="50.438" height="49.87" viewBox="0 0 50.438 49.87">
  <defs>
    <style>
      .cls-1 { fill: #fff; fill-rule: evenodd;         transition: all .25s ease-out; transform-origin: 50% 50%; }

    </style>
  </defs>
  <path d="M49.413,27.159 C48.671,27.563 48.130,28.233 47.891,29.046 C47.652,29.858 47.742,30.714 48.146,31.458 C48.676,32.436 48.314,33.663 47.339,34.195 L19.050,49.616 C18.740,49.785 18.391,49.870 18.039,49.861 C17.321,49.842 16.663,49.439 16.321,48.808 C15.782,47.815 14.748,47.181 13.620,47.152 C13.068,47.138 12.519,47.272 12.031,47.537 C11.722,47.706 11.372,47.791 11.020,47.782 C10.302,47.763 9.645,47.360 9.302,46.729 L5.482,39.688 L1.443,36.366 C0.589,35.664 0.465,34.397 1.165,33.540 C1.698,32.889 1.947,32.068 1.864,31.230 C1.781,30.391 1.378,29.636 0.728,29.101 C-0.125,28.399 -0.250,27.131 0.450,26.275 L20.775,1.444 C20.998,1.171 21.289,0.963 21.617,0.839 C22.285,0.586 23.043,0.712 23.594,1.165 C24.461,1.878 25.652,2.075 26.703,1.678 C27.216,1.484 27.672,1.155 28.023,0.727 C28.246,0.455 28.537,0.246 28.864,0.123 C29.533,-0.130 30.290,-0.005 30.841,0.449 L40.573,8.454 C41.427,9.155 41.551,10.423 40.851,11.279 C40.478,11.734 40.254,12.275 40.176,12.844 C40.618,12.810 41.052,12.688 41.446,12.474 C41.756,12.305 42.106,12.220 42.458,12.229 C43.175,12.248 43.833,12.650 44.176,13.282 L50.219,24.423 C50.750,25.400 50.388,26.627 49.413,27.159 ZM40.199,17.048 C39.195,16.222 38.571,15.054 38.444,13.758 C38.317,12.461 38.700,11.193 39.524,10.187 C39.624,10.065 39.606,9.884 39.485,9.783 L29.753,1.779 C29.634,1.682 29.449,1.696 29.350,1.819 C28.809,2.480 28.102,2.989 27.307,3.288 C25.684,3.900 23.844,3.597 22.505,2.495 C22.387,2.398 22.203,2.413 22.102,2.535 L1.777,27.366 C1.677,27.489 1.695,27.671 1.817,27.771 C2.821,28.597 3.444,29.765 3.572,31.061 C3.699,32.357 3.315,33.625 2.491,34.632 C2.391,34.754 2.409,34.935 2.531,35.036 L12.263,43.040 C12.382,43.137 12.567,43.122 12.666,43.000 C13.207,42.338 13.914,41.830 14.708,41.530 C16.331,40.918 18.171,41.222 19.510,42.323 C19.629,42.421 19.814,42.406 19.913,42.283 L40.238,17.452 C40.339,17.330 40.321,17.148 40.199,17.048 ZM24.934,38.863 L41.160,30.018 C41.433,29.869 41.533,29.526 41.385,29.253 L37.963,22.945 L24.934,38.863 ZM48.705,25.249 L42.662,14.109 C42.587,13.974 42.410,13.917 42.271,13.994 C41.697,14.306 41.066,14.495 40.421,14.558 C40.617,15.002 40.903,15.402 41.288,15.719 C42.142,16.421 42.267,17.689 41.567,18.545 L39.145,21.504 L42.901,28.428 C43.193,28.966 43.258,29.586 43.085,30.173 C42.912,30.760 42.521,31.245 41.984,31.538 L22.025,42.419 L21.241,43.377 C21.017,43.649 20.727,43.857 20.399,43.981 C19.731,44.234 18.973,44.109 18.422,43.655 C17.555,42.942 16.364,42.746 15.313,43.142 C14.800,43.336 14.344,43.665 13.993,44.092 C13.770,44.365 13.479,44.573 13.152,44.697 C12.483,44.950 11.726,44.825 11.175,44.371 L9.028,42.605 L10.817,45.903 C10.891,46.039 11.069,46.096 11.208,46.018 C11.961,45.608 12.810,45.402 13.663,45.424 C15.405,45.469 17.004,46.448 17.836,47.982 C17.910,48.118 18.087,48.174 18.226,48.097 L46.515,32.676 C46.654,32.600 46.706,32.424 46.630,32.285 C46.007,31.135 45.867,29.811 46.237,28.556 C46.607,27.301 47.442,26.265 48.589,25.640 C48.728,25.564 48.780,25.389 48.705,25.249 ZM19.651,37.632 C19.398,37.941 19.066,38.179 18.693,38.320 C17.934,38.606 17.073,38.464 16.447,37.949 L6.696,29.929 C6.226,29.543 5.934,28.995 5.875,28.389 C5.815,27.782 5.994,27.188 6.380,26.717 L22.365,7.188 C22.618,6.878 22.950,6.640 23.323,6.499 C24.082,6.213 24.943,6.355 25.569,6.871 L35.320,14.890 C35.790,15.277 36.082,15.824 36.141,16.431 C36.201,17.037 36.022,17.631 35.636,18.102 L19.651,37.632 ZM34.231,16.220 L24.480,8.200 C24.320,8.069 24.108,8.041 23.927,8.109 C23.838,8.143 23.756,8.200 23.692,8.279 L7.707,27.808 C7.511,28.048 7.546,28.402 7.785,28.598 L17.535,36.618 C17.695,36.749 17.907,36.778 18.088,36.709 C18.177,36.675 18.259,36.619 18.323,36.540 L34.308,17.011 C34.504,16.771 34.470,16.417 34.231,16.220 ZM26.808,23.445 L23.716,24.404 C23.657,24.429 23.607,24.467 23.568,24.515 C23.528,24.563 23.500,24.620 23.488,24.682 L23.154,27.909 C23.139,27.985 23.107,28.050 23.063,28.102 C23.013,28.163 22.949,28.208 22.878,28.234 C22.715,28.296 22.519,28.263 22.387,28.111 L20.557,25.449 C20.474,25.353 20.349,25.304 20.223,25.318 L17.022,26.006 C16.658,26.047 16.406,25.652 16.594,25.337 L18.589,22.762 C18.655,22.653 18.663,22.518 18.610,22.402 L16.933,19.573 C16.857,19.406 16.893,19.231 16.993,19.109 C17.042,19.049 17.107,19.001 17.180,18.974 C17.257,18.945 17.345,18.937 17.436,18.958 L20.532,20.055 C20.607,20.072 20.685,20.067 20.755,20.040 C20.801,20.023 20.843,19.997 20.880,19.964 L23.010,17.499 C23.054,17.459 23.103,17.430 23.153,17.411 C23.412,17.312 23.722,17.483 23.748,17.789 L23.700,21.070 C23.711,21.197 23.783,21.310 23.894,21.373 L26.855,22.651 C27.107,22.795 27.142,23.119 26.979,23.318 C26.936,23.371 26.879,23.415 26.808,23.445 Z" class="cls-1"/>
</svg>
