<svg class="prnt-svg" xmlns="http://www.w3.org/2000/svg" xmlns:xlink="http://www.w3.org/1999/xlink" preserveAspectRatio="xMidYMid" width="49.531" height="64" viewBox="0 0 49.531 64">
  <defs>
    <style>
      .cls-1 { fill: #fff; fill-rule: evenodd;         transition: all .25s ease-out; transform-origin: 50% 50%; }

    </style>
  </defs>
  <g>
    <path d="M43.788,62.756 C43.782,62.771 43.771,62.781 43.765,62.796 C43.745,62.848 43.713,62.888 43.688,62.938 C43.612,63.093 43.522,63.237 43.409,63.362 C43.360,63.415 43.310,63.461 43.255,63.509 C43.139,63.615 43.012,63.699 42.875,63.772 C42.813,63.804 42.756,63.839 42.693,63.864 C42.481,63.944 42.263,64.000 42.031,64.000 L21.406,64.000 C20.371,64.000 19.531,63.141 19.531,62.083 C19.531,61.025 20.371,60.166 21.406,60.166 L40.156,60.166 L34.531,46.750 L34.531,27.583 C34.531,26.525 35.371,25.667 36.406,25.667 L45.781,25.667 L45.781,21.833 L36.406,21.833 C35.371,21.833 34.531,20.975 34.531,19.917 C34.531,18.859 35.371,18.000 36.406,18.000 L47.656,18.000 C48.691,18.000 49.531,18.859 49.531,19.917 L49.531,27.583 C49.531,28.641 48.691,29.500 47.656,29.500 L38.281,29.500 L38.281,46.750 L42.031,56.625 L45.781,46.750 L45.781,35.250 C45.781,34.192 46.621,33.333 47.656,33.333 C48.691,33.333 49.531,34.192 49.531,35.250 L49.531,46.750 L43.788,62.756 Z" class="cls-1"/>
    <path d="M12.872,19.131 L1.387,21.726 C1.109,21.814 0.737,21.993 0.549,22.359 C-0.010,22.721 -0.109,23.366 0.070,23.923 L6.748,38.810 C5.730,38.887 3.972,39.137 2.478,40.592 C1.918,41.138 1.449,41.777 1.165,42.419 C0.224,44.068 1.028,46.575 2.862,47.897 C4.328,49.029 6.541,49.433 8.689,47.341 C8.876,47.159 9.062,46.977 9.249,46.795 C10.840,44.879 11.043,43.219 10.870,42.108 C10.965,41.832 10.876,41.553 10.786,41.275 L4.468,27.317 L13.823,25.152 L18.608,35.667 C17.590,35.744 15.832,35.994 14.338,37.449 C13.778,37.995 13.309,38.635 13.025,39.277 C12.084,40.925 12.888,43.433 14.722,44.755 C16.188,45.886 18.401,46.290 20.549,44.198 C20.736,44.016 20.922,43.834 21.109,43.652 C22.700,41.737 22.903,40.076 22.730,38.965 C22.825,38.689 22.736,38.411 22.646,38.132 L14.161,19.521 C14.072,19.243 13.428,18.955 12.872,19.131 ZM16.405,42.933 C15.580,42.273 15.129,41.250 15.411,40.792 C15.693,40.335 15.975,39.877 16.256,39.604 C17.469,38.422 18.854,38.536 19.224,38.541 C19.500,38.638 20.050,39.016 20.229,39.573 C20.497,40.409 19.837,41.600 19.182,42.421 C18.248,43.331 17.229,43.592 16.405,42.933 ZM4.547,45.891 C3.722,45.231 3.271,44.208 3.553,43.750 C3.835,43.292 4.117,42.835 4.397,42.562 C5.611,41.380 6.996,41.494 7.365,41.499 C7.642,41.596 8.192,41.974 8.371,42.531 C8.639,43.367 7.979,44.558 7.324,45.379 C6.390,46.289 5.371,46.550 4.547,45.891 ZM3.477,24.992 L3.026,23.968 L12.381,21.803 L12.741,22.733 L3.477,24.992 Z" class="cls-1"/>
    <path d="M32.152,3.749 L26.530,0.107 C26.383,0.028 26.163,-0.051 25.940,0.020 C25.572,-0.063 25.272,0.157 25.119,0.455 L21.774,9.184 C21.337,8.800 20.536,8.183 19.354,8.160 C18.910,8.151 18.466,8.218 18.093,8.361 C17.053,8.641 16.362,9.981 16.559,11.262 C16.687,12.317 17.406,13.384 19.106,13.417 C19.253,13.420 19.401,13.423 19.549,13.425 C20.956,13.303 21.706,12.716 22.086,12.197 C22.235,12.125 22.312,11.976 22.388,11.827 L25.502,3.620 L30.102,6.566 L27.767,12.759 C27.331,12.375 26.529,11.758 25.347,11.735 C24.904,11.726 24.459,11.793 24.087,11.936 C23.046,12.216 22.355,13.555 22.553,14.837 C22.680,15.892 23.399,16.958 25.099,16.992 C25.247,16.994 25.394,16.997 25.542,17.000 C26.949,16.877 27.699,16.291 28.079,15.772 C28.228,15.700 28.305,15.551 28.382,15.402 L32.509,4.433 C32.585,4.284 32.445,3.905 32.152,3.749 ZM23.958,14.789 C23.896,14.187 24.129,13.590 24.426,13.521 C24.723,13.451 25.020,13.382 25.242,13.386 C26.202,13.405 26.708,14.016 26.853,14.170 C26.924,14.321 26.991,14.698 26.837,14.996 C26.607,15.443 25.864,15.654 25.271,15.717 C24.532,15.703 24.021,15.392 23.958,14.789 ZM18.040,11.141 C17.978,10.538 18.211,9.941 18.508,9.872 C18.805,9.803 19.102,9.733 19.324,9.738 C20.284,9.757 20.790,10.368 20.935,10.521 C21.006,10.673 21.073,11.050 20.919,11.348 C20.689,11.794 19.946,12.005 19.353,12.069 C18.614,12.054 18.103,11.744 18.040,11.141 ZM26.045,2.277 L26.278,1.680 L30.879,4.626 L30.647,5.148 L26.045,2.277 Z" class="cls-1"/>
  </g>
</svg>
