<svg class="prnt-svg" xmlns="http://www.w3.org/2000/svg" xmlns:xlink="http://www.w3.org/1999/xlink" preserveAspectRatio="xMidYMid" width="58" height="49" viewBox="0 0 58 49">
  <defs>
    <style>
      .cls-1 { fill: #fff; fill-rule: evenodd;         transition: all .25s ease-out; transform-origin: 50% 50%; }

    </style>
  </defs>
  <path d="M57.173,10.261 C57.527,11.722 57.928,13.379 57.991,14.559 C58.064,15.982 57.635,17.350 57.256,18.558 C57.013,19.333 56.784,20.065 56.784,20.548 C56.784,21.031 57.013,21.763 57.256,22.538 C57.636,23.746 58.064,25.114 57.991,26.535 C57.928,27.717 57.527,29.374 57.173,30.835 C57.012,31.505 56.860,32.130 56.759,32.626 C56.649,33.196 56.870,34.232 57.066,35.146 C57.484,37.088 57.956,39.290 56.281,40.478 C55.656,40.921 54.929,41.099 54.139,41.099 C52.557,41.099 50.719,40.385 48.905,39.656 C47.708,38.047 46.207,36.806 44.434,35.987 C44.522,35.982 44.616,35.959 44.703,35.959 C46.090,35.959 47.778,36.639 49.566,37.360 C51.447,38.117 54.023,39.159 54.868,38.555 C55.270,38.270 54.916,36.621 54.703,35.635 C54.449,34.447 54.185,33.217 54.388,32.178 C54.492,31.653 54.651,30.993 54.822,30.289 C55.152,28.925 55.526,27.378 55.576,26.415 C55.630,25.410 55.282,24.305 54.946,23.237 C54.649,22.285 54.367,21.388 54.367,20.549 C54.367,19.710 54.649,18.812 54.946,17.860 C55.282,16.792 55.630,15.687 55.576,14.682 C55.526,13.718 55.151,12.173 54.822,10.809 C54.651,10.104 54.492,9.445 54.390,8.919 C54.185,7.880 54.449,6.650 54.703,5.462 C54.916,4.476 55.269,2.827 54.868,2.543 C54.021,1.938 51.447,2.979 49.566,3.736 C47.778,4.456 46.090,5.137 44.703,5.137 C43.263,5.137 41.617,4.491 40.026,3.867 C38.647,3.325 37.222,2.766 36.247,2.766 C35.324,2.766 34.274,3.281 33.163,3.826 C31.852,4.469 30.496,5.135 29.005,5.137 C29.004,5.137 29.003,5.137 29.001,5.137 C29.001,5.137 29.000,5.137 28.999,5.137 C27.508,5.134 26.151,4.469 24.841,3.826 C23.729,3.281 22.680,2.766 21.757,2.766 C20.781,2.766 19.356,3.325 17.977,3.867 C16.387,4.491 14.741,5.137 13.301,5.137 C11.915,5.137 10.226,4.456 8.439,3.736 C6.558,2.980 3.982,1.938 3.136,2.543 C2.736,2.825 3.090,4.475 3.302,5.461 C3.556,6.651 3.821,7.881 3.616,8.920 C3.513,9.449 3.352,10.112 3.181,10.822 C2.852,12.181 2.478,13.722 2.429,14.684 C2.377,15.686 2.724,16.792 3.059,17.861 C3.356,18.812 3.638,19.710 3.638,20.550 L3.632,20.550 C3.632,21.389 3.351,22.286 3.053,23.238 C2.717,24.306 2.370,25.411 2.423,26.416 C2.474,27.380 2.848,28.926 3.177,30.290 C3.348,30.994 3.507,31.653 3.610,32.179 C3.814,33.218 3.551,34.448 3.296,35.636 C3.084,36.623 2.730,38.271 3.131,38.556 C3.979,39.157 6.552,38.118 8.432,37.361 C9.755,36.829 11.019,36.321 12.151,36.092 C12.536,36.949 13.072,37.725 13.732,38.384 C13.585,38.364 13.428,38.331 13.297,38.331 C12.385,38.331 10.843,38.954 9.350,39.556 C7.455,40.317 5.516,41.100 3.860,41.100 C3.070,41.100 2.344,40.922 1.718,40.480 C0.042,39.292 0.514,37.089 0.932,35.147 C1.128,34.232 1.350,33.197 1.238,32.628 C1.140,32.130 0.988,31.505 0.827,30.836 C0.473,29.374 0.072,27.717 0.009,26.538 C-0.064,25.114 0.364,23.746 0.743,22.539 C0.986,21.763 1.216,21.031 1.216,20.549 L1.221,20.549 C1.221,20.065 0.992,19.333 0.749,18.557 C0.371,17.350 -0.058,15.983 0.015,14.561 C0.077,13.382 0.477,11.730 0.830,10.272 C0.993,9.600 1.145,8.971 1.243,8.470 C1.356,7.899 1.133,6.863 0.937,5.949 C0.520,4.006 0.047,1.805 1.723,0.618 C3.662,-0.749 6.556,0.416 9.356,1.543 C10.849,2.144 12.392,2.765 13.301,2.765 C14.277,2.765 15.702,2.206 17.081,1.665 C18.671,1.041 20.317,0.395 21.757,0.395 C23.251,0.395 24.609,1.062 25.922,1.706 C27.032,2.250 28.081,2.765 29.002,2.766 C29.924,2.765 30.973,2.250 32.083,1.706 C33.397,1.061 34.754,0.395 36.248,0.395 C37.688,0.395 39.334,1.040 40.924,1.665 C42.303,2.206 43.728,2.765 44.704,2.765 C45.615,2.765 47.158,2.144 48.650,1.542 C51.450,0.415 54.344,-0.750 56.283,0.618 C57.957,1.804 57.486,4.007 57.068,5.950 C56.872,6.864 56.651,7.900 56.762,8.468 C56.860,8.967 57.012,9.591 57.173,10.261 ZM19.335,40.701 C22.658,40.701 24.962,41.690 26.581,42.978 C25.395,46.048 25.375,48.873 25.375,49.000 L19.335,49.000 L8.463,49.000 C8.463,49.000 9.671,40.701 19.335,40.701 ZM38.664,34.774 C35.662,34.774 33.228,32.385 33.228,29.439 C33.228,26.493 35.662,24.104 38.664,24.104 C41.666,24.104 44.100,26.493 44.100,29.439 C44.100,32.385 41.666,34.774 38.664,34.774 ZM43.490,14.621 C43.490,15.931 42.408,16.992 41.074,16.992 C39.739,16.992 38.658,15.931 38.658,14.621 C38.658,13.312 39.739,12.250 41.074,12.250 C42.408,12.250 43.490,13.312 43.490,14.621 ZM16.706,14.968 L20.978,19.159 L16.706,23.350 L12.436,19.159 L16.706,14.968 ZM19.270,19.159 L16.706,16.645 L14.144,19.159 L16.706,21.674 L19.270,19.159 ZM19.335,38.331 C16.333,38.331 13.899,35.942 13.899,32.996 C13.899,30.049 16.333,27.661 19.335,27.661 C22.338,27.661 24.772,30.049 24.772,32.996 C24.772,35.942 22.338,38.331 19.335,38.331 ZM27.302,17.467 C27.302,17.859 26.978,18.178 26.578,18.178 C26.177,18.178 25.853,17.859 25.853,17.467 C25.853,15.332 23.678,15.332 23.678,15.332 C23.279,15.332 22.954,15.015 22.954,14.621 C22.954,14.227 23.279,13.910 23.678,13.910 C23.678,13.910 25.853,13.910 25.853,11.775 C25.853,11.383 26.177,11.064 26.578,11.064 C26.978,11.064 27.302,11.383 27.302,11.775 C27.302,13.910 29.478,13.910 29.478,13.910 C29.878,13.910 30.201,14.227 30.201,14.621 C30.201,15.015 29.877,15.332 29.478,15.332 C29.478,15.332 27.302,15.332 27.302,17.467 ZM34.468,16.298 C34.858,15.993 35.428,16.054 35.741,16.437 C37.082,18.081 36.914,19.342 36.538,20.109 C34.813,23.631 24.919,23.809 22.954,23.809 C22.454,23.809 22.048,23.411 22.048,22.920 C22.048,22.429 22.454,22.031 22.954,22.031 C27.369,22.030 33.997,21.193 34.906,19.339 C35.125,18.891 34.930,18.288 34.326,17.549 C34.014,17.165 34.077,16.605 34.468,16.298 ZM48.328,9.879 L29.000,9.879 L9.672,9.879 L9.672,20.549 L9.672,31.218 L11.703,31.218 C11.565,31.790 11.484,32.385 11.484,32.996 C11.484,33.197 11.499,33.392 11.514,33.589 L9.672,33.589 C8.340,33.589 7.256,32.526 7.256,31.218 L7.256,20.549 L7.256,9.879 C7.256,8.572 8.340,7.508 9.672,7.508 L29.000,7.508 L48.328,7.508 C49.660,7.508 50.744,8.572 50.743,9.879 L50.743,20.549 L50.743,31.217 C50.743,32.526 49.659,33.588 48.327,33.588 L45.269,33.588 C45.739,32.871 46.090,32.072 46.296,31.217 L48.328,31.217 L48.328,20.549 L48.328,9.879 ZM38.664,37.145 C49.536,37.145 49.536,49.000 49.536,49.000 L38.664,49.000 L27.792,49.000 C27.792,49.000 27.792,37.145 38.664,37.145 Z" class="cls-1"/>
</svg>
