<svg class="prnt-svg" xmlns="http://www.w3.org/2000/svg" xmlns:xlink="http://www.w3.org/1999/xlink" preserveAspectRatio="xMidYMid" width="60" height="56" viewBox="0 0 60 56">
  <defs>
    <style>
      .cls-1 { fill: #fff; fill-rule: evenodd;         transition: all .25s ease-out; transform-origin: 50% 50%; }

    </style>
  </defs>
  <path d="M49.023,26.665 C49.534,28.449 49.808,30.218 49.808,31.937 C49.808,35.175 48.992,38.407 47.448,41.282 C46.047,43.892 44.055,46.151 41.696,47.889 C42.675,49.907 43.439,52.403 43.439,55.303 L43.439,56.000 L30.000,56.000 L16.561,56.000 L16.561,55.303 C16.561,52.403 17.325,49.907 18.304,47.889 C15.944,46.151 13.953,43.892 12.551,41.282 C11.008,38.407 10.191,35.175 10.191,31.937 C10.191,30.218 10.466,28.449 10.977,26.665 L-0.000,26.665 L-0.000,25.968 C-0.000,21.249 2.016,17.585 3.707,15.342 C5.299,13.232 6.879,11.971 7.312,11.644 C6.479,10.445 5.987,8.993 5.987,7.428 C5.987,3.332 9.330,0.000 13.439,0.000 C17.547,0.000 20.890,3.332 20.890,7.428 C20.890,8.993 20.399,10.445 19.566,11.644 C19.891,11.890 20.865,12.664 22.005,13.930 C24.770,12.763 27.331,12.191 30.000,12.191 C32.822,12.191 35.587,12.783 38.048,13.873 C39.164,12.643 40.114,11.886 40.434,11.644 C39.601,10.445 39.110,8.993 39.110,7.428 C39.110,3.332 42.452,0.000 46.561,0.000 C50.670,0.000 54.012,3.332 54.012,7.428 C54.012,8.993 53.521,10.445 52.688,11.644 C53.121,11.971 54.701,13.232 56.293,15.342 C57.984,17.585 60.000,21.249 60.000,25.968 L60.000,26.665 L49.023,26.665 ZM17.976,54.606 L30.000,54.606 L42.024,54.606 C41.881,51.398 40.745,48.356 38.642,45.553 C37.014,43.383 35.377,42.159 35.226,42.049 C33.880,43.371 32.035,44.190 30.000,44.190 C27.965,44.190 26.120,43.371 24.774,42.049 C24.627,42.157 22.988,43.380 21.358,45.553 C19.255,48.356 18.119,51.398 17.976,54.606 ZM36.052,36.762 C36.052,33.436 33.337,30.729 30.000,30.729 C26.663,30.729 23.948,33.436 23.948,36.762 C23.948,40.089 26.663,42.795 30.000,42.795 C33.337,42.795 36.052,40.089 36.052,36.762 ZM13.439,1.394 C10.101,1.394 7.386,4.101 7.386,7.428 C7.386,10.754 10.101,13.461 13.439,13.461 C16.776,13.461 19.491,10.754 19.491,7.428 C19.491,4.101 16.776,1.394 13.439,1.394 ZM18.665,12.714 C17.319,14.036 15.474,14.855 13.439,14.855 C11.404,14.855 9.559,14.036 8.213,12.714 C8.065,12.822 6.427,14.046 4.797,16.218 C2.694,19.021 1.558,22.063 1.414,25.271 L13.439,25.271 L25.463,25.271 C25.263,20.916 23.226,17.553 21.432,15.407 C21.285,15.339 21.154,15.238 21.082,15.079 C21.067,15.047 21.068,15.013 21.059,14.979 C19.829,13.593 18.789,12.805 18.665,12.714 ZM30.000,13.585 C27.652,13.585 25.380,14.076 22.944,15.056 C23.019,15.153 23.094,15.242 23.170,15.342 C24.861,17.585 26.878,21.249 26.878,25.968 L26.878,26.665 L13.439,26.665 L12.433,26.665 C11.883,28.454 11.590,30.226 11.590,31.937 C11.590,34.947 12.349,37.951 13.785,40.624 C15.055,42.988 16.848,45.038 18.966,46.638 C19.396,45.898 19.843,45.242 20.269,44.677 C21.860,42.567 23.440,41.306 23.873,40.979 C23.040,39.780 22.549,38.328 22.549,36.762 C22.549,32.667 25.891,29.335 30.000,29.335 C34.109,29.335 37.451,32.667 37.451,36.762 C37.451,38.328 36.960,39.780 36.127,40.979 C36.560,41.306 38.140,42.567 39.731,44.677 C40.157,45.242 40.604,45.898 41.034,46.638 C43.152,45.038 44.945,42.988 46.215,40.624 C47.651,37.951 48.410,34.947 48.410,31.937 C48.410,30.226 48.117,28.454 47.566,26.665 L46.561,26.665 L33.122,26.665 L33.122,25.968 C33.122,21.249 35.138,17.585 36.830,15.342 C36.922,15.220 37.013,15.111 37.105,14.995 C34.916,14.087 32.486,13.585 30.000,13.585 ZM46.561,1.394 C43.224,1.394 40.509,4.101 40.509,7.428 C40.509,10.754 43.224,13.461 46.561,13.461 C49.899,13.461 52.614,10.754 52.614,7.428 C52.614,4.101 49.899,1.394 46.561,1.394 ZM51.787,12.714 C50.441,14.036 48.596,14.855 46.561,14.855 C44.526,14.855 42.681,14.036 41.335,12.714 C41.187,12.822 39.549,14.046 37.920,16.218 C35.816,19.021 34.680,22.063 34.537,25.271 L46.561,25.271 L58.585,25.271 C58.230,17.547 52.100,12.943 51.787,12.714 Z" class="cls-1"/>
</svg>
