<svg class="prnt-svg" xmlns="http://www.w3.org/2000/svg" xmlns:xlink="http://www.w3.org/1999/xlink" preserveAspectRatio="xMidYMid" width="46" height="46" viewBox="0 0 46 46">
  <defs>
    <style>
      .cls-1 { fill: #fff; fill-rule: evenodd;         transition: all .25s ease-out; transform-origin: 50% 50%; }

    </style>
  </defs>
  <path d="M38.808,46.000 L38.808,40.838 L46.000,40.838 L46.000,46.000 L38.808,46.000 ZM38.808,32.678 L46.000,32.678 L46.000,37.840 L38.808,37.840 L38.808,32.678 ZM38.808,24.519 L46.000,24.519 L46.000,29.681 L38.808,29.681 L38.808,24.519 ZM29.107,40.838 L36.299,40.838 L36.299,46.000 L29.107,46.000 L29.107,40.838 ZM29.107,32.678 L36.299,32.678 L36.299,37.840 L29.107,37.840 L29.107,32.678 ZM29.107,24.519 L36.299,24.519 L36.299,29.681 L29.107,29.681 L29.107,24.519 ZM29.107,16.359 L36.299,16.359 L36.299,21.522 L29.107,21.522 L29.107,16.359 ZM29.107,8.200 L36.299,8.200 L36.299,13.362 L29.107,13.362 L29.107,8.200 ZM19.404,40.838 L26.596,40.838 L26.596,46.000 L19.404,46.000 L19.404,40.838 ZM19.404,32.678 L26.596,32.678 L26.596,37.840 L19.404,37.840 L19.404,32.678 ZM19.404,24.519 L26.596,24.519 L26.596,29.681 L19.404,29.681 L19.404,24.519 ZM19.404,16.359 L26.596,16.359 L26.596,21.522 L19.404,21.522 L19.404,16.359 ZM19.404,8.200 L26.596,8.200 L26.596,13.362 L19.404,13.362 L19.404,8.200 ZM19.404,-0.000 L26.596,-0.000 L26.596,5.162 L19.404,5.162 L19.404,-0.000 ZM9.701,40.838 L16.894,40.838 L16.894,46.000 L9.701,46.000 L9.701,40.838 ZM9.701,32.678 L16.894,32.678 L16.894,37.840 L9.701,37.840 L9.701,32.678 ZM9.701,24.519 L16.894,24.519 L16.894,29.681 L9.701,29.681 L9.701,24.519 ZM0.000,40.838 L7.192,40.838 L7.192,46.000 L0.000,46.000 L0.000,40.838 ZM0.000,32.678 L7.192,32.678 L7.192,37.840 L0.000,37.840 L0.000,32.678 Z" class="cls-1"/>
</svg>
