<svg class="prnt-svg" xmlns="http://www.w3.org/2000/svg" xmlns:xlink="http://www.w3.org/1999/xlink" preserveAspectRatio="xMidYMid" width="53.906" height="53" viewBox="0 0 53.906 53">
  <defs>
    <style>
      .cls-1 { fill: #fff; fill-rule: evenodd;         transition: all .25s ease-out; transform-origin: 50% 50%; }

    </style>
  </defs>
  <path d="M40.915,21.239 C42.879,21.123 44.377,19.451 44.260,17.504 C44.143,15.557 42.457,14.073 40.493,14.189 C38.529,14.304 37.031,15.976 37.148,17.923 C37.264,19.870 38.951,21.354 40.915,21.239 ZM40.583,15.699 C41.704,15.633 42.670,16.483 42.736,17.594 C42.803,18.704 41.945,19.662 40.825,19.728 C39.704,19.794 38.738,18.944 38.672,17.833 C38.605,16.723 39.463,15.765 40.583,15.699 ZM52.198,20.732 L52.199,20.733 L51.308,21.181 L51.303,21.183 L45.531,24.083 L46.030,33.472 C46.044,33.726 46.028,33.979 45.983,34.230 L44.845,40.592 L50.696,49.900 L47.061,52.216 L40.636,41.997 L40.661,41.976 L40.613,41.967 L41.598,36.563 L40.711,36.615 L38.210,42.884 L36.939,53.000 L33.046,52.520 L34.376,41.939 L34.370,41.937 L37.245,34.731 L36.659,24.960 L30.988,22.378 L26.892,25.792 L26.888,25.788 C26.559,26.083 26.100,26.238 25.601,26.134 C25.019,26.013 24.555,25.522 24.467,24.939 C24.384,24.385 24.621,23.888 25.016,23.582 L25.013,23.578 L30.536,18.988 L37.451,22.137 L43.710,21.755 L50.006,18.593 L47.485,13.563 L47.486,13.563 C47.304,13.217 47.242,12.799 47.429,12.344 C47.598,11.931 47.962,11.605 48.397,11.495 C49.137,11.310 49.809,11.685 50.093,12.278 L50.099,12.275 L53.906,19.870 L52.198,20.732 ZM14.997,21.529 C16.965,21.523 18.556,19.938 18.550,17.987 C18.545,16.037 16.945,14.460 14.978,14.465 C13.010,14.471 11.419,16.056 11.425,18.007 C11.430,19.957 13.030,21.534 14.997,21.529 ZM14.981,15.979 C16.104,15.976 17.020,16.879 17.023,17.991 C17.026,19.104 16.115,20.012 14.993,20.015 C13.870,20.018 12.954,19.115 12.951,18.003 C12.948,16.890 13.859,15.982 14.981,15.979 ZM17.648,39.799 L24.449,50.640 L20.814,52.957 L14.403,42.736 L12.750,36.810 L5.918,43.727 L5.037,53.000 L1.131,52.636 L2.140,42.002 L2.145,42.002 L2.137,41.995 L8.576,35.478 L8.576,23.387 L0.284,11.637 L0.288,11.634 C0.021,11.284 -0.094,10.817 0.054,10.333 C0.228,9.769 0.762,9.355 1.356,9.319 C1.919,9.286 2.398,9.564 2.671,9.981 L2.675,9.979 L11.256,22.154 L13.978,22.154 L13.991,22.168 C14.961,22.257 15.794,22.804 16.274,23.588 L16.276,23.587 L22.587,31.883 L22.585,31.885 L23.281,38.105 L23.274,38.106 C23.359,38.755 22.999,39.429 22.281,39.671 C21.856,39.815 21.372,39.736 21.004,39.482 C20.594,39.200 20.417,38.814 20.381,38.423 L20.380,38.423 L19.772,32.987 L16.715,28.968 L16.715,36.136 C16.715,36.374 16.747,36.610 16.812,36.839 L17.648,39.799 ZM20.230,8.999 C20.230,12.047 22.731,14.526 25.806,14.526 C28.881,14.526 31.383,12.046 31.383,8.999 C31.383,6.121 29.152,3.752 26.315,3.497 L26.315,0.505 C26.315,0.226 26.087,-0.000 25.806,-0.000 C25.525,-0.000 25.297,0.226 25.297,0.505 L25.297,3.497 C22.460,3.752 20.230,6.121 20.230,8.999 ZM21.710,7.028 L22.910,7.028 C22.814,7.489 22.749,7.980 22.724,8.494 L21.278,8.494 C21.337,7.973 21.488,7.480 21.710,7.028 ZM21.710,10.969 C21.488,10.517 21.337,10.024 21.278,9.503 L22.724,9.503 C22.749,10.018 22.814,10.508 22.910,10.969 L21.710,10.969 L21.710,10.969 ZM22.389,11.978 L23.188,11.978 C23.316,12.341 23.466,12.675 23.637,12.971 C23.163,12.716 22.742,12.377 22.389,11.978 ZM25.297,13.355 C24.919,13.123 24.555,12.646 24.272,11.978 L25.297,11.978 L25.297,13.355 ZM26.315,13.355 L26.315,11.978 L27.341,11.978 C27.058,12.646 26.694,13.123 26.315,13.355 ZM27.664,10.969 L26.315,10.969 L26.315,9.503 L27.871,9.503 C27.843,10.033 27.769,10.524 27.664,10.969 ZM29.903,10.969 L28.703,10.969 C28.799,10.508 28.864,10.018 28.889,9.503 L30.335,9.503 C30.276,10.024 30.125,10.517 29.903,10.969 ZM29.903,7.028 C30.125,7.480 30.276,7.973 30.335,8.494 L28.889,8.494 C28.864,7.980 28.799,7.489 28.703,7.028 L29.903,7.028 L29.903,7.028 ZM29.225,6.019 L28.426,6.019 C28.298,5.656 28.148,5.322 27.977,5.026 C28.451,5.281 28.871,5.621 29.225,6.019 ZM28.425,11.978 L29.224,11.978 C28.871,12.377 28.450,12.716 27.977,12.971 C28.148,12.674 28.298,12.341 28.425,11.978 ZM27.871,8.494 L26.315,8.494 L26.315,7.028 L27.664,7.028 C27.769,7.474 27.843,7.964 27.871,8.494 ZM27.341,6.019 L26.315,6.019 L26.315,4.642 C26.694,4.874 27.058,5.352 27.341,6.019 ZM25.297,4.642 L25.297,6.019 L24.272,6.019 C24.555,5.352 24.919,4.874 25.297,4.642 ZM23.950,7.028 L25.298,7.028 L25.298,8.494 L23.743,8.494 C23.770,7.964 23.844,7.474 23.950,7.028 ZM25.297,9.503 L25.297,10.969 L23.949,10.969 C23.844,10.524 23.770,10.033 23.742,9.503 L25.297,9.503 ZM23.637,5.026 C23.466,5.323 23.317,5.656 23.188,6.019 L22.389,6.019 C22.742,5.621 23.163,5.281 23.637,5.026 ZM25.806,15.306 C26.088,15.306 26.315,15.532 26.315,15.811 L26.315,17.493 C26.315,17.771 26.088,17.997 25.806,17.997 C25.525,17.997 25.297,17.771 25.297,17.493 L25.297,15.811 C25.297,15.532 25.525,15.306 25.806,15.306 ZM16.728,8.999 C16.728,8.720 16.956,8.494 17.237,8.494 L18.934,8.494 C19.215,8.494 19.443,8.720 19.443,8.999 C19.443,9.277 19.215,9.503 18.934,9.503 L17.237,9.503 C16.956,9.503 16.728,9.277 16.728,8.999 ZM32.680,8.494 L34.376,8.494 C34.657,8.494 34.885,8.720 34.885,8.999 C34.885,9.277 34.657,9.503 34.376,9.503 L32.680,9.503 C32.398,9.503 32.170,9.277 32.170,8.999 C32.170,8.720 32.398,8.494 32.680,8.494 ZM19.388,3.349 C19.189,3.152 19.189,2.832 19.388,2.636 C19.587,2.438 19.909,2.438 20.107,2.636 L21.307,3.825 C21.506,4.022 21.506,4.341 21.307,4.538 C21.207,4.637 21.077,4.686 20.947,4.686 C20.817,4.686 20.687,4.637 20.588,4.538 L19.388,3.349 ZM32.226,14.648 C32.425,14.845 32.425,15.164 32.226,15.361 C32.127,15.460 31.997,15.509 31.867,15.509 C31.736,15.509 31.606,15.460 31.507,15.361 L30.307,14.172 C30.108,13.975 30.108,13.656 30.307,13.459 C30.506,13.261 30.828,13.261 31.027,13.459 L32.226,14.648 ZM21.307,13.459 C21.506,13.656 21.506,13.975 21.307,14.172 L20.107,15.361 C20.008,15.460 19.878,15.509 19.748,15.509 C19.617,15.509 19.487,15.460 19.388,15.361 C19.189,15.164 19.189,14.845 19.388,14.648 L20.588,13.459 C20.786,13.262 21.109,13.262 21.307,13.459 ZM30.307,4.538 C30.108,4.341 30.108,4.022 30.307,3.825 L31.506,2.636 C31.705,2.438 32.027,2.438 32.226,2.636 C32.424,2.833 32.425,3.152 32.226,3.349 L31.026,4.538 C30.926,4.637 30.796,4.686 30.666,4.686 C30.536,4.686 30.406,4.637 30.307,4.538 Z" class="cls-1"/>
</svg>
