<svg class="prnt-svg" xmlns="http://www.w3.org/2000/svg" xmlns:xlink="http://www.w3.org/1999/xlink" preserveAspectRatio="xMidYMid" width="66" height="45" viewBox="0 0 66 45">
  <defs>
    <style>
      .cls-1 { fill: #fff; fill-rule: evenodd;         transition: all .25s ease-out; transform-origin: 50% 50%; }

    </style>
  </defs>
  <path d="M64.792,45.000 C59.719,45.000 54.934,43.328 50.955,40.166 C47.556,37.466 44.988,33.798 43.602,29.705 C42.214,33.798 39.645,37.466 36.245,40.166 C32.263,43.328 27.475,45.000 22.399,45.000 C10.048,45.000 -0.000,34.907 -0.000,22.500 C-0.000,10.093 10.048,-0.000 22.398,-0.000 C34.232,-0.000 43.998,9.242 44.736,21.085 L44.769,21.211 C47.025,29.898 55.445,36.202 64.790,36.202 L66.000,36.202 L66.000,45.000 L64.792,45.000 ZM64.979,37.228 L64.792,37.228 C55.163,37.228 46.469,30.836 43.914,21.958 L43.762,21.995 L43.730,21.376 C43.137,9.965 33.767,1.026 22.398,1.026 C10.611,1.026 1.021,10.659 1.021,22.500 C1.021,34.341 10.611,43.974 22.399,43.974 C27.243,43.974 31.812,42.379 35.612,39.361 C39.294,36.436 41.956,32.323 43.107,27.778 L43.603,25.822 L44.097,27.778 C45.247,32.323 47.907,36.437 51.588,39.362 C55.386,42.379 59.951,43.974 64.792,43.974 L64.979,43.974 L64.979,37.228 ZM44.599,26.027 C48.254,33.039 55.796,37.848 64.095,38.103 L64.095,43.076 C54.304,42.747 46.232,35.482 44.599,26.027 ZM52.469,35.183 C52.469,35.183 50.851,34.111 49.481,32.976 C49.481,32.977 49.481,32.978 49.481,32.979 C50.851,34.113 52.464,35.181 52.469,35.184 L52.469,35.183 ZM62.896,42.353 C62.214,42.328 60.574,42.199 58.447,41.559 L58.447,41.560 C60.573,42.199 62.213,42.328 62.896,42.353 ZM63.044,42.358 C63.017,42.358 63.002,42.358 62.970,42.357 C63.002,42.358 63.017,42.358 63.044,42.358 ZM63.176,38.864 C63.158,38.864 63.109,38.863 63.034,38.860 C63.109,38.863 63.158,38.864 63.176,38.864 ZM53.514,35.702 C54.849,36.591 56.070,37.057 57.199,37.436 L57.199,41.058 C57.199,41.058 57.199,41.058 57.200,41.058 L57.200,37.433 C56.070,37.057 54.851,36.589 53.514,35.700 L53.514,35.702 ZM37.116,26.927 C34.700,26.927 32.736,24.953 32.736,22.526 C32.736,20.097 34.700,18.122 37.116,18.122 C39.534,18.122 41.500,20.097 41.500,22.526 C41.500,24.953 39.535,26.927 37.116,26.927 ZM32.776,16.608 C30.361,16.608 28.396,14.633 28.396,12.206 C28.396,9.778 30.361,7.803 32.776,7.803 C35.196,7.803 37.162,9.780 37.160,12.206 C37.160,14.632 35.195,16.608 32.776,16.608 ZM32.553,28.677 C34.972,28.677 36.938,30.651 36.936,33.078 C36.936,35.506 34.970,37.480 32.553,37.480 C30.137,37.480 28.170,35.507 28.170,33.078 C28.170,30.651 30.137,28.677 32.553,28.677 ZM22.404,41.872 C19.987,41.872 18.022,39.898 18.022,37.471 C18.022,35.044 19.987,33.067 22.404,33.067 C24.822,33.067 26.789,35.045 26.787,37.471 C26.787,39.898 24.821,41.872 22.404,41.872 ZM22.405,19.365 C24.245,19.365 25.743,20.868 25.743,22.718 C25.743,24.567 24.246,26.071 22.405,26.071 C20.564,26.071 19.066,24.567 19.065,22.718 C19.065,20.868 20.564,19.365 22.405,19.365 ZM20.505,23.137 C20.476,23.002 20.458,22.863 20.458,22.719 C20.458,22.348 20.567,22.006 20.745,21.710 C20.566,22.005 20.458,22.348 20.457,22.717 C20.457,22.862 20.476,23.002 20.505,23.137 ZM22.404,12.433 C19.987,12.433 18.022,10.458 18.022,8.031 C18.022,5.604 19.987,3.628 22.404,3.628 C24.822,3.628 26.789,5.604 26.787,8.031 C26.787,10.457 24.821,12.433 22.404,12.433 ZM11.994,16.381 C9.579,16.381 7.612,14.407 7.612,11.979 C7.612,9.553 9.579,7.578 11.994,7.578 C14.414,7.578 16.381,9.552 16.379,11.979 C16.379,14.405 14.413,16.381 11.994,16.381 ZM11.907,22.526 C11.907,24.953 9.941,26.929 7.523,26.927 C5.108,26.927 3.142,24.953 3.142,22.526 C3.142,20.099 5.108,18.122 7.523,18.122 C9.941,18.122 11.907,20.097 11.907,22.526 ZM11.769,28.450 C14.188,28.450 16.155,30.426 16.153,32.854 C16.153,35.280 14.188,37.255 11.769,37.255 C9.354,37.255 7.389,35.281 7.389,32.854 C7.389,30.426 9.354,28.450 11.769,28.450 Z" class="cls-1"/>
</svg>
