<svg class="prnt-svg" xmlns="http://www.w3.org/2000/svg" xmlns:xlink="http://www.w3.org/1999/xlink" preserveAspectRatio="xMidYMid" width="61.187" height="42.69" viewBox="0 0 61.187 42.69">
  <defs>
    <style>
      .cls-1 { fill: #fff; fill-rule: evenodd;         transition: all .25s ease-out; transform-origin: 50% 50%; }

    </style>
  </defs>
  <path d="M32.843,0.013 C31.001,0.142 29.157,0.856 27.466,1.936 L16.862,8.613 C16.493,8.851 16.211,9.218 16.103,9.629 L13.370,18.726 L9.098,16.047 C9.727,15.593 10.247,15.009 10.659,14.296 C12.243,11.573 11.310,8.072 8.578,6.496 C5.845,4.940 2.332,5.869 0.749,8.571 C-0.813,11.293 0.120,14.794 2.830,16.371 L10.615,21.341 L2.831,26.332 C0.120,27.910 -0.812,31.410 0.749,34.133 C2.333,36.834 5.845,37.763 8.578,36.207 C11.311,34.629 12.243,31.129 10.660,28.406 C10.248,27.693 9.706,27.110 9.056,26.657 L13.371,23.956 L16.104,33.052 C16.212,33.463 16.494,33.831 16.862,34.068 L27.466,40.745 C29.744,42.192 32.237,42.970 34.688,42.603 C37.138,42.235 39.394,40.636 40.781,38.022 C41.194,37.222 40.912,36.120 40.153,35.624 L17.490,21.340 L40.152,7.057 C40.911,6.560 41.193,5.458 40.780,4.658 C39.393,2.044 37.138,0.445 34.687,0.099 C34.080,0.013 33.473,-0.030 32.843,0.013 L32.843,0.013 ZM33.646,3.687 C33.820,3.687 33.993,3.687 34.144,3.708 C35.012,3.838 35.771,4.314 36.464,5.026 L17.750,16.846 L19.420,11.315 L29.417,5.026 C30.936,4.075 32.410,3.643 33.646,3.687 L33.646,3.687 ZM5.563,9.370 C5.954,9.348 6.366,9.434 6.735,9.650 C7.754,10.212 8.079,11.465 7.515,12.459 C6.930,13.453 5.672,13.799 4.674,13.216 C3.677,12.654 3.330,11.401 3.916,10.406 C4.284,9.780 4.891,9.413 5.563,9.370 L5.563,9.370 ZM27.704,19.504 C26.729,19.504 25.839,20.368 25.839,21.340 C25.839,22.313 26.728,23.178 27.704,23.178 L32.323,23.178 C33.298,23.178 34.188,22.313 34.188,21.340 C34.188,20.368 33.299,19.504 32.323,19.504 L27.704,19.504 ZM41.215,19.504 C40.240,19.504 39.350,20.368 39.350,21.340 C39.350,22.313 40.239,23.178 41.215,23.178 L45.833,23.178 C46.788,23.178 47.677,22.313 47.677,21.340 C47.677,20.368 46.788,19.504 45.833,19.504 L41.215,19.504 ZM54.725,19.504 C53.749,19.504 52.859,20.368 52.859,21.340 C52.859,22.313 53.748,23.178 54.725,23.178 L59.322,23.178 C60.297,23.178 61.187,22.313 61.187,21.340 C61.187,20.368 60.298,19.504 59.322,19.504 L54.725,19.504 ZM17.750,25.858 L36.465,37.655 C35.772,38.369 35.034,38.866 34.145,38.974 C32.822,39.168 31.153,38.758 29.418,37.677 L19.421,31.346 L17.750,25.858 ZM5.455,29.206 C6.257,29.098 7.081,29.487 7.515,30.244 C8.079,31.237 7.754,32.469 6.735,33.052 C5.737,33.636 4.501,33.291 3.916,32.296 C3.330,31.303 3.677,30.049 4.674,29.465 C4.934,29.336 5.195,29.249 5.455,29.206 L5.455,29.206 Z" class="cls-1"/>
</svg>
