<svg class="prnt-svg" xmlns="http://www.w3.org/2000/svg" xmlns:xlink="http://www.w3.org/1999/xlink" preserveAspectRatio="xMidYMid" width="56" height="56" viewBox="0 0 56 56">
  <defs>
    <style>
      .cls-1 { fill: #fff; fill-rule: evenodd;         transition: all .25s ease-out; transform-origin: 50% 50%; }

    </style>
  </defs>
  <path d="M49.806,9.943 L38.714,21.034 C38.853,28.541 33.066,46.594 27.983,51.677 C21.662,57.997 12.362,57.224 5.569,50.431 C-1.224,43.638 -1.997,34.338 4.324,28.017 C9.409,22.931 27.480,17.141 34.978,17.286 L34.978,17.286 L46.038,6.226 L49.774,0.000 L55.377,0.623 L56.000,6.226 L49.806,9.943 ZM33.337,18.928 C26.114,19.597 9.976,24.855 5.569,29.262 C0.569,34.262 0.593,41.355 5.067,47.197 L5.067,47.197 L7.191,45.073 C7.327,44.938 7.544,44.936 7.682,45.073 L10.927,48.318 C11.063,48.454 11.064,48.671 10.927,48.809 L8.803,50.933 C14.645,55.407 21.738,55.431 26.737,50.431 C31.142,46.027 36.396,29.907 37.071,22.677 L34.511,25.237 C34.170,25.579 33.476,25.451 32.969,24.944 L31.062,23.038 C30.547,22.522 30.424,21.840 30.769,21.495 L33.337,18.928 L33.337,18.928 ZM10.165,32.613 L23.387,45.835 C23.518,45.967 23.510,46.188 23.384,46.313 L22.619,47.078 C22.487,47.211 22.261,47.200 22.141,47.081 L8.919,33.859 C8.788,33.727 8.797,33.506 8.922,33.381 L9.687,32.616 C9.820,32.483 10.045,32.494 10.165,32.613 ZM21.757,34.243 C24.164,36.650 27.509,37.208 29.228,35.489 C30.947,33.769 30.390,30.424 27.983,28.017 C25.576,25.610 22.231,25.053 20.511,26.772 C18.792,28.491 19.350,31.836 21.757,34.243 Z" class="cls-1"/>
</svg>
