<svg class="prnt-svg" xmlns="http://www.w3.org/2000/svg" xmlns:xlink="http://www.w3.org/1999/xlink" preserveAspectRatio="xMidYMid" width="31" height="45.94" viewBox="0 0 31 45.94">
  <defs>
    <style>
      .cls-1 { fill: #fff; fill-rule: evenodd;         transition: all .25s ease-out; transform-origin: 50% 50%; }

    </style>
  </defs>
  <path d="M30.322,45.815 C30.137,45.877 29.952,45.938 29.767,45.938 C29.521,45.938 29.274,45.815 29.089,45.691 L15.716,36.306 L1.911,45.691 C1.541,45.938 1.048,46.000 0.678,45.815 C0.246,45.568 -0.000,45.136 -0.000,44.703 L-0.000,1.235 C-0.000,0.556 0.555,-0.000 1.233,-0.000 L29.767,-0.000 C30.445,-0.000 31.000,0.556 31.000,1.235 L31.000,44.703 C31.000,45.197 30.753,45.630 30.322,45.815 ZM28.596,2.470 L2.465,2.470 L2.465,42.357 L15.038,33.774 C15.469,33.466 16.024,33.466 16.455,33.774 L28.596,42.295 L28.596,2.470 ZM11.093,27.785 C11.093,27.847 11.032,27.847 11.032,27.847 C11.032,27.909 10.970,27.909 10.970,27.909 C10.909,27.909 10.909,27.970 10.847,27.970 L10.785,27.970 C10.724,28.032 10.724,28.032 10.662,28.032 C10.600,28.032 10.600,28.032 10.662,28.156 C10.600,28.156 10.539,28.156 10.477,28.156 C10.354,28.156 10.292,28.156 10.231,28.156 C10.169,28.156 10.169,28.156 10.107,28.156 C10.046,28.156 9.984,28.094 9.922,28.094 L9.861,28.032 C9.861,27.970 9.799,27.970 9.738,27.909 L9.676,27.847 C9.614,27.785 9.553,27.723 9.491,27.662 C9.429,27.600 9.368,27.538 9.368,27.476 L9.368,27.415 C9.368,27.291 9.306,27.229 9.306,27.168 C9.306,27.106 9.306,27.106 9.306,27.044 C9.306,26.982 9.306,26.982 9.306,26.921 L9.306,26.859 C9.306,26.797 9.306,26.735 9.306,26.674 L10.354,21.117 L6.471,17.536 C6.410,17.536 6.410,17.474 6.410,17.474 C6.348,17.412 6.348,17.412 6.286,17.350 L6.225,17.289 C6.225,17.227 6.163,17.227 6.163,17.165 C6.101,17.103 6.101,17.103 6.101,17.042 C6.040,16.980 6.040,16.980 6.040,16.918 C6.040,16.856 6.040,16.856 6.040,16.795 L6.040,16.733 L6.040,16.671 C6.040,16.609 6.040,16.609 6.040,16.548 C6.040,16.486 6.040,16.486 6.040,16.424 C6.040,16.362 6.040,16.362 6.040,16.301 C6.040,16.239 6.040,16.239 6.040,16.177 C6.040,16.115 6.101,16.115 6.101,16.054 C6.101,15.992 6.163,15.992 6.163,15.930 C6.163,15.868 6.225,15.868 6.225,15.807 C6.225,15.745 6.286,15.745 6.286,15.683 C6.348,15.621 6.348,15.621 6.348,15.621 C6.348,15.560 6.410,15.560 6.410,15.560 C6.471,15.560 6.471,15.498 6.533,15.498 C6.533,15.498 6.533,15.436 6.594,15.436 C6.656,15.436 6.656,15.375 6.718,15.375 C6.779,15.313 6.779,15.313 6.841,15.313 C6.903,15.251 6.903,15.251 6.964,15.251 C7.026,15.251 7.026,15.251 7.087,15.251 L7.149,15.251 L12.141,14.634 L14.545,9.817 C14.545,9.756 14.606,9.756 14.606,9.694 L14.668,9.632 L14.730,9.570 C14.730,9.570 14.730,9.509 14.791,9.509 L14.853,9.447 C14.915,9.447 14.915,9.385 14.976,9.385 L15.038,9.385 C15.099,9.385 15.099,9.323 15.161,9.323 C15.223,9.323 15.223,9.323 15.284,9.323 C15.346,9.323 15.346,9.323 15.408,9.323 C15.469,9.323 15.469,9.323 15.531,9.323 C15.592,9.323 15.592,9.323 15.654,9.323 C15.716,9.323 15.716,9.323 15.777,9.323 C15.839,9.323 15.839,9.323 15.901,9.323 C15.962,9.323 15.962,9.385 16.024,9.385 L16.086,9.385 C16.147,9.385 16.209,9.385 16.147,9.323 L16.209,9.385 L16.270,9.447 C16.270,9.447 16.332,9.447 16.332,9.509 L16.394,9.570 C16.394,9.632 16.455,9.632 16.455,9.694 L18.859,14.510 L23.851,15.128 L23.912,15.128 C23.974,15.128 23.974,15.128 24.036,15.128 C24.097,15.189 24.097,15.189 24.159,15.189 C24.221,15.189 24.221,15.251 24.282,15.251 C24.344,15.251 24.344,15.313 24.406,15.313 C24.467,15.313 24.529,15.375 24.529,15.375 C24.590,15.375 24.590,15.436 24.652,15.436 C24.652,15.498 24.714,15.498 24.714,15.498 C24.714,15.560 24.714,15.560 24.714,15.560 C24.714,15.621 24.775,15.621 24.775,15.683 C24.775,15.745 24.837,15.745 24.837,15.807 C24.837,15.868 24.899,15.868 24.899,15.930 C24.960,15.992 24.960,15.992 24.960,16.054 C24.960,16.115 24.960,16.115 24.960,16.177 C24.960,16.239 24.960,16.239 24.960,16.301 C24.960,16.362 24.960,16.362 24.960,16.424 C24.960,16.486 24.960,16.486 24.960,16.548 L24.960,16.609 L24.960,16.671 C24.960,16.733 24.960,16.733 24.960,16.795 C24.899,16.856 24.899,16.856 24.899,16.918 C24.837,16.980 24.837,16.980 24.837,17.042 C24.837,17.103 24.775,17.103 24.775,17.165 L24.714,17.227 C24.652,17.289 24.652,17.289 24.590,17.350 C24.529,17.350 24.529,17.412 24.529,17.412 L20.646,20.993 L21.694,26.550 C21.694,26.612 21.694,26.674 21.694,26.736 L21.694,26.797 C21.694,26.859 21.694,26.859 21.694,26.921 C21.694,26.982 21.694,26.982 21.694,27.044 C21.694,27.106 21.694,27.106 21.694,27.106 C21.694,27.168 21.632,27.229 21.632,27.291 L21.632,27.353 C21.632,27.415 21.632,27.476 21.571,27.538 C21.571,27.600 21.509,27.662 21.447,27.723 L21.386,27.785 C21.386,27.847 21.324,27.909 21.262,27.909 C21.262,27.970 21.201,27.970 21.201,27.970 C21.139,27.970 21.078,28.032 21.016,28.032 C20.954,28.032 20.954,28.032 20.893,28.032 C20.769,28.032 20.708,28.032 20.646,28.032 C20.584,28.032 20.523,28.032 20.461,28.032 L20.400,28.032 C20.338,27.970 20.338,27.970 20.276,27.970 L20.215,27.970 C20.153,27.970 20.153,27.909 20.091,27.909 C20.091,27.847 20.030,27.847 20.030,27.847 C20.030,27.785 19.968,27.785 19.968,27.785 L15.531,24.636 L11.093,27.785 ZM15.716,22.043 C15.777,22.105 15.777,22.105 15.839,22.105 C15.901,22.167 15.901,22.167 15.962,22.167 C16.024,22.167 16.024,22.228 16.086,22.228 C16.147,22.228 16.147,22.290 16.209,22.290 L18.859,24.142 L18.243,20.870 C18.243,20.870 18.243,20.808 18.243,20.746 C18.243,20.685 18.243,20.685 18.243,20.623 C18.243,20.561 18.243,20.561 18.243,20.499 C18.243,20.438 18.243,20.438 18.243,20.376 C18.304,20.314 18.304,20.314 18.304,20.252 C18.366,20.191 18.366,20.191 18.366,20.129 C18.366,20.067 18.427,20.067 18.427,20.005 C18.427,19.944 18.489,19.944 18.489,19.882 L18.551,19.820 C18.612,19.758 18.612,19.758 18.674,19.697 L21.078,17.412 L18.058,17.042 C17.996,17.042 17.996,17.042 17.934,17.042 L17.873,17.042 C17.811,16.980 17.688,16.980 17.626,16.918 C17.565,16.918 17.565,16.918 17.565,16.918 C17.503,16.856 17.441,16.795 17.380,16.733 L17.318,16.671 C17.257,16.609 17.195,16.548 17.133,16.424 L15.531,13.213 L13.928,16.424 C13.867,16.486 13.805,16.609 13.744,16.671 L13.682,16.733 C13.620,16.795 13.559,16.856 13.497,16.918 C13.435,16.918 13.435,16.918 13.435,16.918 C13.374,16.980 13.312,17.042 13.189,17.042 L13.127,17.042 C13.066,17.042 13.066,17.042 13.004,17.042 L9.984,17.412 L12.326,19.573 C12.388,19.635 12.449,19.635 12.449,19.697 L12.511,19.758 C12.511,19.820 12.573,19.820 12.573,19.882 C12.573,19.944 12.634,19.944 12.634,20.005 C12.696,20.067 12.696,20.067 12.696,20.129 C12.757,20.191 12.757,20.191 12.757,20.252 C12.757,20.314 12.757,20.314 12.757,20.376 C12.757,20.438 12.757,20.438 12.757,20.499 C12.757,20.561 12.757,20.561 12.757,20.623 C12.757,20.685 12.757,20.746 12.757,20.808 L12.080,24.081 L14.730,22.228 C14.791,22.228 14.791,22.167 14.853,22.167 C14.915,22.167 14.915,22.105 14.976,22.105 C15.038,22.043 15.038,22.043 15.099,22.043 C15.161,22.043 15.161,22.043 15.223,22.043 C15.284,22.043 15.284,22.043 15.346,22.043 C15.408,22.043 15.408,22.043 15.469,22.043 C15.531,22.043 15.531,22.043 15.592,22.043 C15.654,22.043 15.654,22.043 15.716,22.043 Z" class="cls-1"/>
</svg>
