<svg class="prnt-svg" xmlns="http://www.w3.org/2000/svg" xmlns:xlink="http://www.w3.org/1999/xlink" preserveAspectRatio="xMidYMid" width="52.969" height="40.19" viewBox="0 0 52.969 40.19">
  <defs>
    <style>
      .cls-1 { fill: #fff; fill-rule: evenodd;         transition: all .25s ease-out; transform-origin: 50% 50%; }

    </style>
  </defs>
  <path d="M37.328,40.181 L37.328,40.190 L26.279,40.190 L26.273,18.474 L8.092,18.474 C4.511,18.474 4.553,13.186 8.135,13.198 L29.720,13.227 L34.468,23.957 L39.216,13.227 L41.511,13.227 C46.140,13.227 49.070,17.169 49.070,21.190 L49.070,25.761 L52.968,25.761 L52.968,40.181 L37.328,40.181 ZM44.411,21.577 L42.947,21.577 L42.945,25.761 L44.411,25.761 L44.411,21.577 ZM44.411,27.234 L37.860,27.234 L37.860,32.991 L44.411,32.991 L44.411,27.234 ZM51.520,27.234 L49.070,27.234 L49.070,32.991 L51.520,32.991 L51.520,27.234 ZM51.520,34.463 L49.070,34.463 L49.070,34.751 C49.081,38.393 44.411,38.393 44.411,34.751 L44.411,34.463 L37.860,34.463 L37.860,38.709 L51.520,38.709 L51.520,34.463 ZM36.245,15.137 C36.245,16.145 35.441,16.962 34.450,16.962 C33.459,16.962 32.655,16.145 32.655,15.137 C32.655,14.129 33.459,13.312 34.450,13.312 C35.441,13.312 36.245,14.129 36.245,15.137 ZM31.084,11.195 L31.074,11.190 C28.358,9.759 27.189,6.413 28.472,3.508 C29.789,0.528 33.216,-0.810 36.117,0.531 C36.864,0.872 37.500,1.374 38.013,1.960 C38.226,2.229 39.333,3.584 40.446,4.023 C42.091,4.669 44.199,3.703 44.199,3.703 C44.199,3.703 43.263,6.821 41.277,8.869 C36.345,13.572 31.938,11.729 31.084,11.195 ZM11.257,19.949 L13.234,19.949 L13.244,20.112 L13.244,21.804 L19.514,21.804 C19.763,21.804 19.990,21.951 20.098,22.175 L20.128,22.239 L24.487,34.064 C24.525,34.177 24.532,34.257 24.527,34.350 C24.505,34.487 24.477,34.560 24.433,34.643 L24.367,34.725 C24.359,34.751 24.306,34.804 24.244,34.850 C24.196,34.915 22.375,37.061 19.514,37.061 C16.707,37.061 14.835,34.918 14.756,34.826 C14.717,34.799 14.666,34.747 14.623,34.689 C14.553,34.564 14.526,34.491 14.514,34.414 C14.493,34.259 14.501,34.177 14.524,34.103 L18.566,23.142 L13.244,23.142 L13.233,38.178 L16.726,38.178 L16.726,40.190 L7.685,40.190 L7.685,38.178 L11.258,38.178 L11.258,23.142 L5.937,23.142 L9.962,34.063 C10.001,34.191 10.007,34.278 9.996,34.362 C9.975,34.488 9.950,34.558 9.911,34.633 L9.876,34.694 C9.828,34.754 9.778,34.804 9.720,34.847 C9.666,34.916 7.793,37.061 4.988,37.061 C2.128,37.061 0.307,34.915 0.230,34.823 C0.200,34.809 0.149,34.758 0.100,34.695 L0.058,34.612 C0.027,34.568 -0.002,34.491 -0.013,34.412 C-0.031,34.261 -0.024,34.179 -0.000,34.103 L4.418,22.148 C4.530,21.939 4.748,21.804 4.988,21.804 L11.257,21.804 L11.257,19.949 ZM16.102,33.628 L22.927,33.628 L19.514,24.378 L16.102,33.628 ZM1.577,33.628 L8.400,33.628 L4.988,24.378 L1.577,33.628 Z" class="cls-1"/>
</svg>
