<svg class="prnt-svg" xmlns="http://www.w3.org/2000/svg" xmlns:xlink="http://www.w3.org/1999/xlink" preserveAspectRatio="xMidYMid" width="59" height="39" viewBox="0 0 59 39">
  <defs>
    <style>
      .cls-1 { fill: #fff; fill-rule: evenodd;         transition: all .25s ease-out; transform-origin: 50% 50%; }

    </style>
  </defs>
  <path d="M52.854,39.000 L46.708,39.000 L12.292,39.000 L6.146,39.000 C2.756,39.000 -0.000,36.268 -0.000,32.906 L-0.000,6.094 C-0.000,2.732 2.756,0.000 6.146,0.000 L52.854,0.000 C56.244,0.000 59.000,2.732 59.000,6.094 L59.000,32.906 C59.000,36.268 56.244,39.000 52.854,39.000 ZM44.488,36.562 L39.879,29.250 L19.118,29.250 L14.509,36.562 L44.488,36.562 ZM56.542,6.094 C56.542,4.078 54.887,2.438 52.854,2.438 L6.146,2.438 C4.113,2.438 2.458,4.078 2.458,6.094 L2.458,32.906 C2.458,34.922 4.113,36.562 6.146,36.562 L11.610,36.562 L17.395,27.385 C17.619,27.030 18.012,26.812 18.437,26.812 L40.562,26.812 C40.988,26.812 41.381,27.030 41.605,27.385 L47.390,36.562 L52.854,36.562 C54.887,36.562 56.542,34.922 56.542,32.906 L56.542,6.094 ZM52.854,34.125 C52.535,34.125 52.240,34.003 51.991,33.781 C51.745,33.537 51.625,33.223 51.625,32.906 C51.625,32.589 51.748,32.272 51.969,32.051 C52.485,31.566 53.272,31.590 53.715,32.051 C53.963,32.297 54.083,32.589 54.083,32.906 C54.083,33.223 53.960,33.516 53.737,33.759 C53.493,34.003 53.174,34.125 52.854,34.125 ZM46.708,24.375 C42.642,24.375 39.333,21.094 39.333,17.063 C39.333,13.031 42.642,9.750 46.708,9.750 C50.774,9.750 54.083,13.031 54.083,17.063 C54.083,21.094 50.774,24.375 46.708,24.375 ZM46.708,12.187 C43.997,12.187 41.792,14.374 41.792,17.063 C41.792,19.751 43.997,21.938 46.708,21.938 C49.420,21.938 51.625,19.751 51.625,17.063 C51.625,14.374 49.420,12.187 46.708,12.187 ZM52.854,7.312 C52.535,7.312 52.215,7.191 51.991,6.969 C51.745,6.725 51.625,6.411 51.625,6.094 C51.625,5.777 51.748,5.460 51.969,5.238 C52.485,4.753 53.272,4.777 53.715,5.214 C53.963,5.482 54.083,5.774 54.083,6.091 C54.083,6.408 53.960,6.701 53.737,6.945 C53.493,7.191 53.174,7.312 52.854,7.312 ZM35.646,21.938 L23.354,21.938 C22.676,21.938 22.125,21.391 22.125,20.719 L22.125,13.406 C22.125,12.734 22.676,12.187 23.354,12.187 L35.646,12.187 C36.324,12.187 36.875,12.734 36.875,13.406 L36.875,20.719 C36.875,21.391 36.324,21.938 35.646,21.938 ZM34.417,14.625 L24.583,14.625 L24.583,19.500 L34.417,19.500 L34.417,14.625 ZM12.292,24.375 C8.226,24.375 4.917,21.094 4.917,17.063 C4.917,13.031 8.226,9.750 12.292,9.750 C16.358,9.750 19.667,13.031 19.667,17.063 C19.667,21.094 16.358,24.375 12.292,24.375 ZM12.292,12.187 C9.580,12.187 7.375,14.374 7.375,17.063 C7.375,19.751 9.580,21.938 12.292,21.938 C15.003,21.938 17.208,19.751 17.208,17.063 C17.208,14.374 15.003,12.187 12.292,12.187 ZM6.146,7.312 C5.826,7.312 5.507,7.191 5.283,6.947 C5.037,6.727 4.917,6.411 4.917,6.094 C4.917,5.777 5.040,5.460 5.283,5.216 C5.701,4.802 6.539,4.777 7.004,5.216 C7.252,5.462 7.372,5.777 7.372,6.094 C7.372,6.411 7.250,6.703 7.026,6.947 C6.760,7.191 6.465,7.312 6.146,7.312 ZM7.006,32.026 C7.255,32.295 7.375,32.587 7.375,32.904 C7.375,33.221 7.252,33.537 7.028,33.757 C6.760,34.003 6.465,34.125 6.146,34.125 C5.826,34.125 5.507,34.003 5.261,33.759 C5.040,33.540 4.917,33.223 4.917,32.906 C4.917,32.589 5.040,32.272 5.261,32.051 C5.703,31.590 6.542,31.590 7.006,32.026 Z" class="cls-1"/>
</svg>
