<svg class="prnt-svg" xmlns="http://www.w3.org/2000/svg" xmlns:xlink="http://www.w3.org/1999/xlink" preserveAspectRatio="xMidYMid" width="67" height="59" viewBox="0 0 67 59">
  <defs>
    <style>
      .cls-1 { fill: #fff; fill-rule: evenodd;         transition: all .25s ease-out; transform-origin: 50% 50%; }

    </style>
  </defs>
  <path d="M62.592,9.859 C63.006,10.582 63.245,11.418 63.245,12.308 C63.245,15.029 61.030,17.252 58.318,17.252 C58.041,17.252 57.769,17.227 57.504,17.182 C57.601,17.568 57.653,17.972 57.653,18.387 C57.653,21.108 55.438,23.330 52.727,23.330 C51.906,23.330 51.132,23.126 50.450,22.767 C50.288,25.343 48.141,27.397 45.535,27.397 C44.356,27.397 43.272,26.977 42.422,26.279 C41.860,28.388 39.936,29.953 37.662,29.953 C35.913,29.953 34.371,29.027 33.497,27.640 C32.614,28.980 31.099,29.869 29.385,29.869 C27.130,29.869 25.220,28.331 24.640,26.248 C23.785,26.965 22.686,27.397 21.491,27.397 C18.888,27.397 16.745,25.350 16.576,22.779 C15.900,23.130 15.135,23.330 14.325,23.330 C11.613,23.330 9.398,21.108 9.398,18.387 C9.398,17.972 9.450,17.568 9.547,17.182 C9.282,17.227 9.010,17.252 8.732,17.252 C6.021,17.252 3.806,15.029 3.806,12.308 C3.806,11.420 4.043,10.585 4.456,9.863 C1.963,9.623 0.000,7.505 0.000,4.943 C0.000,2.223 2.215,0.000 4.927,0.000 C7.638,0.000 9.853,2.223 9.853,4.943 C9.853,5.832 9.616,6.666 9.203,7.389 C11.695,7.628 13.659,9.747 13.659,12.308 C13.659,12.724 13.607,13.127 13.509,13.513 C13.775,13.468 14.047,13.444 14.325,13.444 C16.927,13.444 19.071,15.491 19.239,18.061 C19.915,17.710 20.680,17.510 21.491,17.510 C23.746,17.510 25.656,19.048 26.236,21.131 C27.091,20.414 28.190,19.982 29.385,19.982 C31.134,19.982 32.676,20.908 33.551,22.294 C34.434,20.954 35.948,20.066 37.662,20.066 C38.840,20.066 39.925,20.486 40.774,21.184 C41.336,19.074 43.260,17.510 45.535,17.510 C46.355,17.510 47.129,17.715 47.811,18.074 C47.973,15.498 50.120,13.444 52.727,13.444 C53.004,13.444 53.276,13.469 53.541,13.513 C53.444,13.127 53.392,12.724 53.392,12.308 C53.392,9.763 55.330,7.654 57.800,7.393 C57.386,6.669 57.147,5.834 57.147,4.943 C57.147,2.223 59.362,0.000 62.074,0.000 C64.785,0.000 67.000,2.223 67.000,4.943 C67.000,7.488 65.062,9.597 62.592,9.859 ZM4.927,1.582 C3.067,1.582 1.577,3.077 1.577,4.943 C1.577,6.809 3.067,8.305 4.927,8.305 C5.436,8.305 5.916,8.188 6.347,7.987 C6.435,7.938 6.523,7.891 6.614,7.848 C7.610,7.267 8.277,6.189 8.277,4.943 C8.277,3.077 6.786,1.582 4.927,1.582 ZM8.732,8.947 C8.223,8.947 7.743,9.063 7.312,9.264 C7.224,9.313 7.136,9.360 7.045,9.403 C6.049,9.984 5.382,11.062 5.382,12.308 C5.382,14.174 6.873,15.670 8.732,15.670 C9.496,15.670 10.195,15.414 10.756,14.988 C10.907,14.829 11.067,14.679 11.237,14.541 C11.762,13.949 12.082,13.169 12.082,12.308 C12.082,10.442 10.592,8.947 8.732,8.947 ZM14.325,15.026 C13.561,15.026 12.862,15.280 12.301,15.707 C12.150,15.866 11.990,16.015 11.819,16.153 C11.295,16.746 10.975,17.526 10.975,18.387 C10.975,20.253 12.465,21.748 14.325,21.748 C15.435,21.748 16.412,21.212 17.020,20.385 C17.135,20.137 17.268,19.899 17.421,19.675 C17.584,19.279 17.675,18.844 17.675,18.387 C17.675,16.521 16.184,15.026 14.325,15.026 ZM21.491,19.092 L21.491,19.092 C20.380,19.092 19.404,19.628 18.795,20.456 C18.681,20.704 18.547,20.941 18.394,21.165 C18.232,21.561 18.141,21.996 18.141,22.454 C18.141,24.320 19.631,25.815 21.491,25.815 C22.958,25.815 24.192,24.883 24.649,23.573 C24.670,23.498 24.693,23.423 24.718,23.349 C24.796,23.064 24.841,22.765 24.841,22.454 C24.841,20.588 23.350,19.092 21.491,19.092 ZM29.385,21.564 C27.919,21.564 26.685,22.496 26.227,23.805 C26.206,23.881 26.183,23.956 26.158,24.030 C26.080,24.315 26.035,24.614 26.035,24.925 C26.035,26.791 27.526,28.287 29.385,28.287 C31.245,28.287 32.735,26.791 32.735,24.925 C32.735,23.060 31.245,21.564 29.385,21.564 ZM40.870,24.037 C40.856,23.996 40.842,23.956 40.829,23.915 C40.379,22.592 39.139,21.648 37.662,21.648 C35.802,21.648 34.312,23.143 34.312,25.009 C34.312,26.875 35.802,28.370 37.662,28.370 C39.521,28.370 41.012,26.875 41.012,25.009 C41.012,24.671 40.962,24.345 40.870,24.037 ZM48.570,21.030 C48.471,20.875 48.380,20.715 48.299,20.549 C47.697,19.667 46.687,19.092 45.535,19.092 C43.675,19.092 42.185,20.588 42.185,22.454 C42.185,22.792 42.235,23.118 42.326,23.425 C42.340,23.466 42.355,23.507 42.367,23.548 C42.817,24.870 44.058,25.815 45.535,25.815 C47.394,25.815 48.885,24.320 48.885,22.454 C48.885,21.943 48.770,21.462 48.570,21.030 ZM52.727,15.026 C50.867,15.026 49.377,16.521 49.377,18.387 C49.377,18.897 49.492,19.378 49.692,19.810 C49.790,19.965 49.881,20.126 49.962,20.292 C50.564,21.173 51.574,21.748 52.727,21.748 C54.586,21.748 56.077,20.253 56.077,18.387 C56.077,17.527 55.757,16.748 55.234,16.156 C55.062,16.016 54.900,15.865 54.748,15.705 C54.187,15.280 53.489,15.026 52.727,15.026 ZM58.318,8.947 C56.459,8.947 54.968,10.443 54.968,12.308 C54.968,13.169 55.288,13.947 55.811,14.539 C55.983,14.679 56.145,14.829 56.297,14.990 C56.858,15.415 57.556,15.670 58.318,15.670 C60.178,15.670 61.668,14.174 61.668,12.308 C61.668,11.125 61.067,10.092 60.154,9.494 C59.942,9.403 59.737,9.297 59.541,9.179 C59.163,9.031 58.751,8.947 58.318,8.947 ZM62.074,1.582 C60.214,1.582 58.723,3.077 58.723,4.943 C58.723,6.127 59.324,7.159 60.237,7.757 C60.450,7.848 60.654,7.954 60.850,8.072 C61.229,8.220 61.641,8.305 62.074,8.305 C63.933,8.305 65.423,6.809 65.423,4.943 C65.423,3.077 63.933,1.582 62.074,1.582 ZM33.503,30.871 C37.247,30.871 40.768,32.334 43.415,34.990 C48.880,40.474 48.880,49.397 43.415,54.881 C40.768,57.537 37.247,59.000 33.503,59.000 C29.759,59.000 26.240,57.537 23.592,54.880 C20.944,52.224 19.486,48.692 19.486,44.935 C19.486,41.179 20.944,37.647 23.591,34.990 C26.239,32.334 29.759,30.871 33.503,30.871 ZM23.096,40.647 L23.353,41.051 C23.090,41.219 23.008,41.338 22.985,41.408 C22.981,41.420 22.979,41.431 22.977,41.446 L22.818,41.429 C22.746,41.649 22.712,41.881 22.653,42.106 L23.092,41.924 C23.195,42.173 23.347,42.448 23.507,42.739 C23.558,42.830 23.608,42.921 23.658,43.012 L22.355,43.723 C22.311,44.125 22.257,44.525 22.257,44.935 C22.257,45.317 22.311,45.689 22.352,46.063 L23.654,46.773 C23.606,46.862 23.557,46.951 23.507,47.040 C23.345,47.333 23.192,47.610 23.089,47.861 L22.648,47.678 C22.706,47.902 22.742,48.134 22.813,48.354 L22.977,48.334 C22.979,48.348 22.981,48.360 22.985,48.371 C23.008,48.441 23.091,48.561 23.358,48.730 L23.092,49.151 C23.237,49.507 23.390,49.859 23.570,50.199 L24.074,49.103 L24.235,49.177 C24.614,49.352 25.005,49.531 25.351,49.759 L24.429,51.174 C24.303,51.091 24.153,51.011 23.993,50.931 C24.282,51.390 24.597,51.836 24.954,52.254 C24.910,51.965 24.856,51.688 24.764,51.504 L26.269,50.743 C26.513,51.230 26.602,51.795 26.666,52.287 L25.162,52.484 C25.292,52.628 25.414,52.776 25.551,52.914 C25.689,53.052 25.837,53.175 25.981,53.305 L26.783,53.171 C26.850,53.575 26.938,53.840 27.044,53.958 L26.919,54.070 C28.824,55.459 31.103,56.219 33.503,56.219 C35.905,56.219 38.185,55.458 40.091,54.067 L39.966,53.956 C40.072,53.836 40.159,53.570 40.226,53.164 L41.034,53.298 C41.174,53.170 41.320,53.050 41.455,52.914 C41.595,52.774 41.706,52.619 41.837,52.474 L40.343,52.278 C40.423,51.667 40.522,51.170 40.744,50.731 L42.245,51.500 C42.156,51.677 42.103,51.941 42.059,52.217 C42.400,51.813 42.698,51.387 42.975,50.952 C42.832,51.023 42.698,51.096 42.583,51.171 L41.665,49.753 C42.010,49.528 42.397,49.350 42.771,49.178 L42.941,49.100 L43.434,50.170 C43.614,49.830 43.766,49.480 43.910,49.128 L43.655,48.728 C43.918,48.560 44.000,48.441 44.023,48.372 C44.027,48.360 44.029,48.348 44.031,48.333 L44.182,48.350 C44.257,48.118 44.344,47.889 44.402,47.653 L43.916,47.855 C43.813,47.606 43.661,47.331 43.501,47.040 C43.450,46.949 43.400,46.858 43.350,46.767 L44.690,46.036 C44.765,45.261 44.730,44.483 44.645,43.710 L43.354,43.005 C43.402,42.916 43.452,42.827 43.501,42.738 C43.663,42.445 43.816,42.168 43.918,41.918 L44.345,42.094 C44.286,41.871 44.207,41.652 44.137,41.431 L44.031,41.444 C44.029,41.431 44.027,41.419 44.023,41.409 C44.000,41.338 43.917,41.218 43.650,41.048 L43.881,40.682 C43.743,40.327 43.595,39.975 43.413,39.634 L42.934,40.675 L42.773,40.601 C42.394,40.427 42.003,40.248 41.656,40.020 L42.578,38.605 C42.675,38.668 42.790,38.729 42.907,38.789 C42.653,38.398 42.381,38.015 42.073,37.652 C42.115,37.892 42.165,38.118 42.243,38.274 L40.739,39.035 C40.495,38.549 40.406,37.984 40.342,37.492 L41.766,37.306 C41.660,37.190 41.567,37.068 41.455,36.956 C39.331,34.825 36.507,33.652 33.503,33.652 C30.499,33.652 27.675,34.825 25.551,36.956 C25.438,37.070 25.340,37.195 25.233,37.313 L26.665,37.501 C26.585,38.112 26.486,38.608 26.263,39.047 L24.762,38.278 C24.843,38.120 24.893,37.890 24.935,37.646 C24.621,38.020 24.324,38.405 24.062,38.811 C24.193,38.744 24.318,38.677 24.425,38.608 L25.343,40.026 C24.998,40.251 24.611,40.428 24.236,40.601 L24.067,40.679 L23.579,39.622 C23.401,39.956 23.239,40.298 23.096,40.647 ZM25.211,41.946 C25.211,42.349 24.885,42.677 24.482,42.677 C24.080,42.677 23.753,42.349 23.753,41.946 C23.753,41.542 24.080,41.214 24.482,41.214 C24.885,41.214 25.211,41.542 25.211,41.946 ZM24.272,44.889 C24.272,45.181 24.215,45.485 24.098,45.817 L22.510,45.254 C22.561,45.108 22.587,44.985 22.587,44.889 C22.587,44.795 22.562,44.674 22.511,44.530 L24.102,43.971 C24.216,44.299 24.272,44.600 24.272,44.889 ZM24.482,47.159 C24.885,47.159 25.211,47.486 25.211,47.890 C25.211,48.294 24.885,48.621 24.482,48.621 C24.080,48.621 23.753,48.294 23.753,47.890 C23.753,47.486 24.080,47.159 24.482,47.159 ZM33.265,49.291 C34.088,49.291 35.107,48.819 35.107,47.855 C35.107,46.755 33.578,46.558 32.031,45.988 C30.502,45.418 28.954,44.533 28.954,42.135 C28.954,39.814 30.561,37.671 32.951,37.514 L32.951,35.135 L34.774,35.135 L34.774,37.514 C36.008,37.632 37.282,37.966 38.340,38.654 L36.890,41.505 C36.185,40.934 35.303,40.542 34.381,40.542 C33.520,40.542 32.716,40.856 32.716,41.643 C32.716,42.547 33.950,42.940 34.636,43.176 C36.870,43.923 38.889,44.748 38.889,47.482 C38.889,50.234 37.321,51.650 34.774,52.279 L34.774,54.737 L32.951,54.737 L32.951,52.397 C32.088,52.397 31.246,52.220 30.424,51.905 C29.600,51.591 28.758,51.217 28.111,50.608 L29.718,47.639 C30.619,48.484 32.011,49.291 33.265,49.291 ZM42.534,41.214 C42.936,41.214 43.263,41.542 43.263,41.946 C43.263,42.349 42.936,42.677 42.534,42.677 C42.131,42.677 41.805,42.349 41.805,41.946 C41.805,41.542 42.131,41.214 42.534,41.214 ZM42.534,47.159 C42.936,47.159 43.263,47.486 43.263,47.890 C43.263,48.294 42.936,48.621 42.534,48.621 C42.131,48.621 41.805,48.294 41.805,47.890 C41.805,47.486 42.131,47.159 42.534,47.159 ZM42.735,44.890 C42.735,44.598 42.792,44.294 42.909,43.961 L44.498,44.525 C44.447,44.671 44.421,44.794 44.421,44.890 C44.421,44.984 44.447,45.105 44.496,45.249 L42.906,45.807 C42.791,45.479 42.735,45.178 42.735,44.890 Z" class="cls-1"/>
</svg>
