<svg class="prnt-svg" xmlns="http://www.w3.org/2000/svg" xmlns:xlink="http://www.w3.org/1999/xlink" preserveAspectRatio="xMidYMid" width="66" height="45" viewBox="0 0 66 45">
  <defs>
    <style>
      .cls-1 { fill: #fff; fill-rule: evenodd;         transition: all .25s ease-out; transform-origin: 50% 50%; }

    </style>
  </defs>
  <path d="M2.276,13.500 C1.019,13.500 0.000,14.507 0.000,15.750 L0.000,29.812 C0.000,31.056 1.019,32.063 2.276,32.063 C3.533,32.063 4.552,31.056 4.552,29.812 L4.552,15.750 C4.552,14.507 3.533,13.500 2.276,13.500 ZM9.103,10.125 C7.846,10.125 6.828,11.132 6.828,12.375 L6.828,33.187 C6.828,34.430 7.846,35.437 9.103,35.437 C10.361,35.437 11.379,34.430 11.379,33.187 L11.379,12.375 C11.379,11.133 10.361,10.125 9.103,10.125 ZM15.931,-0.000 C14.674,-0.000 13.654,1.008 13.654,2.251 L13.654,42.750 C13.654,43.993 14.674,45.000 15.931,45.000 C17.188,45.000 18.207,43.993 18.207,42.750 L18.207,2.250 C18.207,1.008 17.188,-0.000 15.931,-0.000 ZM22.759,8.437 C21.501,8.437 20.483,9.444 20.483,10.687 L20.483,34.311 C20.483,35.554 21.501,36.562 22.759,36.562 C24.016,36.562 25.034,35.554 25.034,34.311 L25.034,10.687 C25.034,9.444 24.016,8.437 22.759,8.437 ZM29.586,15.187 C28.329,15.187 27.310,16.194 27.310,17.437 L27.310,27.562 C27.310,28.805 28.329,29.812 29.586,29.812 C30.843,29.812 31.862,28.805 31.862,27.562 L31.862,17.437 C31.862,16.194 30.843,15.187 29.586,15.187 ZM36.413,17.406 C35.157,17.406 34.138,18.414 34.138,19.656 L34.138,25.906 C34.138,27.150 35.157,28.157 36.413,28.157 C37.670,28.157 38.690,27.150 38.690,25.906 L38.690,19.656 C38.690,18.414 37.670,17.406 36.413,17.406 ZM43.241,14.031 C41.984,14.031 40.966,15.038 40.966,16.281 L40.966,29.281 C40.966,30.524 41.984,31.531 43.241,31.531 C44.499,31.531 45.517,30.524 45.517,29.281 L45.517,16.281 C45.517,15.039 44.499,14.031 43.241,14.031 ZM50.070,7.812 C48.813,7.812 47.793,8.820 47.793,10.063 L47.793,34.938 C47.793,36.181 48.813,37.188 50.070,37.188 C51.326,37.188 52.345,36.181 52.345,34.938 L52.345,10.062 C52.345,8.820 51.325,7.812 50.070,7.812 ZM56.896,13.125 C55.639,13.125 54.621,14.132 54.621,15.375 L54.621,30.405 C54.621,31.648 55.639,32.656 56.896,32.656 C58.154,32.656 59.172,31.648 59.172,30.405 L59.172,15.375 C59.172,14.132 58.154,13.125 56.896,13.125 ZM63.724,15.187 C62.467,15.187 61.448,16.194 61.448,17.437 L61.448,27.562 C61.448,28.805 62.467,29.812 63.724,29.812 C64.982,29.812 66.000,28.805 66.000,27.562 L66.000,17.437 C66.000,16.194 64.982,15.187 63.724,15.187 Z" class="cls-1"/>
</svg>
