<svg class="prnt-svg" xmlns="http://www.w3.org/2000/svg" xmlns:xlink="http://www.w3.org/1999/xlink" preserveAspectRatio="xMidYMid" width="61" height="60" viewBox="0 0 61 60">
  <defs>
    <style>
      .cls-1 { fill: #fff; fill-rule: evenodd;         transition: all .25s ease-out; transform-origin: 50% 50%; }

    </style>
  </defs>
  <path d="M60.945,12.483 L55.977,22.153 C55.907,22.292 55.767,22.362 55.627,22.431 C55.207,22.849 54.507,23.266 53.178,23.266 L53.108,23.266 C51.358,23.197 50.589,22.153 50.519,21.110 C50.449,19.996 51.079,18.605 52.268,18.396 C52.548,18.327 52.758,18.327 53.038,18.327 C54.437,18.327 55.277,19.022 55.697,19.509 L59.685,11.787 C59.825,11.439 60.245,11.370 60.595,11.509 C60.945,11.718 61.085,12.135 60.945,12.483 ZM54.717,20.762 C54.577,20.553 54.017,19.857 52.968,19.857 C52.828,19.857 52.688,19.927 52.478,19.927 C52.198,19.927 51.848,20.553 51.918,21.110 C51.988,21.666 52.408,21.944 53.178,21.944 L53.184,22.011 C53.668,22.004 54.311,21.924 54.577,21.527 C54.787,21.249 54.787,20.901 54.717,20.762 ZM49.679,14.570 C49.329,15.057 48.630,15.613 47.300,15.753 C47.160,15.753 47.020,15.753 46.880,15.753 C45.271,15.753 44.571,14.779 44.431,13.805 C44.221,12.622 44.851,11.370 45.831,11.091 C46.181,10.952 46.600,10.883 47.020,10.883 C48.140,10.883 48.909,11.439 49.329,11.787 L51.428,6.013 L47.020,3.369 L44.221,11.022 C44.151,11.161 44.081,11.300 43.941,11.370 C43.592,11.857 42.892,12.413 41.562,12.552 C41.422,12.552 41.282,12.552 41.143,12.552 C39.533,12.552 38.833,11.578 38.693,10.604 C38.484,9.422 39.113,8.169 40.093,7.891 C40.443,7.752 40.863,7.682 41.282,7.682 C42.402,7.682 43.172,8.239 43.592,8.587 L46.600,0.447 C46.740,0.168 47.020,-0.040 47.370,0.029 C47.580,-0.040 47.790,0.029 47.930,0.099 L53.318,3.369 C53.598,3.508 53.737,3.856 53.668,3.995 L49.959,14.222 C49.889,14.361 49.819,14.500 49.679,14.570 ZM48.490,13.109 C48.350,12.970 47.860,12.413 46.950,12.413 C46.740,12.413 46.460,12.483 46.181,12.552 C45.901,12.622 45.691,13.178 45.761,13.735 C45.831,14.292 46.320,14.570 47.020,14.570 C47.580,14.500 48.280,14.292 48.490,13.874 C48.630,13.596 48.560,13.248 48.490,13.109 ZM42.822,9.839 C42.682,9.700 42.192,9.143 41.282,9.143 C41.072,9.143 40.793,9.213 40.513,9.282 C40.233,9.352 40.023,9.908 40.093,10.465 C40.163,11.022 40.653,11.300 41.352,11.300 C41.912,11.231 42.612,11.022 42.822,10.604 C42.962,10.326 42.892,9.978 42.822,9.839 ZM52.128,4.204 L47.720,1.560 L47.510,2.117 L51.918,4.691 L52.128,4.204 ZM35.335,25.910 C35.265,25.979 35.265,25.979 35.265,25.979 C35.195,25.979 35.195,25.979 35.195,25.979 C34.005,26.884 32.466,27.371 30.857,27.371 C29.807,27.371 28.757,27.162 27.848,26.745 L24.489,28.832 L24.489,44.486 L31.626,44.486 C32.536,44.486 33.306,45.042 33.585,45.807 C33.655,45.946 33.725,46.085 33.725,46.225 L33.725,46.573 C33.725,46.712 33.655,46.851 33.585,46.990 C33.236,47.755 32.536,48.312 31.626,48.312 L12.734,48.312 C11.824,48.312 11.054,47.755 10.774,46.990 C10.705,46.851 10.634,46.712 10.634,46.573 L10.634,46.225 C10.634,46.085 10.705,45.946 10.774,45.807 C11.124,45.042 11.824,44.486 12.734,44.486 L19.801,44.486 L19.801,31.684 L10.145,37.737 C10.075,37.807 9.935,37.876 9.795,37.876 C9.795,37.876 9.725,37.876 9.655,37.876 C9.515,37.807 9.305,37.668 9.235,37.529 L7.976,35.372 C6.646,36.137 3.637,38.085 2.378,40.242 C0.489,43.442 1.888,46.642 3.078,49.495 C3.567,50.608 3.987,51.582 4.197,52.486 C4.897,55.478 3.987,58.191 1.818,59.861 C1.678,59.930 1.538,60.000 1.398,60.000 C1.188,60.000 0.978,59.930 0.838,59.722 C0.629,59.443 0.698,58.956 0.978,58.748 C2.728,57.426 3.357,55.339 2.798,52.834 C2.588,52.069 2.168,51.095 1.748,50.121 C0.489,47.199 -1.121,43.442 1.118,39.616 C2.518,37.181 5.736,35.093 7.206,34.258 L6.016,32.311 C5.806,31.963 5.876,31.545 6.226,31.337 L23.509,20.692 C23.439,20.414 23.439,20.205 23.439,19.927 C23.439,17.144 24.979,14.709 27.288,13.387 C28.338,12.761 29.597,12.413 30.927,12.413 C35.055,12.413 38.414,15.753 38.414,19.857 C38.414,22.362 37.224,24.519 35.335,25.910 ZM12.734,45.946 C12.454,45.946 12.174,46.155 12.104,46.433 C12.174,46.712 12.384,46.921 12.734,46.921 L31.626,46.921 C31.906,46.921 32.186,46.712 32.256,46.433 C32.186,46.155 31.906,45.946 31.626,45.946 L23.789,45.946 L20.501,45.946 L12.734,45.946 ZM23.090,44.555 L23.090,29.667 L21.200,30.850 L21.200,44.555 L23.090,44.555 ZM23.719,22.084 L7.556,32.102 L8.605,33.771 C8.745,33.841 8.815,33.911 8.885,34.050 C8.955,34.189 8.955,34.258 8.955,34.398 L10.005,36.206 L19.801,30.084 L20.501,29.667 L21.200,29.249 L23.090,28.067 L23.789,27.649 L24.489,27.232 L26.518,25.979 L23.999,21.944 L23.719,22.084 ZM24.769,19.857 C24.769,20.136 24.769,20.414 24.839,20.692 L27.638,25.075 C28.617,25.632 29.737,25.979 30.927,26.049 C31.976,26.049 33.026,25.701 33.935,25.214 L27.358,14.848 C25.819,15.961 24.769,17.770 24.769,19.857 ZM30.927,13.874 C30.087,13.874 29.317,14.013 28.617,14.292 L35.055,24.379 C36.314,23.266 37.014,21.666 37.084,19.996 C37.084,16.587 34.285,13.874 30.927,13.874 ZM41.982,28.762 C42.332,28.762 42.682,28.832 42.962,28.901 L42.192,20.275 C42.192,19.996 42.262,19.718 42.542,19.579 C42.822,19.440 43.102,19.509 43.312,19.648 C43.522,19.788 48.210,23.405 47.790,26.884 C47.580,28.206 46.390,29.041 46.250,29.110 C45.901,29.319 45.481,29.249 45.271,28.901 C45.061,28.554 45.131,28.136 45.481,27.928 C45.691,27.789 46.320,27.301 46.390,26.675 C46.600,25.075 45.061,23.197 43.731,21.875 L44.571,30.919 C44.571,31.058 44.501,31.197 44.431,31.337 C44.291,31.963 43.941,32.728 42.752,33.424 C42.262,33.771 41.702,33.911 41.212,33.911 C40.233,33.911 39.463,33.285 39.043,32.311 C38.693,31.406 38.833,30.363 39.463,29.806 C40.233,29.110 41.072,28.762 41.982,28.762 ZM40.373,31.824 C40.443,32.032 40.653,32.519 41.212,32.519 C41.492,32.519 41.772,32.380 42.052,32.241 C42.542,31.963 43.102,31.545 43.102,31.058 C43.172,30.780 42.962,30.502 42.822,30.363 C42.682,30.363 42.402,30.224 41.982,30.224 C41.422,30.224 40.933,30.432 40.443,30.850 C40.233,30.989 40.233,31.406 40.373,31.824 Z" class="cls-1"/>
</svg>
