<svg class="prnt-svg" xmlns="http://www.w3.org/2000/svg" xmlns:xlink="http://www.w3.org/1999/xlink" preserveAspectRatio="xMidYMid" width="30" height="46" viewBox="0 0 30 46">
  <defs>
    <style>
      .cls-1 { fill: #fff; fill-rule: evenodd;         transition: all .25s ease-out; transform-origin: 50% 50%; }

    </style>
  </defs>
  <path d="M24.257,44.756 C24.251,44.771 24.240,44.781 24.234,44.796 C24.214,44.848 24.182,44.888 24.157,44.938 C24.081,45.093 23.990,45.237 23.878,45.362 C23.829,45.415 23.779,45.461 23.724,45.509 C23.608,45.615 23.480,45.699 23.344,45.772 C23.282,45.804 23.225,45.839 23.162,45.864 C22.950,45.944 22.732,46.000 22.500,46.000 L1.875,46.000 C0.840,46.000 0.000,45.141 0.000,44.083 C0.000,43.025 0.840,42.166 1.875,42.166 L20.625,42.166 L15.000,28.750 L15.000,9.583 C15.000,8.525 15.840,7.667 16.875,7.667 L26.250,7.667 L26.250,3.833 L16.875,3.833 C15.840,3.833 15.000,2.975 15.000,1.917 C15.000,0.859 15.840,-0.000 16.875,-0.000 L28.125,-0.000 C29.160,-0.000 30.000,0.859 30.000,1.917 L30.000,9.583 C30.000,10.641 29.160,11.500 28.125,11.500 L18.750,11.500 L18.750,28.750 L22.500,38.625 L26.250,28.750 L26.250,17.250 C26.250,16.192 27.090,15.333 28.125,15.333 C29.160,15.333 30.000,16.192 30.000,17.250 L30.000,28.750 L24.257,44.756 Z" class="cls-1"/>
</svg>
