<svg class="prnt-svg" xmlns="http://www.w3.org/2000/svg" xmlns:xlink="http://www.w3.org/1999/xlink" preserveAspectRatio="xMidYMid" width="54" height="49" viewBox="0 0 54 49">
  <defs>
    <style>
      .cls-1 { fill: #fff; fill-rule: evenodd;         transition: all .25s ease-out; transform-origin: 50% 50%; }

    </style>
  </defs>
  <path d="M50.505,33.377 L50.505,49.000 L41.177,49.000 L41.177,33.377 L37.647,33.377 L37.660,20.767 C37.660,18.561 39.452,16.772 41.659,16.772 L49.997,16.772 C52.204,16.772 53.993,18.560 53.993,20.767 L54.000,33.377 L50.505,33.377 ZM50.202,20.356 L45.826,22.428 L41.450,20.356 L41.450,26.278 C41.708,25.701 42.366,25.291 43.142,25.291 C44.143,25.291 44.955,25.972 44.955,26.812 C44.955,27.170 44.801,27.493 44.557,27.752 L45.826,28.354 L47.109,27.747 C46.852,27.484 46.693,27.153 46.693,26.787 C46.693,25.947 47.504,25.266 48.506,25.266 C49.288,25.266 49.949,25.685 50.202,26.269 L50.202,20.356 ZM45.824,15.506 C43.839,15.506 42.235,13.904 42.235,11.927 C42.235,9.949 43.840,8.347 45.824,8.347 C47.805,8.347 49.412,9.949 49.412,11.927 C49.412,13.903 47.805,15.506 45.824,15.506 ZM40.817,7.157 C38.836,7.157 37.229,5.555 37.229,3.579 C37.229,1.602 38.836,-0.000 40.817,-0.000 C42.799,-0.000 44.405,1.602 44.405,3.579 C44.405,5.555 42.799,7.157 40.817,7.157 ZM39.978,11.927 C39.978,13.903 38.371,15.506 36.390,15.506 C34.408,15.506 32.801,13.903 32.801,11.927 C32.801,9.950 34.408,8.347 36.390,8.347 C38.371,8.347 39.978,9.950 39.978,11.927 ZM31.674,7.157 C29.692,7.157 28.086,5.555 28.086,3.579 C28.086,1.602 29.692,-0.000 31.674,-0.000 C33.655,-0.000 35.261,1.602 35.261,3.579 C35.261,5.555 33.655,7.157 31.674,7.157 ZM30.667,11.927 C30.667,13.903 29.060,15.506 27.079,15.506 C25.094,15.506 23.490,13.904 23.490,11.927 C23.491,9.949 25.094,8.347 27.079,8.347 C29.059,8.347 30.667,9.949 30.667,11.927 ZM22.484,7.157 C20.502,7.157 18.896,5.555 18.896,3.579 C18.896,1.602 20.502,-0.000 22.484,-0.000 C24.465,-0.000 26.071,1.602 26.071,3.579 C26.071,5.555 24.465,7.157 22.484,7.157 ZM21.258,11.927 C21.258,13.903 19.651,15.506 17.670,15.506 C15.688,15.506 14.081,13.903 14.081,11.927 C14.081,9.950 15.688,8.347 17.670,8.347 C19.651,8.347 21.258,9.950 21.258,11.927 ZM12.795,7.157 C10.814,7.157 9.207,5.555 9.207,3.579 C9.207,1.602 10.814,-0.000 12.795,-0.000 C14.777,-0.000 16.383,1.602 16.383,3.579 C16.383,5.555 14.777,7.157 12.795,7.157 ZM11.788,11.927 C11.788,13.903 10.181,15.506 8.199,15.506 C6.217,15.506 4.611,13.903 4.611,11.927 C4.611,9.950 6.217,8.347 8.199,8.347 C10.181,8.347 11.788,9.950 11.788,11.927 ZM16.346,20.767 L16.353,33.377 L12.858,33.377 L12.858,49.000 L3.530,49.000 L3.530,33.377 L0.000,33.377 L0.013,20.767 C0.013,18.561 1.804,16.772 4.012,16.772 L12.350,16.772 C14.557,16.772 16.346,18.560 16.346,20.767 ZM3.803,20.356 L3.803,26.278 C4.062,25.701 4.718,25.291 5.495,25.291 C6.496,25.291 7.307,25.972 7.307,26.812 C7.307,27.170 7.155,27.493 6.910,27.752 L8.179,28.354 L9.461,27.747 C9.205,27.484 9.045,27.153 9.045,26.787 C9.045,25.947 9.857,25.266 10.858,25.266 C11.641,25.266 12.302,25.685 12.555,26.269 L12.555,20.356 L8.179,22.428 L3.803,20.356 ZM22.914,16.772 L31.251,16.772 C33.458,16.772 35.247,18.560 35.247,20.767 L35.255,33.377 L31.760,33.377 L31.760,49.000 L22.432,49.000 L22.432,33.377 L18.903,33.377 L18.915,20.767 C18.915,18.561 20.706,16.772 22.914,16.772 ZM22.581,26.278 C22.839,25.701 23.496,25.291 24.273,25.291 C25.274,25.291 26.085,25.972 26.085,26.812 C26.085,27.170 25.933,27.493 25.688,27.752 L26.957,28.354 L28.240,27.747 C27.983,27.484 27.823,27.153 27.823,26.787 C27.823,25.947 28.635,25.266 29.636,25.266 C30.419,25.266 31.080,25.685 31.333,26.269 L31.333,20.356 L26.957,22.428 L22.581,20.356 L22.581,26.278 Z" class="cls-1"/>
</svg>
