<svg class="prnt-svg" xmlns="http://www.w3.org/2000/svg" xmlns:xlink="http://www.w3.org/1999/xlink" preserveAspectRatio="xMidYMid" width="49" height="44" viewBox="0 0 49 44">
  <defs>
    <style>
      .cls-1 { fill: #fff; fill-rule: evenodd;         transition: all .25s ease-out; transform-origin: 50% 50%; }

    </style>
  </defs>
  <path d="M47.277,44.000 L1.654,44.000 C0.758,44.000 0.000,43.243 0.000,42.347 L0.000,40.833 C0.000,39.937 0.758,39.180 1.654,39.180 L47.346,39.180 C48.242,39.180 49.000,39.937 49.000,40.833 L49.000,42.347 C48.931,43.311 48.173,44.000 47.277,44.000 ZM47.208,31.812 C46.864,32.157 46.243,32.088 45.968,31.743 L42.246,27.268 C41.970,26.923 41.350,27.130 41.350,27.612 L41.350,32.845 C41.350,33.258 41.006,33.603 40.592,33.603 L24.466,33.603 C24.052,33.603 23.707,33.258 23.707,32.845 L23.707,27.612 C23.707,27.130 23.156,26.923 22.811,27.268 L19.090,31.743 C18.745,32.088 18.194,32.157 17.850,31.812 C17.298,31.261 16.747,30.710 16.264,30.091 C15.989,29.815 15.989,29.333 16.264,29.058 L25.775,17.765 C25.844,17.696 25.913,17.628 25.982,17.559 C27.153,16.250 28.738,15.355 30.461,14.942 C30.668,14.873 30.875,14.942 30.944,15.149 L31.357,16.113 C31.426,16.250 31.426,16.319 31.426,16.388 L30.323,29.196 C30.323,29.333 30.392,29.471 30.461,29.540 L32.115,31.330 C32.253,31.537 32.529,31.537 32.736,31.330 L34.390,29.540 C34.527,29.471 34.527,29.333 34.527,29.196 L33.425,16.388 C33.494,16.250 33.494,16.181 33.494,16.113 L34.045,15.080 C34.114,14.942 34.321,14.804 34.527,14.873 C36.319,15.286 37.835,16.250 39.007,17.490 C39.076,17.559 39.145,17.628 39.214,17.696 L48.724,29.058 C49.000,29.402 49.000,29.815 48.793,30.091 C48.242,30.710 47.759,31.261 47.208,31.812 ZM32.529,12.394 C29.103,12.394 26.326,9.620 26.326,6.197 C26.326,2.775 29.103,0.000 32.529,0.000 C35.954,0.000 38.731,2.775 38.731,6.197 C38.731,9.620 35.954,12.394 32.529,12.394 ZM11.785,33.671 L2.550,33.671 C1.654,33.671 0.896,32.914 0.896,32.019 L0.896,21.002 C0.896,20.106 1.654,19.349 2.550,19.349 L11.785,19.349 C12.681,19.349 13.439,20.037 13.439,21.002 L13.439,32.019 C13.439,32.914 12.681,33.671 11.785,33.671 ZM7.167,23.756 C5.651,23.756 4.411,24.995 4.411,26.510 C4.411,28.025 5.651,29.265 7.167,29.265 C8.684,29.265 9.924,28.025 9.924,26.510 C9.924,24.995 8.684,23.756 7.167,23.756 Z" class="cls-1"/>
</svg>
