<svg class="prnt-svg" xmlns="http://www.w3.org/2000/svg" xmlns:xlink="http://www.w3.org/1999/xlink" preserveAspectRatio="xMidYMid" width="50" height="47.97" viewBox="0 0 50 47.97">
  <defs>
    <style>
      .cls-1 { fill: #fff; fill-rule: evenodd;         transition: all .25s ease-out; transform-origin: 50% 50%; }

    </style>
  </defs>
  <path d="M50.014,37.848 C50.014,37.936 50.005,38.025 49.988,38.112 C49.980,38.152 49.965,38.189 49.953,38.228 C49.940,38.274 49.929,38.320 49.911,38.365 C49.892,38.409 49.867,38.450 49.844,38.492 C49.824,38.527 49.809,38.563 49.786,38.597 C49.737,38.672 49.681,38.740 49.618,38.803 L45.562,42.858 C45.298,43.122 44.952,43.254 44.606,43.254 C44.259,43.254 43.913,43.122 43.650,42.858 C43.122,42.330 43.122,41.475 43.650,40.947 L47.310,37.288 L47.310,12.617 C46.894,12.762 46.449,12.845 45.985,12.845 L45.931,12.845 C43.709,12.845 41.901,11.039 41.901,8.818 L41.901,4.034 C41.901,1.813 43.709,0.006 45.931,0.006 C48.206,0.006 50.014,1.813 50.014,4.034 L50.014,8.818 C50.014,8.961 50.006,9.102 49.991,9.242 C50.004,9.315 50.014,9.390 50.014,9.467 L50.014,37.848 ZM47.310,4.034 C47.310,3.303 46.716,2.709 45.985,2.709 C45.200,2.709 44.606,3.303 44.606,4.034 L44.606,8.818 C44.606,9.548 45.200,10.142 45.931,10.142 L45.985,10.142 C46.716,10.142 47.310,9.548 47.310,8.818 L47.310,4.034 ZM20.629,41.227 C20.628,41.227 20.596,41.227 20.596,41.227 C9.300,41.227 0.111,31.957 0.111,20.679 C0.111,9.384 9.301,0.132 20.597,0.132 C31.615,0.132 40.613,9.137 41.083,20.592 C41.301,25.922 39.395,30.998 35.715,34.830 C31.851,38.855 26.351,41.227 20.629,41.227 ZM20.637,2.835 C10.832,2.835 2.894,10.812 2.894,20.617 C2.894,30.406 10.951,38.383 20.757,38.398 L20.944,38.398 C25.676,38.398 30.564,36.393 33.923,32.896 C37.087,29.601 38.667,25.259 38.480,20.672 C38.069,10.670 30.200,2.835 20.637,2.835 ZM20.600,7.618 C19.853,7.618 19.247,7.012 19.247,6.267 C19.247,5.520 19.853,4.915 20.600,4.915 C28.924,4.915 35.661,11.418 36.272,20.042 C36.325,20.786 35.763,21.433 35.018,21.486 C34.986,21.487 34.954,21.489 34.922,21.489 C34.219,21.489 33.625,20.945 33.574,20.233 C33.065,13.042 27.487,7.618 20.600,7.618 ZM25.672,20.560 C25.726,21.895 25.248,23.159 24.326,24.119 C23.370,25.114 22.015,25.685 20.608,25.685 C20.608,25.685 20.602,25.685 20.602,25.685 C17.807,25.681 15.535,23.408 15.535,20.617 C15.535,17.823 17.809,15.549 20.605,15.548 C23.331,15.548 25.557,17.750 25.672,20.560 ZM18.323,20.617 C18.323,21.919 19.468,22.980 20.773,22.982 L20.944,22.982 C21.620,22.982 22.094,22.714 22.543,22.247 C22.831,21.947 23.106,21.430 23.075,20.671 C23.018,19.291 21.939,18.251 20.648,18.251 C19.343,18.251 18.323,19.313 18.323,20.617 ZM21.954,29.724 C21.954,30.470 21.348,31.090 20.602,31.090 C20.602,31.090 20.601,31.090 20.600,31.090 C14.844,31.090 10.161,26.381 10.161,20.633 C10.161,19.887 10.767,19.265 11.513,19.265 C12.260,19.265 12.865,19.870 12.865,20.617 C12.865,24.876 16.337,28.346 20.604,28.353 C21.351,28.354 21.955,28.977 21.954,29.724 ZM20.602,33.615 C21.349,33.616 21.953,34.311 21.952,35.058 C21.951,35.803 21.345,36.496 20.600,36.496 C20.599,36.496 20.598,36.496 20.597,36.496 C11.941,36.496 4.897,29.351 4.897,20.706 C4.897,19.960 5.503,19.265 6.249,19.265 C6.995,19.265 7.601,19.870 7.601,20.617 C7.601,27.773 13.433,33.604 20.602,33.615 ZM19.250,11.528 C19.250,10.782 19.856,10.177 20.602,10.177 C26.218,10.177 30.803,14.738 31.042,20.561 C31.072,21.307 30.492,21.936 29.746,21.967 C29.728,21.968 29.709,21.968 29.690,21.968 C28.968,21.968 28.369,21.399 28.340,20.672 C28.161,16.303 24.762,12.880 20.602,12.880 C19.856,12.880 19.250,12.275 19.250,11.528 ZM1.338,45.281 L4.718,45.281 C5.465,45.281 6.070,45.887 6.070,46.633 C6.070,47.379 5.465,47.984 4.718,47.984 L1.338,47.984 C0.592,47.984 -0.014,47.379 -0.014,46.633 C-0.014,45.887 0.592,45.281 1.338,45.281 ZM10.127,45.281 L13.507,45.281 C14.253,45.281 14.859,45.887 14.859,46.633 C14.859,47.379 14.253,47.984 13.507,47.984 L10.127,47.984 C9.380,47.984 8.775,47.379 8.775,46.633 C8.775,45.887 9.380,45.281 10.127,45.281 Z" class="cls-1"/>
</svg>
