<svg class="prnt-svg" xmlns="http://www.w3.org/2000/svg" xmlns:xlink="http://www.w3.org/1999/xlink" preserveAspectRatio="xMidYMid" width="54" height="72" viewBox="0 0 54 72">
  <defs>
    <style>
      .cls-1 { fill: #fff; fill-rule: evenodd; }
    </style>
  </defs>
  <path d="M34.546,61.964 L24.070,71.710 C23.869,71.902 23.602,72.000 23.334,72.000 C23.155,72.000 22.980,71.956 22.817,71.868 C22.408,71.648 22.184,71.194 22.255,70.733 L23.531,62.609 C10.035,61.304 -0.000,52.699 -0.000,42.218 C-0.000,34.533 5.718,27.435 14.635,23.937 C14.586,23.466 14.559,22.994 14.559,22.523 C14.559,14.892 20.729,8.687 28.316,8.687 C35.898,8.687 42.068,14.892 42.068,22.523 C42.068,23.367 41.992,24.211 41.839,25.039 C49.471,28.849 54.000,35.218 54.000,42.219 C54.000,51.351 46.014,59.437 34.546,61.964 ZM28.316,10.880 C21.928,10.880 16.739,16.104 16.737,22.523 C16.737,23.164 16.792,23.806 16.895,24.441 C16.901,24.463 16.901,24.491 16.912,24.518 C17.124,25.763 17.539,26.975 18.138,28.082 L22.205,35.602 C22.891,36.874 23.262,38.173 23.464,39.264 L27.225,39.264 L27.225,30.220 L25.078,30.965 C24.964,31.003 24.844,31.025 24.724,31.025 C24.271,31.025 23.847,30.740 23.694,30.285 C23.497,29.715 23.797,29.090 24.364,28.893 L31.183,26.519 C31.751,26.321 32.372,26.623 32.568,27.199 C32.765,27.769 32.465,28.393 31.892,28.591 L29.407,29.457 L29.407,39.264 L33.162,39.264 C33.364,38.173 33.735,36.874 34.427,35.602 L38.488,28.082 C39.403,26.388 39.888,24.464 39.888,22.523 C39.888,16.104 34.699,10.880 28.316,10.880 ZM32.939,41.457 L23.689,41.457 C23.700,41.709 23.695,41.884 23.689,41.961 L23.689,44.050 L32.939,44.050 L32.939,41.961 C32.933,41.884 32.928,41.714 32.939,41.457 ZM23.688,46.242 L23.688,46.511 C23.688,49.076 25.760,51.164 28.316,51.170 C30.868,51.164 32.939,49.076 32.939,46.511 L32.939,46.242 L23.688,46.242 ZM41.258,27.199 C41.023,27.862 40.740,28.509 40.402,29.129 L36.341,36.649 C35.611,38.004 35.311,39.407 35.197,40.415 C35.186,40.476 35.181,40.525 35.175,40.580 C35.175,40.590 35.170,40.596 35.170,40.601 C35.093,41.364 35.120,41.862 35.120,41.873 L35.120,46.511 C35.120,50.276 32.078,53.346 28.339,53.363 L28.307,53.363 C28.301,53.363 28.296,53.363 28.296,53.363 C24.551,53.346 21.510,50.276 21.510,46.511 L21.510,41.873 C21.510,41.863 21.531,41.353 21.455,40.580 C21.455,40.575 21.455,40.570 21.449,40.558 C21.444,40.514 21.438,40.466 21.438,40.416 C21.433,40.399 21.433,40.378 21.433,40.361 C21.302,39.352 21.002,37.971 20.288,36.649 L16.227,29.129 C15.715,28.186 15.312,27.183 15.039,26.141 C7.190,29.353 2.181,35.564 2.181,42.219 C2.181,51.669 12.139,59.705 24.856,60.516 C25.145,60.532 25.417,60.664 25.608,60.883 C25.799,61.108 25.897,61.393 25.875,61.684 L25.870,61.755 C25.870,61.788 25.864,61.815 25.859,61.848 L24.900,67.949 L33.288,60.149 C33.451,59.995 33.653,59.902 33.865,59.869 C44.439,57.617 51.820,50.364 51.822,42.219 C51.822,36.189 47.897,30.647 41.258,27.199 ZM31.895,24.373 L25.080,26.745 C24.962,26.787 24.841,26.806 24.723,26.806 C24.271,26.806 23.849,26.521 23.693,26.068 C23.496,25.496 23.798,24.871 24.367,24.673 L31.181,22.300 C31.751,22.102 32.371,22.406 32.568,22.978 C32.765,23.550 32.463,24.174 31.895,24.373 ZM47.057,13.106 L43.859,14.963 C43.688,15.063 43.500,15.110 43.315,15.110 C42.939,15.110 42.573,14.913 42.371,14.561 C42.070,14.036 42.248,13.366 42.770,13.064 L45.967,11.207 C46.489,10.904 47.155,11.084 47.456,11.609 C47.757,12.134 47.578,12.804 47.057,13.106 ZM38.128,7.923 C37.926,8.275 37.560,8.472 37.183,8.472 C36.998,8.472 36.811,8.425 36.639,8.325 C36.118,8.022 35.940,7.351 36.240,6.827 L38.052,3.672 C38.353,3.147 39.020,2.968 39.541,3.270 C40.063,3.573 40.241,4.244 39.940,4.768 L38.128,7.923 ZM28.203,6.227 C28.198,6.227 28.192,6.227 28.187,6.227 C27.593,6.227 27.106,5.747 27.097,5.147 L27.037,1.128 C27.028,0.522 27.508,0.024 28.110,0.015 C28.710,-0.000 29.208,0.490 29.217,1.095 L29.277,5.114 C29.286,5.720 28.805,6.218 28.203,6.227 ZM19.569,8.325 C19.397,8.424 19.210,8.472 19.025,8.472 C18.648,8.472 18.282,8.275 18.080,7.923 L16.269,4.768 C15.968,4.243 16.146,3.573 16.668,3.270 C17.189,2.967 17.856,3.147 18.157,3.672 L19.968,6.827 C20.269,7.352 20.091,8.022 19.569,8.325 ZM13.016,15.191 C12.827,15.191 12.637,15.142 12.463,15.038 L9.196,13.101 C8.677,12.794 8.505,12.122 8.811,11.600 C9.116,11.079 9.784,10.904 10.304,11.213 L13.571,13.150 C14.089,13.457 14.262,14.130 13.956,14.651 C13.753,14.998 13.389,15.191 13.016,15.191 Z" class="cls-1"/>
</svg>
