<svg class="prnt-svg" xmlns="http://www.w3.org/2000/svg" xmlns:xlink="http://www.w3.org/1999/xlink" preserveAspectRatio="xMidYMid" width="30" height="48" viewBox="0 0 30 48">
  <defs>
    <style>
      .cls-1 { fill: #fff; fill-rule: evenodd;         transition: all .25s ease-out; transform-origin: 50% 50%; }

    </style>
  </defs>
  <path d="M18.000,41.701 L18.000,45.000 C18.000,46.658 16.658,48.000 15.000,48.000 C13.342,48.000 12.000,46.658 12.000,45.000 L12.000,41.701 C5.151,40.306 0.000,34.260 0.000,27.000 L3.000,27.000 C3.000,33.627 8.373,39.000 15.000,39.000 C21.627,39.000 27.000,33.627 27.000,27.000 L30.000,27.000 C30.000,34.260 24.843,40.306 18.000,41.701 ZM15.000,36.000 C10.026,36.000 6.000,31.974 6.000,27.000 L6.000,24.000 L9.000,24.000 L9.000,21.000 L6.000,21.000 L6.000,18.000 L9.000,18.000 L9.000,15.000 L6.000,15.000 L6.000,12.000 L9.000,12.000 L9.000,9.000 L6.000,9.000 C6.000,4.032 10.026,-0.000 15.000,-0.000 C19.968,-0.000 24.000,4.032 24.000,9.000 L21.000,9.000 L21.000,12.000 L24.000,12.000 L24.000,15.000 L21.000,15.000 L21.000,18.000 L24.000,18.000 L24.000,21.000 L21.000,21.000 L21.000,24.000 L24.000,24.000 L24.000,27.000 C24.000,31.974 19.968,36.000 15.000,36.000 Z" class="cls-1"/>
</svg>
