<svg xmlns="http://www.w3.org/2000/svg" width="37.125" height="37" viewBox="0 0 37.125 37">
  <defs>
    <style>
      .cls-1 {
        fill: #fff;
        fill-rule: evenodd;
      }
    </style>
  </defs>
  <path id="add-playlist.svg" class="cls-1" d="M-368.553,394.313A16.235,16.235,0,0,1-352.307,410.5a16.266,16.266,0,0,1-16.246,16.224A16.266,16.266,0,0,1-384.8,410.5a16.235,16.235,0,0,1,16.246-16.187m0-2.313a18.534,18.534,0,0,0-18.567,18.5A18.533,18.533,0,0,0-368.553,429a18.533,18.533,0,0,0,18.567-18.5A18.534,18.534,0,0,0-368.553,392h0Zm-8.123,17.344h16.246a1.158,1.158,0,0,1,1.16,1.156,1.158,1.158,0,0,1-1.16,1.157h-16.246a1.158,1.158,0,0,1-1.16-1.157A1.158,1.158,0,0,1-376.676,409.344Zm9.284-6.938v16.188a1.159,1.159,0,0,1-1.161,1.156,1.158,1.158,0,0,1-1.16-1.156V402.406a1.158,1.158,0,0,1,1.16-1.156A1.159,1.159,0,0,1-367.392,402.406Z" transform="translate(-176.875 -3755)"/>
</svg>
