<svg xmlns="http://www.w3.org/2000/svg" xmlns:xlink="http://www.w3.org/1999/xlink" preserveAspectRatio="xMidYMid" width="19" height="18" viewBox="0 0 19 18">
  <defs>
    <style>
      .cls-1 {
        fill: #fff;
        fill-rule: evenodd;
      }
    </style>
  </defs>
  <path d="M3.202,17.993 C2.397,17.993 1.624,17.667 1.009,17.064 C-0.357,15.723 -0.357,13.543 1.009,12.203 L11.654,1.138 C13.314,-0.491 15.858,-0.345 17.715,1.475 C18.547,2.291 19.014,3.467 18.996,4.703 C18.979,5.926 18.491,7.097 17.656,7.915 L9.611,16.299 C9.387,16.534 9.012,16.544 8.773,16.324 C8.534,16.104 8.523,15.735 8.748,15.501 L16.805,7.105 C17.435,6.487 17.797,5.610 17.810,4.687 C17.823,3.763 17.483,2.893 16.876,2.298 C15.737,1.181 13.883,0.596 12.504,1.948 L1.860,13.014 C0.945,13.912 0.945,15.355 1.848,16.241 C2.271,16.656 2.774,16.858 3.309,16.826 C3.839,16.794 4.384,16.528 4.843,16.078 L13.313,7.254 C13.620,6.952 14.236,6.214 13.608,5.598 C13.253,5.250 13.003,5.271 12.921,5.278 C12.686,5.298 12.412,5.457 12.128,5.736 L5.753,12.373 C5.528,12.608 5.152,12.619 4.915,12.398 C4.676,12.178 4.665,11.809 4.890,11.576 L11.276,4.926 C11.779,4.432 12.292,4.165 12.814,4.119 C13.222,4.083 13.829,4.168 14.447,4.776 C15.365,5.676 15.251,6.997 14.164,8.064 L5.694,16.888 C5.018,17.552 4.202,17.938 3.382,17.988 C3.322,17.992 3.262,17.993 3.202,17.993 Z" class="cls-1"/>
</svg>
