<svg xmlns="http://www.w3.org/2000/svg" width="17" height="15" viewBox="0 0 17 15">
  <path fill="#ea3f4f" fill-rule="evenodd" d="M16.473,6.461 C16.461,6.553 16.334,6.742 16.118,7.004 C15.979,7.187 15.830,7.362 15.664,7.522 C14.615,8.671 13.257,9.374 11.687,10.866 C10.219,12.261 5.311,15.003 5.311,15.003 C5.311,15.003 5.842,10.349 1.333,7.522 C1.168,7.362 1.018,7.187 0.880,7.004 C0.663,6.742 0.537,6.553 0.524,6.461 C0.189,5.846 -0.003,5.146 -0.003,4.402 C-0.003,1.975 2.019,0.006 4.514,0.006 C6.240,0.006 7.739,0.950 8.499,2.335 C9.259,0.950 10.758,0.006 12.484,0.006 C14.978,0.006 17.000,1.975 17.000,4.402 C17.000,5.146 16.809,5.846 16.473,6.461 Z" class="cls-1"/>
</svg>