<svg xmlns="http://www.w3.org/2000/svg" width="20.968" height="17" viewBox="0 0 20.968 17">
  <defs>
    <style>
      .cls-1 {
        fill: #fff;
        fill-rule: evenodd;
        opacity: 0.6;
      }
    </style>
  </defs>
  <path id="repost.svg" class="cls-1" d="M432.362,3378.01h0.022a0.589,0.589,0,0,0,.57-0.58c0.023-.24.676-5.91,9.871-5.91l0.02,3.63a0.618,0.618,0,0,0,.376.57,0.654,0.654,0,0,0,.7-0.08l8.511-6.79a0.619,0.619,0,0,0,.24-0.49,0.626,0.626,0,0,0-.242-0.49l-8.511-6.74a0.7,0.7,0,0,0-.7-0.08,0.643,0.643,0,0,0-.375.58l-0.02,3.55c-3.815.11-6.768,1.3-8.683,3.45-3.117,3.52-2.421,8.63-2.388,8.84A0.609,0.609,0,0,0,432.362,3378.01Zm11.14-7.76h0c-6.568,0-9.077,2.14-10.511,4.03a9.153,9.153,0,0,1,2.154-4.83c1.771-1.98,4.624-3.02,8.359-3.02a0.642,0.642,0,0,0,.656-0.63v-2.84l6.818,5.4-6.818,5.45v-2.93a0.623,0.623,0,0,0-.193-0.45A0.657,0.657,0,0,0,443.5,3370.25Z" transform="translate(-431.688 -3361)"/>
</svg>
