<svg xmlns="http://www.w3.org/2000/svg" width="10" height="12" viewBox="0 0 10 12">
  <defs>
    <style>
      .cls-1 {
        fill: #cf303f;
        fill-rule: evenodd;
      }
    </style>
  </defs>
  <path id="filter-btn-on.svg" class="cls-1" d="M1057.79,348h0.43a0.786,0.786,0,0,1,.79.786v10.428a0.786,0.786,0,0,1-.79.786h-0.43a0.786,0.786,0,0,1-.79-0.786V348.786A0.786,0.786,0,0,1,1057.79,348Zm4.01,0h0.4a0.784,0.784,0,0,1,.78.786v10.428a0.784,0.784,0,0,1-.78.786h-0.4a0.784,0.784,0,0,1-.78-0.786V348.786A0.784,0.784,0,0,1,1061.8,348Zm3.98,0h0.43a0.786,0.786,0,0,1,.79.786v10.428a0.786,0.786,0,0,1-.79.786h-0.43a0.786,0.786,0,0,1-.79-0.786V348.786A0.786,0.786,0,0,1,1065.78,348Z" transform="translate(-1057 -348)"/>
</svg>
