<svg xmlns="http://www.w3.org/2000/svg" xmlns:xlink="http://www.w3.org/1999/xlink" preserveAspectRatio="xMidYMid" width="473" height="23" viewBox="0 0 473 23">
  <defs>
    <style>
      .cls-1 {
        fill: #414242;
        opacity: 0.4;
        fill-rule: evenodd;
      }
    </style>
  </defs>
  <path d="M471.000,23.000 L471.000,6.000 L473.000,6.000 L473.000,23.000 L471.000,23.000 ZM468.000,2.000 L470.000,2.000 L470.000,23.000 L468.000,23.000 L468.000,2.000 ZM465.000,7.000 L467.000,7.000 L467.000,23.000 L465.000,23.000 L465.000,7.000 ZM462.000,13.000 L464.000,13.000 L464.000,23.000 L462.000,23.000 L462.000,13.000 ZM459.000,9.000 L461.000,9.000 L461.000,23.000 L459.000,23.000 L459.000,9.000 ZM456.000,11.000 L458.000,11.000 L458.000,23.000 L456.000,23.000 L456.000,11.000 ZM453.000,5.000 L455.000,5.000 L455.000,23.000 L453.000,23.000 L453.000,5.000 ZM450.000,7.000 L452.000,7.000 L452.000,23.000 L450.000,23.000 L450.000,7.000 ZM447.000,0.000 L449.000,0.000 L449.000,23.000 L447.000,23.000 L447.000,0.000 ZM444.000,6.000 L446.000,6.000 L446.000,23.000 L444.000,23.000 L444.000,6.000 ZM441.000,3.000 L443.000,3.000 L443.000,23.000 L441.000,23.000 L441.000,3.000 ZM438.000,9.000 L440.000,9.000 L440.000,23.000 L438.000,23.000 L438.000,9.000 ZM435.000,6.000 L437.000,6.000 L437.000,23.000 L435.000,23.000 L435.000,6.000 ZM432.000,2.000 L434.000,2.000 L434.000,23.000 L432.000,23.000 L432.000,2.000 ZM429.000,7.000 L431.000,7.000 L431.000,23.000 L429.000,23.000 L429.000,7.000 ZM426.000,13.000 L428.000,13.000 L428.000,23.000 L426.000,23.000 L426.000,13.000 ZM423.000,9.000 L425.000,9.000 L425.000,23.000 L423.000,23.000 L423.000,9.000 ZM420.000,11.000 L422.000,11.000 L422.000,23.000 L420.000,23.000 L420.000,11.000 ZM417.000,5.000 L419.000,5.000 L419.000,23.000 L417.000,23.000 L417.000,5.000 ZM414.000,7.000 L416.000,7.000 L416.000,23.000 L414.000,23.000 L414.000,7.000 ZM411.000,0.000 L413.000,0.000 L413.000,23.000 L411.000,23.000 L411.000,0.000 ZM408.000,6.000 L410.000,6.000 L410.000,23.000 L408.000,23.000 L408.000,6.000 ZM405.000,3.000 L407.000,3.000 L407.000,23.000 L405.000,23.000 L405.000,3.000 ZM402.000,9.000 L404.000,9.000 L404.000,23.000 L402.000,23.000 L402.000,9.000 ZM399.000,6.000 L401.000,6.000 L401.000,23.000 L399.000,23.000 L399.000,6.000 ZM396.000,2.000 L398.000,2.000 L398.000,23.000 L396.000,23.000 L396.000,2.000 ZM393.000,7.000 L395.000,7.000 L395.000,23.000 L393.000,23.000 L393.000,7.000 ZM390.000,13.000 L392.000,13.000 L392.000,23.000 L390.000,23.000 L390.000,13.000 ZM387.000,9.000 L389.000,9.000 L389.000,23.000 L387.000,23.000 L387.000,9.000 ZM384.000,11.000 L386.000,11.000 L386.000,23.000 L384.000,23.000 L384.000,11.000 ZM381.000,5.000 L383.000,5.000 L383.000,23.000 L381.000,23.000 L381.000,5.000 ZM378.000,7.000 L380.000,7.000 L380.000,23.000 L378.000,23.000 L378.000,7.000 ZM375.000,0.000 L377.000,0.000 L377.000,23.000 L375.000,23.000 L375.000,0.000 ZM372.000,6.000 L374.000,6.000 L374.000,23.000 L372.000,23.000 L372.000,6.000 ZM369.000,3.000 L371.000,3.000 L371.000,23.000 L369.000,23.000 L369.000,3.000 ZM366.000,9.000 L368.000,9.000 L368.000,23.000 L366.000,23.000 L366.000,9.000 ZM363.000,6.000 L365.000,6.000 L365.000,23.000 L363.000,23.000 L363.000,6.000 ZM360.000,2.000 L362.000,2.000 L362.000,23.000 L360.000,23.000 L360.000,2.000 ZM357.000,7.000 L359.000,7.000 L359.000,23.000 L357.000,23.000 L357.000,7.000 ZM354.000,13.000 L356.000,13.000 L356.000,23.000 L354.000,23.000 L354.000,13.000 ZM351.000,9.000 L353.000,9.000 L353.000,23.000 L351.000,23.000 L351.000,9.000 ZM348.000,11.000 L350.000,11.000 L350.000,23.000 L348.000,23.000 L348.000,11.000 ZM345.000,5.000 L347.000,5.000 L347.000,23.000 L345.000,23.000 L345.000,5.000 ZM342.000,7.000 L344.000,7.000 L344.000,23.000 L342.000,23.000 L342.000,7.000 ZM339.000,0.000 L341.000,0.000 L341.000,23.000 L339.000,23.000 L339.000,0.000 ZM336.000,6.000 L338.000,6.000 L338.000,23.000 L336.000,23.000 L336.000,6.000 ZM333.000,3.000 L335.000,3.000 L335.000,23.000 L333.000,23.000 L333.000,3.000 ZM330.000,9.000 L332.000,9.000 L332.000,23.000 L330.000,23.000 L330.000,9.000 ZM327.000,6.000 L329.000,6.000 L329.000,23.000 L327.000,23.000 L327.000,6.000 ZM324.000,2.000 L326.000,2.000 L326.000,23.000 L324.000,23.000 L324.000,2.000 ZM321.000,7.000 L323.000,7.000 L323.000,23.000 L321.000,23.000 L321.000,7.000 ZM318.000,13.000 L320.000,13.000 L320.000,23.000 L318.000,23.000 L318.000,13.000 ZM315.000,9.000 L317.000,9.000 L317.000,23.000 L315.000,23.000 L315.000,9.000 ZM312.000,11.000 L314.000,11.000 L314.000,23.000 L312.000,23.000 L312.000,11.000 ZM309.000,5.000 L311.000,5.000 L311.000,23.000 L309.000,23.000 L309.000,5.000 ZM306.000,7.000 L308.000,7.000 L308.000,23.000 L306.000,23.000 L306.000,7.000 ZM303.000,0.000 L305.000,0.000 L305.000,23.000 L303.000,23.000 L303.000,0.000 ZM300.000,6.000 L302.000,6.000 L302.000,23.000 L300.000,23.000 L300.000,6.000 ZM297.000,3.000 L299.000,3.000 L299.000,23.000 L297.000,23.000 L297.000,3.000 ZM294.000,9.000 L296.000,9.000 L296.000,23.000 L294.000,23.000 L294.000,9.000 ZM291.000,6.000 L293.000,6.000 L293.000,23.000 L291.000,23.000 L291.000,6.000 ZM288.000,2.000 L290.000,2.000 L290.000,23.000 L288.000,23.000 L288.000,2.000 ZM285.000,7.000 L287.000,7.000 L287.000,23.000 L285.000,23.000 L285.000,7.000 ZM282.000,13.000 L284.000,13.000 L284.000,23.000 L282.000,23.000 L282.000,13.000 ZM279.000,9.000 L281.000,9.000 L281.000,23.000 L279.000,23.000 L279.000,9.000 ZM276.000,11.000 L278.000,11.000 L278.000,23.000 L276.000,23.000 L276.000,11.000 ZM273.000,5.000 L275.000,5.000 L275.000,23.000 L273.000,23.000 L273.000,5.000 ZM270.000,7.000 L272.000,7.000 L272.000,23.000 L270.000,23.000 L270.000,7.000 ZM267.000,0.000 L269.000,0.000 L269.000,23.000 L267.000,23.000 L267.000,0.000 ZM264.000,6.000 L266.000,6.000 L266.000,23.000 L264.000,23.000 L264.000,6.000 ZM261.000,3.000 L263.000,3.000 L263.000,23.000 L261.000,23.000 L261.000,3.000 ZM258.000,9.000 L260.000,9.000 L260.000,23.000 L258.000,23.000 L258.000,9.000 ZM255.000,6.000 L257.000,6.000 L257.000,23.000 L255.000,23.000 L255.000,6.000 ZM252.000,2.000 L254.000,2.000 L254.000,23.000 L252.000,23.000 L252.000,2.000 ZM249.000,7.000 L251.000,7.000 L251.000,23.000 L249.000,23.000 L249.000,7.000 ZM246.000,13.000 L248.000,13.000 L248.000,23.000 L246.000,23.000 L246.000,13.000 ZM243.000,9.000 L245.000,9.000 L245.000,23.000 L243.000,23.000 L243.000,9.000 ZM240.000,11.000 L242.000,11.000 L242.000,23.000 L240.000,23.000 L240.000,11.000 ZM237.000,5.000 L239.000,5.000 L239.000,23.000 L237.000,23.000 L237.000,5.000 ZM234.000,7.000 L236.000,7.000 L236.000,23.000 L234.000,23.000 L234.000,7.000 ZM231.000,0.000 L233.000,0.000 L233.000,23.000 L231.000,23.000 L231.000,0.000 ZM228.000,6.000 L230.000,6.000 L230.000,23.000 L228.000,23.000 L228.000,6.000 ZM225.000,3.000 L227.000,3.000 L227.000,23.000 L225.000,23.000 L225.000,3.000 ZM222.000,9.000 L224.000,9.000 L224.000,23.000 L222.000,23.000 L222.000,9.000 ZM219.000,6.000 L221.000,6.000 L221.000,23.000 L219.000,23.000 L219.000,6.000 ZM216.000,2.000 L218.000,2.000 L218.000,23.000 L216.000,23.000 L216.000,2.000 ZM213.000,7.000 L215.000,7.000 L215.000,23.000 L213.000,23.000 L213.000,7.000 ZM210.000,13.000 L212.000,13.000 L212.000,23.000 L210.000,23.000 L210.000,13.000 ZM207.000,9.000 L209.000,9.000 L209.000,23.000 L207.000,23.000 L207.000,9.000 ZM204.000,11.000 L206.000,11.000 L206.000,23.000 L204.000,23.000 L204.000,11.000 ZM201.000,5.000 L203.000,5.000 L203.000,23.000 L201.000,23.000 L201.000,5.000 ZM198.000,7.000 L200.000,7.000 L200.000,23.000 L198.000,23.000 L198.000,7.000 ZM195.000,0.000 L197.000,0.000 L197.000,23.000 L195.000,23.000 L195.000,0.000 ZM192.000,6.000 L194.000,6.000 L194.000,23.000 L192.000,23.000 L192.000,6.000 ZM189.000,3.000 L191.000,3.000 L191.000,23.000 L189.000,23.000 L189.000,3.000 ZM186.000,9.000 L188.000,9.000 L188.000,23.000 L186.000,23.000 L186.000,9.000 ZM183.000,6.000 L185.000,6.000 L185.000,23.000 L183.000,23.000 L183.000,6.000 ZM180.000,2.000 L182.000,2.000 L182.000,23.000 L180.000,23.000 L180.000,2.000 ZM177.000,7.000 L179.000,7.000 L179.000,23.000 L177.000,23.000 L177.000,7.000 ZM174.000,13.000 L176.000,13.000 L176.000,23.000 L174.000,23.000 L174.000,13.000 ZM171.000,9.000 L173.000,9.000 L173.000,23.000 L171.000,23.000 L171.000,9.000 ZM168.000,11.000 L170.000,11.000 L170.000,23.000 L168.000,23.000 L168.000,11.000 ZM165.000,5.000 L167.000,5.000 L167.000,23.000 L165.000,23.000 L165.000,5.000 ZM162.000,7.000 L164.000,7.000 L164.000,23.000 L162.000,23.000 L162.000,7.000 ZM159.000,0.000 L161.000,0.000 L161.000,23.000 L159.000,23.000 L159.000,0.000 ZM156.000,6.000 L158.000,6.000 L158.000,23.000 L156.000,23.000 L156.000,6.000 ZM153.000,3.000 L155.000,3.000 L155.000,23.000 L153.000,23.000 L153.000,3.000 ZM150.000,9.000 L152.000,9.000 L152.000,23.000 L150.000,23.000 L150.000,9.000 ZM147.000,6.000 L149.000,6.000 L149.000,23.000 L147.000,23.000 L147.000,6.000 ZM144.000,2.000 L146.000,2.000 L146.000,23.000 L144.000,23.000 L144.000,2.000 ZM141.000,7.000 L143.000,7.000 L143.000,23.000 L141.000,23.000 L141.000,7.000 ZM138.000,13.000 L140.000,13.000 L140.000,23.000 L138.000,23.000 L138.000,13.000 ZM135.000,9.000 L137.000,9.000 L137.000,23.000 L135.000,23.000 L135.000,9.000 ZM132.000,11.000 L134.000,11.000 L134.000,23.000 L132.000,23.000 L132.000,11.000 ZM129.000,5.000 L131.000,5.000 L131.000,23.000 L129.000,23.000 L129.000,5.000 ZM126.000,7.000 L128.000,7.000 L128.000,23.000 L126.000,23.000 L126.000,7.000 ZM123.000,0.000 L125.000,0.000 L125.000,23.000 L123.000,23.000 L123.000,0.000 ZM120.000,6.000 L122.000,6.000 L122.000,23.000 L120.000,23.000 L120.000,6.000 ZM117.000,3.000 L119.000,3.000 L119.000,23.000 L117.000,23.000 L117.000,3.000 ZM114.000,9.000 L116.000,9.000 L116.000,23.000 L114.000,23.000 L114.000,9.000 ZM111.000,6.000 L113.000,6.000 L113.000,23.000 L111.000,23.000 L111.000,6.000 ZM108.000,2.000 L110.000,2.000 L110.000,23.000 L108.000,23.000 L108.000,2.000 ZM105.000,7.000 L107.000,7.000 L107.000,23.000 L105.000,23.000 L105.000,7.000 ZM102.000,13.000 L104.000,13.000 L104.000,23.000 L102.000,23.000 L102.000,13.000 ZM99.000,9.000 L101.000,9.000 L101.000,23.000 L99.000,23.000 L99.000,9.000 ZM96.000,11.000 L98.000,11.000 L98.000,23.000 L96.000,23.000 L96.000,11.000 ZM93.000,5.000 L95.000,5.000 L95.000,23.000 L93.000,23.000 L93.000,5.000 ZM90.000,7.000 L92.000,7.000 L92.000,23.000 L90.000,23.000 L90.000,7.000 ZM87.000,0.000 L89.000,0.000 L89.000,23.000 L87.000,23.000 L87.000,0.000 ZM84.000,6.000 L86.000,6.000 L86.000,23.000 L84.000,23.000 L84.000,6.000 ZM81.000,3.000 L83.000,3.000 L83.000,23.000 L81.000,23.000 L81.000,3.000 ZM78.000,0.000 L80.000,0.000 L80.000,23.000 L78.000,23.000 L78.000,0.000 ZM75.000,6.000 L77.000,6.000 L77.000,23.000 L75.000,23.000 L75.000,6.000 ZM72.000,3.000 L74.000,3.000 L74.000,23.000 L72.000,23.000 L72.000,3.000 ZM69.000,9.000 L71.000,9.000 L71.000,23.000 L69.000,23.000 L69.000,9.000 ZM66.000,6.000 L68.000,6.000 L68.000,23.000 L66.000,23.000 L66.000,6.000 ZM63.000,2.000 L65.000,2.000 L65.000,23.000 L63.000,23.000 L63.000,2.000 ZM60.000,7.000 L62.000,7.000 L62.000,23.000 L60.000,23.000 L60.000,7.000 ZM57.000,13.000 L59.000,13.000 L59.000,23.000 L57.000,23.000 L57.000,13.000 ZM54.000,9.000 L56.000,9.000 L56.000,23.000 L54.000,23.000 L54.000,9.000 ZM51.000,11.000 L53.000,11.000 L53.000,23.000 L51.000,23.000 L51.000,11.000 ZM48.000,5.000 L50.000,5.000 L50.000,23.000 L48.000,23.000 L48.000,5.000 ZM45.000,7.000 L47.000,7.000 L47.000,23.000 L45.000,23.000 L45.000,7.000 ZM42.000,0.000 L44.000,0.000 L44.000,23.000 L42.000,23.000 L42.000,0.000 ZM39.000,6.000 L41.000,6.000 L41.000,23.000 L39.000,23.000 L39.000,6.000 ZM36.000,3.000 L38.000,3.000 L38.000,23.000 L36.000,23.000 L36.000,3.000 ZM33.000,9.000 L35.000,9.000 L35.000,23.000 L33.000,23.000 L33.000,9.000 ZM30.000,6.000 L32.000,6.000 L32.000,23.000 L30.000,23.000 L30.000,6.000 ZM27.000,2.000 L29.000,2.000 L29.000,23.000 L27.000,23.000 L27.000,2.000 ZM24.000,7.000 L26.000,7.000 L26.000,23.000 L24.000,23.000 L24.000,7.000 ZM21.000,13.000 L23.000,13.000 L23.000,23.000 L21.000,23.000 L21.000,13.000 ZM18.000,9.000 L20.000,9.000 L20.000,23.000 L18.000,23.000 L18.000,9.000 ZM15.000,11.000 L17.000,11.000 L17.000,23.000 L15.000,23.000 L15.000,11.000 ZM12.000,5.000 L14.000,5.000 L14.000,23.000 L12.000,23.000 L12.000,5.000 ZM9.000,7.000 L11.000,7.000 L11.000,23.000 L9.000,23.000 L9.000,7.000 ZM6.000,0.000 L8.000,0.000 L8.000,23.000 L6.000,23.000 L6.000,0.000 ZM3.000,6.000 L5.000,6.000 L5.000,23.000 L3.000,23.000 L3.000,6.000 ZM0.000,3.000 L2.000,3.000 L2.000,23.000 L0.000,23.000 L0.000,3.000 Z" class="cls-1"/>
</svg>
