<svg xmlns="http://www.w3.org/2000/svg" width="17.094" height="12" viewBox="0 0 17.094 12">
  <path fill="#ffffff" fill-rule="evenodd" d="M121.915,3037.24v-10.66a0.649,0.649,0,0,1,.995-0.58c0.4,0.23,7.924,4.92,8.6,5.32a0.674,0.674,0,0,1,0,1.16c-0.487.29-8.044,5-8.62,5.33A0.646,0.646,0,0,1,121.915,3037.24Zm7.144,0v-10.66a0.649,0.649,0,0,1,1-.58c0.4,0.23,7.924,4.92,8.6,5.32a0.674,0.674,0,0,1,0,1.16c-0.487.29-8.044,5-8.62,5.33A0.646,0.646,0,0,1,129.059,3037.24Z" transform="translate(-121.906 -3025.91)"/>
</svg>
