<svg xmlns="http://www.w3.org/2000/svg" width="21.03" height="18" viewBox="0 0 21.03 18">
  <path fill="#ffffff" fill-rule="evenodd" d="M1058.2,3025.35h10.84a1.175,1.175,0,1,0,0-2.35H1058.2A1.175,1.175,0,1,0,1058.2,3025.35Zm10.84,4.71H1058.2a1.175,1.175,0,1,0,0,2.35h10.84A1.175,1.175,0,1,0,1069.04,3030.06Zm0,7.06H1058.2a1.175,1.175,0,1,0,0,2.35h10.84A1.175,1.175,0,1,0,1069.04,3037.12Zm-16.71-7.59h-2.7a0.393,0.393,0,0,0-.4.39v2.63a0.393,0.393,0,0,0,.4.39h2.7a0.393,0.393,0,0,0,.4-0.39v-2.63A0.393,0.393,0,0,0,1052.33,3029.53Zm0,7.06h-2.7a0.393,0.393,0,0,0-.4.39v2.63a0.393,0.393,0,0,0,.4.39h2.7a0.393,0.393,0,0,0,.4-0.39v-2.63A0.393,0.393,0,0,0,1052.33,3036.59Zm-3.09-10.81v-3.56a0.266,0.266,0,0,1,.4-0.19c0.16,0.08,3.18,1.64,3.45,1.78a0.2,0.2,0,0,1,0,.38c-0.2.1-3.23,1.67-3.46,1.78A0.261,0.261,0,0,1,1049.24,3025.78Z" transform="translate(-1049.22 -3022)"/>
</svg>
