<svg xmlns="http://www.w3.org/2000/svg" width="637.875" height="27" viewBox="0 0 637.875 27">
  <defs>
    <style>
      .cls-1 {
        fill: #2c2d2e;
        fill-rule: evenodd;
      }
    </style>
  </defs>
  <path id="wave-form.svg" class="cls-1" d="M280.239,3052h-2v-20h2v20Zm3,0h-2v-22h2v22Zm3,0h-2v-16h2v16Zm3,0h-2v-18h2v18Zm3,0h-2v-14h2v14Zm3,0h-2v-20h2v20Zm3,0h-2v-25h2v25Zm3,0h-2v-21h2v21Zm-29.994,0h-2v-24h2v24Zm3,0h-2v-21h2v21Zm3,0h-2v-27h2v27Zm26.994,0h-2v-18h2v18Zm12,0h-2v-20h2v20Zm3,0h-2v-22h2v22Zm3,0h-2v-16h2v16Zm3,0h-2v-18h2v18Zm3,0h-2v-14h2v14Zm3,0h-2v-20h2v20Zm3,0h-2v-25h2v25Zm3,0h-2v-21h2v21Zm-29.993,0h-2v-24h2v24Zm3,0h-2v-21h2v21Zm3,0h-2v-27h2v27Zm26.994,0h-2v-18h2v18Zm12,0h-2v-20h2v20Zm3,0h-2v-22h2v22Zm3,0h-2v-16h2v16Zm3,0h-2v-18h2v18Zm3,0h-2v-14h2v14Zm3,0h-2v-20h2v20Zm3,0h-2v-25h2v25Zm3,0h-2v-21h2v21Zm-29.993,0h-2v-24h2v24Zm3,0h-2v-21h2v21Zm3,0h-2v-27h2v27Zm26.993,0h-2v-18h2v18Zm12,0h-2v-20h2v20Zm3,0h-2v-22h2v22Zm3,0h-2v-16h2v16Zm3,0h-2v-18h2v18Zm3,0h-2v-14h2v14Zm3,0h-2v-20h2v20Zm3,0h-2v-25h2v25Zm3,0h-2v-21h2v21Zm-29.993,0h-2v-24h2v24Zm3,0h-2v-21h2v21Zm3,0h-2v-27h2v27Zm26.994,0h-2v-18h2v18Zm12,0h-2v-20h2v20Zm3,0h-2v-22h2v22Zm3,0h-2v-16h2v16Zm3,0h-2v-18h2v18Zm3,0h-2v-14h2v14Zm3,0h-2v-20h2v20Zm3,0h-2v-25h2v25Zm3,0h-2v-21h2v21Zm-29.993,0h-2v-24h2v24Zm3,0h-2v-21h2v21Zm3,0h-2v-27h2v27Zm26.994,0h-2v-18h2v18Zm12,0h-2v-20h2v20Zm3,0h-2v-22h2v22Zm3,0h-2v-16h2v16Zm3,0h-2v-18h2v18Zm3,0h-2v-14h2v14Zm3,0h-2v-20h2v20Zm3,0h-2v-25h2v25Zm3,0h-2v-21h2v21Zm-29.993,0h-2v-24h2v24Zm3,0h-2v-21h2v21Zm3,0h-2v-27h2v27Zm26.994,0h-2v-18h2v18Zm12,0h-2v-20h2v20Zm3,0h-2v-22h2v22Zm3,0h-2v-16h2v16Zm3,0h-2v-18h2v18Zm3,0h-2v-14h2v14Zm3,0h-2v-20h2v20Zm3,0h-2v-25h2v25Zm3,0h-2v-21h2v21Zm-29.993,0h-2v-24h2v24Zm3,0h-2v-21h2v21Zm3,0h-2v-27h2v27Zm26.994,0h-2v-18h2v18Zm12,0h-2v-20h2v20Zm3,0h-2v-22h2v22Zm3,0h-2v-16h2v16Zm3,0h-2v-18h2v18Zm3,0h-2v-14h2v14Zm3,0h-2v-20h2v20Zm3,0h-2v-25h2v25Zm3,0h-2v-21h2v21Zm-29.993,0h-2v-24h2v24Zm3,0h-2v-21h2v21Zm3,0h-2v-27h2v27Zm26.993,0h-2v-18h2v18Zm12,0h-2v-20h2v20Zm3,0h-2v-22h2v22Zm3,0h-2v-16h2v16Zm3,0h-2v-18h2v18Zm3,0h-2v-14h2v14Zm3,0h-2v-20h2v20Zm3,0h-2v-25h2v25Zm3,0h-2v-21h2v21Zm-29.993,0h-2v-24h2v24Zm3,0h-2v-21h2v21Zm3,0h-2v-27h2v27Zm26.994,0h-2v-18h2v18Zm12,0h-2v-20h2v20Zm3,0h-2v-22h2v22Zm3,0h-2v-16h2v16Zm3,0h-2v-18h2v18Zm3,0h-2v-14h2v14Zm3,0h-2v-20h2v20Zm3,0h-2v-25h2v25Zm3,0h-2v-21h2v21Zm-29.993,0h-2v-24h2v24Zm3,0h-2v-21h2v21Zm3,0h-2v-27h2v27Zm26.994,0h-2v-18h2v18Zm12,0h-2v-20h2v20Zm3,0h-2v-22h2v22Zm3,0h-2v-16h2v16Zm3,0h-2v-18h2v18Zm3,0h-2v-14h2v14Zm3,0h-2v-20h2v20Zm3,0h-2v-25h2v25Zm3,0h-2v-21h2v21Zm-29.994,0h-2v-24h2v24Zm3,0h-2v-21h2v21Zm3,0h-2v-27h2v27Zm-437.9,0h-2v-20h2v20Zm3,0h-2v-22h2v22Zm3,0h-2v-16h2v16Zm3,0h-2v-18h2v18Zm3,0h-2v-14h2v14Zm3,0h-2v-20h2v20Zm3,0h-2v-25h2v25Zm3,0h-2v-21h2v21Zm-29.993,0h-2v-24h2v24Zm3,0h-2v-21h2v21Zm3,0h-2v-27h2v27Zm26.993,0h-2v-18h2v18Zm12,0h-2v-20h2v20Zm3,0h-2v-22h2v22Zm3,0h-2v-16h2v16Zm3,0h-2v-18h2v18Zm3,0h-2v-14h2v14Zm3,0h-2v-20h2v20Zm3,0h-2v-25h2v25Zm3,0h-2v-21h2v21Zm-29.993,0h-2v-24h2v24Zm3,0h-2v-21h2v21Zm3,0h-2v-27h2v27Zm26.994,0h-2v-18h2v18Zm3,0h-2v-24h2v24Zm3,0h-2v-21h2v21Zm3,0h-2v-27h2v27Zm485.889,0h-2v-20h2v20Zm3,0h-2v-22h2v22Zm3,0h-2v-16h2v16Zm3,0h-2v-18h2v18Zm3,0h-2v-14h2v14Zm3,0h-2v-20h2v20Zm3,0h-2v-25h2v25Zm3,0h-2v-21h2v21Zm-29.993,0h-2v-24h2v24Zm3,0h-2v-21h2v21Zm3,0h-2v-27h2v27Zm26.994,0h-2v-18h2v18Zm12,0h-2v-20h2v20Zm3,0h-2v-22h2v22Zm3,0h-2v-16h2v16Zm3,0h-2v-18h2v18Zm3,0h-2v-14h2v14Zm3,0h-2v-20h2v20Zm3,0h-2v-25h2v25Zm3,0h-2v-21h2v21Zm-29.993,0h-2v-24h2v24Zm3,0h-2v-21h2v21Zm3,0h-2v-27h2v27Zm26.994,0h-2v-18h2v18Zm12,0h-2v-20h2v20Zm-9,0h-2v-24h2v24Zm3,0h-2v-21h2v21Zm3,0h-2v-27h2v27Zm-149.965,0h-2v-20h2v20Zm3,0h-2v-22h2v22Zm3,0h-2v-16h2v16Zm3,0h-2v-18h2v18Zm3,0h-2v-14h2v14Zm3,0h-2v-20h2v20Zm3,0h-2v-25h2v25Zm3,0h-2v-21h2v21Zm-29.993,0h-2v-24h2v24Zm3,0h-2v-21h2v21Zm3,0h-2v-27h2v27Zm26.994,0h-2v-18h2v18Zm12,0h-2v-20h2v20Zm3,0h-2v-22h2v22Zm3,0h-2v-16h2v16Zm3,0h-2v-18h2v18Zm3,0h-2v-14h2v14Zm3,0h-2v-20h2v20Zm3,0h-2v-25h2v25Zm3,0h-2v-21h2v21Zm-29.993,0h-2v-24h2v24Zm3,0h-2v-21h2v21Zm3,0h-2v-27h2v27Zm26.994,0h-2v-18h2v18Zm3,0h-2v-24h2v24Zm3,0h-2v-21h2v21Zm3,0h-2v-27h2v27Z" transform="translate(-188.25 -3025)"/>
</svg>
