<svg xmlns="http://www.w3.org/2000/svg" width="17" height="17" viewBox="0 0 17 17">
  <defs>
    <style>
      .cls-1 {
        fill: #fff;
        fill-rule: evenodd;
        opacity: 0.6;
      }
    </style>
  </defs>
  <path id="add.svg" class="cls-1" d="M845.5,830.063a7.446,7.446,0,1,1-7.437,7.437,7.446,7.446,0,0,1,7.437-7.437m0-1.063a8.5,8.5,0,1,0,8.5,8.5,8.5,8.5,0,0,0-8.5-8.5h0Zm-3.719,7.969h7.438a0.531,0.531,0,0,1,0,1.062h-7.438A0.531,0.531,0,0,1,841.781,836.969Zm4.25-3.187v7.437a0.531,0.531,0,0,1-1.062,0v-7.437A0.531,0.531,0,1,1,846.031,833.782Z" transform="translate(-837 -829)"/>
</svg>
