<svg xmlns="http://www.w3.org/2000/svg" width="17" height="15" viewBox="0 0 17 15">
  <defs>
    <style>
      .cls-1 {
        fill: #fff;
        fill-rule: evenodd;
        opacity: 0.6;
      }
    </style>
  </defs>
  <path id="like.svg" class="cls-1" d="M583.473,836.46a1.657,1.657,0,0,1-.355.544,4.466,4.466,0,0,1-.454.518c-1.049,1.149-2.407,1.852-3.977,3.344A49.947,49.947,0,0,1,572.311,845a8.2,8.2,0,0,0-3.978-7.481A4.457,4.457,0,0,1,567.88,837a1.666,1.666,0,0,1-.356-0.544A4.282,4.282,0,0,1,567,834.4a4.457,4.457,0,0,1,4.517-4.4,4.532,4.532,0,0,1,3.985,2.328,4.532,4.532,0,0,1,3.985-2.328A4.457,4.457,0,0,1,584,834.4,4.282,4.282,0,0,1,583.473,836.46Z" transform="translate(-567 -830)"/>
</svg>
