<svg xmlns="http://www.w3.org/2000/svg" width="16" height="16" viewBox="0 0 16 16">
  <defs>
    <style>
      .cls-1 {
        fill: #fff;
        fill-rule: evenodd;
        opacity: 0.6;
      }
    </style>
  </defs>
  <path id="share.svg" class="cls-1" d="M703.962,840.591a0.5,0.5,0,0,1-.353-0.853l6.063-6.105a0.5,0.5,0,0,1,.707.707l-6.063,6.105A0.5,0.5,0,0,1,703.962,840.591Zm2.465-1.211a2.087,2.087,0,0,1-.576,2.007l-2.022,1.957a2.251,2.251,0,0,1-3.19-3.178l1.975-2.035a2.192,2.192,0,0,1,2.189-.569l0.782-.78a3.243,3.243,0,0,0-3.679.642l-1.97,2.031a3.252,3.252,0,0,0,4.6,4.6l2.017-1.953a3.12,3.12,0,0,0,.667-3.511Zm7.621-9.43a3.256,3.256,0,0,0-4.6,0l-2.016,1.952a3.247,3.247,0,0,0-.622,3.719l0.776-.776a2.235,2.235,0,0,1,.549-2.231l2.021-1.957a2.251,2.251,0,0,1,3.19,3.177l-2.021,2.02a2.241,2.241,0,0,1-1.593.658,2.1,2.1,0,0,1-.435-0.014l-0.8.8a3.152,3.152,0,0,0,1.232.218,3.245,3.245,0,0,0,2.3-.952l2.016-2.015A3.248,3.248,0,0,0,714.048,829.95Z" transform="translate(-699 -829)"/>
</svg>
