<svg xmlns="http://www.w3.org/2000/svg" width="23" height="21" viewBox="0 0 23 21">
  <defs>
    <style>
      .cls-1 {
        fill: none;
        stroke: #cf303f;
        stroke-width: 1px;
        fill-rule: evenodd;
      }
    </style>
  </defs>
  <path id="Star.svg" class="cls-1" d="M225,504a1.608,1.608,0,0,0-1.438.835l-2.487,4.847-5.726.8a1.562,1.562,0,0,0-1.266.975,1.361,1.361,0,0,0,.37,1.474l4.194,3.932-0.973,5.452a1.4,1.4,0,0,0,.652,1.421,1.692,1.692,0,0,0,.915.265,1.72,1.72,0,0,0,.769-0.18L225,521.3l4.992,2.522a1.722,1.722,0,0,0,.768.18,1.7,1.7,0,0,0,.916-0.265,1.4,1.4,0,0,0,.65-1.421l-0.973-5.452,4.2-3.932a1.362,1.362,0,0,0,.368-1.474,1.562,1.562,0,0,0-1.266-.975l-5.724-.8-2.489-4.847A1.606,1.606,0,0,0,225,504h0Z" transform="translate(-213.5 -503.5)"/>
</svg>
