<svg xmlns="http://www.w3.org/2000/svg" width="16" height="20" viewBox="0 0 16 20">
  <defs>
    <style>
      .cls-1 {
        fill: #fff;
        fill-rule: evenodd;
      }
    </style>
  </defs>
  <path id="stop.svg" class="cls-1" d="M1187.01,685.8v18.8h3.95V685.8h-3.95Zm12.04,0v18.8H1203V685.8h-3.95Zm-10.07-.8h0.01a1.981,1.981,0,0,1,1.98,1.977v16.047a1.98,1.98,0,0,1-1.98,1.976h-0.01a1.98,1.98,0,0,1-1.98-1.976V686.977A1.981,1.981,0,0,1,1188.98,685Zm12.03,0h0.01a1.974,1.974,0,0,1,1.98,1.977v16.047a1.974,1.974,0,0,1-1.98,1.976h-0.01a1.98,1.98,0,0,1-1.98-1.976V686.977A1.981,1.981,0,0,1,1201.01,685Z" transform="translate(-1187 -685)"/>
</svg>
