<svg xmlns="http://www.w3.org/2000/svg" xmlns:xlink="http://www.w3.org/1999/xlink" preserveAspectRatio="xMidYMid" width="35" height="23" viewBox="0 0 35 23">
  <defs>
    <style>
      .cls-1 {
        fill: #2d2e2f;
        fill-rule: evenodd;
      }
    </style>
  </defs>
  <path d="M33.000,23.000 L33.000,6.000 L35.000,6.000 L35.000,23.000 L33.000,23.000 ZM30.000,2.000 L32.000,2.000 L32.000,23.000 L30.000,23.000 L30.000,2.000 ZM27.000,7.000 L29.000,7.000 L29.000,23.000 L27.000,23.000 L27.000,7.000 ZM24.000,13.000 L26.000,13.000 L26.000,23.000 L24.000,23.000 L24.000,13.000 ZM21.000,9.000 L23.000,9.000 L23.000,23.000 L21.000,23.000 L21.000,9.000 ZM18.000,11.000 L20.000,11.000 L20.000,23.000 L18.000,23.000 L18.000,11.000 ZM15.000,5.000 L17.000,5.000 L17.000,23.000 L15.000,23.000 L15.000,5.000 ZM12.000,7.000 L14.000,7.000 L14.000,23.000 L12.000,23.000 L12.000,7.000 ZM9.000,0.000 L11.000,0.000 L11.000,23.000 L9.000,23.000 L9.000,0.000 ZM6.000,6.000 L8.000,6.000 L8.000,23.000 L6.000,23.000 L6.000,6.000 ZM3.000,3.000 L5.000,3.000 L5.000,23.000 L3.000,23.000 L3.000,3.000 ZM0.000,9.000 L2.000,9.000 L2.000,23.000 L0.000,23.000 L0.000,9.000 Z" class="cls-1"/>
</svg>
