<svg xmlns="http://www.w3.org/2000/svg" xmlns:xlink="http://www.w3.org/1999/xlink" preserveAspectRatio="xMidYMid" width="17" height="20" viewBox="0 0 17 20">
  <path fill="#ffffff" d="M16.911,16.012 C16.609,16.662 15.733,16.662 15.359,16.662 L11.756,16.662 C11.755,18.506 10.288,20.000 8.479,20.000 C6.670,20.000 5.204,18.506 5.203,16.662 L1.683,16.662 C1.094,16.662 0.381,16.588 0.096,16.010 C-0.228,15.353 0.252,14.696 0.859,13.864 C1.534,12.938 2.600,11.745 2.600,10.482 L2.600,6.394 C2.600,2.871 5.164,0.005 8.468,0.005 C11.770,0.005 14.355,2.871 14.355,6.394 L14.355,10.482 C14.355,11.766 15.337,13.025 16.053,13.914 C16.728,14.750 17.215,15.354 16.911,16.012 ZM8.478,18.688 C9.577,18.688 10.467,17.781 10.469,16.662 L6.488,16.662 C6.489,17.781 7.380,18.688 8.478,18.688 ZM15.043,14.760 C14.201,13.716 13.047,12.244 13.047,10.482 L13.047,6.394 C13.047,3.606 11.049,1.338 8.468,1.338 C5.886,1.338 3.908,3.606 3.908,6.394 L3.908,10.482 C3.908,12.186 2.657,13.633 1.909,14.659 C1.757,14.866 1.571,15.122 1.445,15.321 C1.510,15.326 1.589,15.329 1.683,15.329 L15.359,15.329 C15.405,15.329 15.448,15.328 15.487,15.327 C15.355,15.147 15.185,14.936 15.043,14.760 Z" class="cls-1"/>
</svg>