<svg xmlns="http://www.w3.org/2000/svg" xmlns:xlink="http://www.w3.org/1999/xlink" preserveAspectRatio="xMidYMid" width="20" height="20" viewBox="0 0 20 20">
  <path fill="#ffffff" d="M18.753,19.993 L1.249,19.993 C0.562,19.993 -0.001,19.430 -0.001,18.743 L-0.001,9.378 C-0.001,8.943 0.224,8.560 0.563,8.336 L3.750,5.150 L3.750,3.092 C3.750,2.746 4.029,2.467 4.375,2.467 L6.440,2.467 L8.714,0.519 C9.422,-0.190 10.659,-0.188 11.366,0.519 L13.648,2.467 L15.627,2.467 C15.973,2.467 16.253,2.746 16.253,3.092 L16.253,5.109 L19.518,8.397 C19.602,8.463 19.677,8.538 19.741,8.622 L19.758,8.639 L19.755,8.639 C19.862,8.784 19.926,8.957 19.963,9.139 C19.990,9.210 20.000,9.284 20.000,9.358 C20.000,9.365 20.003,9.371 20.003,9.378 L20.003,9.383 C20.003,9.388 20.004,9.394 20.003,9.399 L20.003,18.743 C20.003,19.430 19.441,19.993 18.753,19.993 ZM17.920,18.743 L10.422,11.947 C10.302,11.854 10.122,11.791 9.942,11.791 C9.766,11.791 9.598,11.851 9.457,11.965 L6.737,14.488 C6.717,14.520 6.706,14.556 6.680,14.586 C6.617,14.657 6.541,14.710 6.459,14.745 L2.149,18.743 L17.920,18.743 ZM1.249,17.873 L5.253,14.160 L1.249,10.629 L1.249,17.873 ZM2.028,8.639 L1.999,8.639 L1.472,9.159 L3.750,11.168 L3.750,6.918 L2.028,8.639 ZM10.482,1.403 C10.364,1.285 10.207,1.220 10.040,1.220 C9.873,1.220 9.716,1.285 9.598,1.403 L8.337,2.467 L11.745,2.467 L10.482,1.403 ZM5.000,3.716 L5.000,12.271 L6.174,13.306 L8.647,11.012 C9.427,10.383 10.483,10.408 11.220,10.985 L13.883,13.398 L15.002,12.405 L15.002,3.716 L5.000,3.716 ZM17.542,8.128 L16.253,6.839 L16.253,11.296 L18.595,9.217 L17.523,8.128 L17.542,8.128 ZM18.753,10.749 L14.815,14.243 L18.753,17.812 L18.753,10.749 Z" class="cls-1"/>
</svg>