<svg xmlns="http://www.w3.org/2000/svg" xmlns:xlink="http://www.w3.org/1999/xlink" preserveAspectRatio="xMidYMid" width="24" height="24" viewBox="0 0 24 24">
  <path stroke="#ffffff" fill="none" stroke-width="1px" d="M20.079,12.846 C19.175,13.017 18.370,13.620 17.984,14.530 C17.599,15.440 17.725,16.437 18.230,17.205 C17.893,17.608 17.512,17.973 17.104,18.304 C16.345,17.789 15.352,17.649 14.439,18.019 C13.525,18.389 12.909,19.180 12.722,20.078 C12.484,20.099 12.244,20.119 12.000,20.119 C11.712,20.119 11.429,20.103 11.149,20.074 C10.979,19.170 10.375,18.365 9.465,17.979 C8.555,17.594 7.558,17.720 6.790,18.225 C6.387,17.888 6.023,17.507 5.691,17.099 C6.206,16.340 6.346,15.347 5.976,14.434 C5.606,13.520 4.815,12.904 3.917,12.717 C3.896,12.479 3.876,12.239 3.876,11.995 C3.876,11.708 3.892,11.424 3.922,11.144 C4.825,10.974 5.630,10.370 6.016,9.460 C6.402,8.550 6.275,7.553 5.770,6.786 C6.107,6.382 6.488,6.018 6.896,5.686 C7.655,6.201 8.648,6.341 9.561,5.971 C10.475,5.601 11.091,4.810 11.278,3.912 C11.516,3.891 11.756,3.872 12.000,3.872 C12.288,3.872 12.571,3.888 12.851,3.917 C13.022,4.821 13.625,5.625 14.535,6.011 C15.445,6.396 16.442,6.271 17.210,5.765 C17.613,6.102 17.978,6.483 18.309,6.891 C17.794,7.650 17.654,8.643 18.024,9.557 C18.394,10.470 19.185,11.086 20.083,11.273 C20.104,11.512 20.124,11.751 20.124,11.995 C20.124,12.283 20.108,12.566 20.079,12.846 ZM12.000,8.340 C9.981,8.340 8.344,9.976 8.344,11.995 C8.344,14.014 9.981,15.651 12.000,15.651 C14.019,15.651 15.656,14.014 15.656,11.995 C15.656,9.976 14.019,8.340 12.000,8.340 Z" />
</svg>