<svg xmlns="http://www.w3.org/2000/svg" width="52" height="22.844" viewBox="0 0 52 22.844">
  <defs>
    <style>
      .cls-1 {
        fill: #fff;
        fill-rule: evenodd;
      }
    </style>
  </defs>
  <path id="music-import.svg" class="cls-1" d="M593.589,173.669a0.216,0.216,0,0,0-.209.206L593,176.8l0.38,2.874a0.215,0.215,0,0,0,.209.205,0.218,0.218,0,0,0,.207-0.2h0l0.451-2.875-0.451-2.923A0.219,0.219,0,0,0,593.589,173.669Zm2.138-1.6a0.217,0.217,0,0,0-.433,0s-0.511,4.726-.511,4.726l0.511,4.622a0.217,0.217,0,0,0,.433,0l0.582-4.623Zm8.055-4.359a0.4,0.4,0,0,0-.392.394l-0.408,8.7,0.408,5.619a0.393,0.393,0,1,0,.786,0v0l0.46-5.62-0.46-8.7A0.405,0.405,0,0,0,603.782,167.713Zm-4.168,3.022a0.315,0.315,0,0,0-.306.3L598.85,176.8l0.458,5.574a0.305,0.305,0,0,0,.61,0l0.521-5.574-0.521-5.763A0.315,0.315,0,0,0,599.614,170.735Zm8.4,12.079a0.49,0.49,0,0,0,.482-0.483l0.4-5.526-0.4-11.577a0.483,0.483,0,1,0-.965,0l-0.354,11.576,0.354,5.527A0.488,0.488,0,0,0,608.019,182.814Zm8.674,0.027a0.672,0.672,0,0,0,.66-0.666v0l0.278-5.366-0.278-13.371a0.66,0.66,0,1,0-1.32,0L615.784,176.8c0,0.009.249,5.375,0.249,5.375A0.67,0.67,0,0,0,616.693,182.841Zm-4.37-.021a0.578,0.578,0,0,0,.571-0.576v0l0.339-5.442-0.339-11.66a0.572,0.572,0,1,0-1.143,0l-0.3,11.661,0.3,5.44A0.577,0.577,0,0,0,612.323,182.82Zm-10.633-.051a0.359,0.359,0,0,0,.349-0.348l0.491-5.62-0.491-5.347a0.35,0.35,0,0,0-.7,0l-0.432,5.345,0.432,5.62A0.357,0.357,0,0,0,601.69,182.769Zm-4.136-.309a0.269,0.269,0,0,0,.26-0.257l0.552-5.4-0.551-5.608a0.272,0.272,0,0,0-.261-0.259,0.269,0.269,0,0,0-.261.259l-0.485,5.608,0.485,5.4A0.268,0.268,0,0,0,597.554,182.46ZM614.5,164.952a0.621,0.621,0,0,0-.616.621l-0.275,11.235,0.275,5.406a0.616,0.616,0,1,0,1.232,0v0l0.308-5.407-0.308-11.237A0.621,0.621,0,0,0,614.5,164.952Zm-8.606,17.874a0.449,0.449,0,0,0,.438-0.44l0.429-5.582-0.429-10.684a0.439,0.439,0,1,0-.877,0l-0.38,10.684,0.381,5.585A0.446,0.446,0,0,0,605.893,182.826Zm4.8-.527v0l0.369-5.49-0.369-11.967a0.527,0.527,0,1,0-1.053,0l-0.328,11.966,0.329,5.493a0.526,0.526,0,1,0,1.052,0v0Zm27.916-12.391a6.318,6.318,0,0,0-2.474.5,11.26,11.26,0,0,0-15.331-9.637,0.737,0.737,0,0,0-.616.761V182.08a0.78,0.78,0,0,0,.691.765c0.016,0,17.615.011,17.729,0.011A6.474,6.474,0,0,0,638.605,169.908Zm-19.728-8.391a0.715,0.715,0,0,0-.7.711l-0.289,14.583,0.289,5.292a0.7,0.7,0,1,0,1.409-.006V182.1l0.314-5.292-0.314-14.584A0.715,0.715,0,0,0,618.877,161.517Z" transform="translate(-593 -160)"/>
</svg>
