<svg xmlns="http://www.w3.org/2000/svg" xmlns:xlink="http://www.w3.org/1999/xlink" preserveAspectRatio="xMidYMid" width="18.875" height="17.75" viewBox="0 0 18.875 17.75">
  <defs>
    <style>
      .cls-1 {
        fill: #fff;
        fill-rule: evenodd;
      }
    </style>
  </defs>
  <path d="M9.872,17.755 C5.207,17.755 1.361,14.234 0.916,9.743 L-0.015,9.743 L1.436,7.681 L2.888,9.743 L2.054,9.743 C2.496,13.617 5.831,16.639 9.872,16.639 C14.211,16.639 17.742,13.154 17.742,8.870 C17.742,4.586 14.211,1.101 9.872,1.101 L9.872,-0.015 C14.835,-0.015 18.873,3.971 18.873,8.870 C18.873,13.769 14.835,17.755 9.872,17.755 ZM10.644,3.190 L10.644,8.877 C10.644,8.882 10.642,8.886 10.642,8.891 C10.639,8.964 10.621,9.031 10.599,9.100 C10.586,9.143 10.578,9.185 10.559,9.225 C10.544,9.253 10.523,9.276 10.505,9.303 C10.461,9.373 10.413,9.436 10.350,9.489 C10.349,9.490 10.349,9.490 10.348,9.490 C10.253,9.570 10.140,9.623 10.016,9.654 L6.394,10.713 C5.956,10.842 5.495,10.595 5.366,10.162 C5.236,9.730 5.486,9.275 5.924,9.147 L8.989,8.250 L8.989,3.190 C8.989,2.739 9.360,2.373 9.817,2.373 C10.274,2.373 10.644,2.739 10.644,3.190 Z" class="cls-1"/>
</svg>
