<svg xmlns="http://www.w3.org/2000/svg" width="47" height="36" viewBox="0 0 47 36">
  <defs>
    <style>
      .cls-1 {
        fill: #fdfdff;
        fill-rule: evenodd;
      }
    </style>
  </defs>
  <path id="video.svg" class="cls-1" d="M212.311,389.638l-45.6.018a0.683,0.683,0,0,1-.686-0.681L166,364.957a0.682,0.682,0,0,1,.685-0.681l45.6-.018a0.683,0.683,0,0,1,.686.681L213,388.956A0.683,0.683,0,0,1,212.311,389.638ZM167.4,388.293l44.23-.018-0.02-22.654-44.23.017Zm18.619-3.7a0.685,0.685,0,0,1-.686-0.681l-0.011-12.751a0.685,0.685,0,0,1,1.1-.542l8.562,6.485a0.679,0.679,0,0,1-.009,1.091l-8.55,6.265A0.688,0.688,0,0,1,186.014,384.589Zm-15.7-22.081-3.625,0a0.684,0.684,0,0,1-.686-0.681l0-2.129a0.683,0.683,0,0,1,.685-0.682l3.625,0a0.684,0.684,0,0,1,.686.682l0,2.129A0.683,0.683,0,0,1,170.313,362.508Zm-2.941-1.361h2.255v-0.767h-2.254v0.767Zm8.938,1.359h-3.625a0.682,0.682,0,0,1-.686-0.681l0-2.129a0.681,0.681,0,0,1,.685-0.681l3.625,0a0.683,0.683,0,0,1,.686.681l0,2.129A0.683,0.683,0,0,1,176.31,362.506Zm-2.941-1.362h2.254v-0.767h-2.255v0.766Zm8.937,1.36h-3.625a0.683,0.683,0,0,1-.686-0.681l0-2.129a0.683,0.683,0,0,1,.685-0.682H182.3a0.683,0.683,0,0,1,.686.681l0,2.129A0.683,0.683,0,0,1,182.306,362.5Zm-2.941-1.362h2.255v-0.766h-2.255v0.766ZM188.3,362.5l-3.626,0a0.683,0.683,0,0,1-.685-0.681l0-2.13a0.681,0.681,0,0,1,.684-0.681l3.626,0a0.684,0.684,0,0,1,.686.682v2.129A0.681,0.681,0,0,1,188.3,362.5Zm-2.941-1.361h2.254v-0.767h-2.255v0.767ZM194.3,362.5h-3.625a0.682,0.682,0,0,1-.686-0.681l0-2.129a0.682,0.682,0,0,1,.685-0.681l3.625,0a0.683,0.683,0,0,1,.686.681l0,2.129A0.683,0.683,0,0,1,194.3,362.5Zm-2.941-1.361h2.255V360.37h-2.255v0.767ZM200.3,362.5H196.67a0.683,0.683,0,0,1-.686-0.681v-2.129a0.681,0.681,0,0,1,.684-0.682h3.626a0.682,0.682,0,0,1,.685.681l0,2.129A0.682,0.682,0,0,1,200.3,362.5Zm-2.942-1.362h2.255v-0.766h-2.254v0.766h0Zm8.938,1.359-3.625,0a0.683,0.683,0,0,1-.686-0.681l0-2.13a0.683,0.683,0,0,1,.685-0.681l3.625,0a0.684,0.684,0,0,1,.686.682l0,2.129A0.683,0.683,0,0,1,206.292,362.494Zm-2.941-1.361h2.255v-0.767H203.35v0.767Zm8.938,1.359h-3.626a0.683,0.683,0,0,1-.686-0.681l0-2.129A0.682,0.682,0,0,1,208.66,359l3.626,0a0.683,0.683,0,0,1,.685.681l0,2.129A0.681,0.681,0,0,1,212.289,362.492Zm-2.942-1.362H211.6v-0.767h-2.254v0.766ZM170.34,395l-3.626,0a0.682,0.682,0,0,1-.685-0.681l0-2.129a0.682,0.682,0,0,1,.685-0.682h3.625a0.683,0.683,0,0,1,.686.681l0,2.129A0.683,0.683,0,0,1,170.34,395Zm-2.941-1.361h2.254V392.87H167.4v0.767ZM176.336,395l-3.625,0a0.684,0.684,0,0,1-.686-0.682l0-2.129a0.682,0.682,0,0,1,.685-0.681l3.625,0a0.683,0.683,0,0,1,.686.681l0,2.13A0.683,0.683,0,0,1,176.336,395Zm-2.941-1.361h2.255v-0.767h-2.255v0.767Zm8.938,1.359h-3.626a0.682,0.682,0,0,1-.685-0.681l0-2.129a0.681,0.681,0,0,1,.684-0.682h3.626a0.683,0.683,0,0,1,.686.681v2.129A0.682,0.682,0,0,1,182.333,394.994Zm-2.941-1.362h2.254v-0.766h-2.254v0.766Zm8.937,1.359-3.625,0a0.683,0.683,0,0,1-.686-0.681l0-2.129a0.683,0.683,0,0,1,.685-0.682h3.625a0.682,0.682,0,0,1,.686.681l0,2.129A0.683,0.683,0,0,1,188.329,394.991Zm-2.941-1.361h2.255v-0.766h-2.255v0.767Zm8.938,1.359-3.626,0a0.684,0.684,0,0,1-.686-0.682V392.18a0.681,0.681,0,0,1,.684-0.681l3.626,0a0.683,0.683,0,0,1,.685.681l0,2.13A0.681,0.681,0,0,1,194.326,394.989Zm-2.942-1.361h2.255V392.86h-2.254v0.767Zm8.938,1.359H196.7a0.683,0.683,0,0,1-.686-0.681l0-2.129a0.683,0.683,0,0,1,.685-0.682h3.625a0.683,0.683,0,0,1,.686.681l0,2.129A0.683,0.683,0,0,1,200.322,394.987Zm-2.941-1.362h2.254v-0.766H197.38v0.766h0Zm8.937,1.359-3.625,0a0.683,0.683,0,0,1-.686-0.681l0-2.129a0.683,0.683,0,0,1,.685-0.682h3.625a0.682,0.682,0,0,1,.686.681l0,2.129A0.683,0.683,0,0,1,206.318,394.984Zm-2.941-1.361h2.255v-0.766h-2.254v0.767Zm8.938,1.359-3.625,0A0.684,0.684,0,0,1,208,394.3l0-2.129a0.682,0.682,0,0,1,.685-0.681l3.625,0a0.683,0.683,0,0,1,.686.681l0,2.13A0.683,0.683,0,0,1,212.315,394.982Zm-2.941-1.361h2.254v-0.767h-2.255v0.767Z" transform="translate(-378 -156)"/>
</svg>
