<svg xmlns="http://www.w3.org/2000/svg" width="15.031" height="14" viewBox="0 0 15.031 14">
	<metadata><?xpacket begin="﻿" id="W5M0MpCehiHzreSzNTczkc9d"?>
		<x:xmpmeta xmlns:x="adobe:ns:meta/" x:xmptk="Adobe XMP Core 5.6-c138 79.159824, 2016/09/14-01:09:01        ">
			<rdf:RDF xmlns:rdf="http://www.w3.org/1999/02/22-rdf-syntax-ns#">
				<rdf:Description rdf:about=""/>
			</rdf:RDF>
		</x:xmpmeta>
		<?xpacket end="w"?></metadata>
	<defs>
		<style>
			.cls-1 {
			fill: none;
			stroke: #ffffff;
			stroke-width: 1px;
			fill-rule: evenodd;
			}
		</style>
	</defs>
	<path id="Forma_1_copy_2" data-name="Forma 1 copy 2" class="cls-1" d="M442.979,152.875a3.966,3.966,0,0,0-3.79-3.877c-1.328,0-3.228,1.857-3.228,1.857S434.117,149,432.81,149a3.967,3.967,0,0,0-3.79,3.877,4.011,4.011,0,0,0,.119,1.474C429.43,155.577,432,156.125,433,158a9.577,9.577,0,0,1,1,4l6.921-4.42a6.321,6.321,0,0,0,1.939-3.231A4.011,4.011,0,0,0,442.979,152.875Z" transform="translate(-428.5 -148.5)"/>
</svg>