<svg xmlns="http://www.w3.org/2000/svg" xmlns:xlink="http://www.w3.org/1999/xlink" preserveAspectRatio="xMidYMid" width="27" height="25.91" viewBox="0 0 27 25.91">
  <defs>
    <style>
      .cls-1, .cls-2 {
        fill: #fff;
      }

      .cls-1 {
        fill-rule: evenodd;
      }
    </style>
  </defs>
  <g>
    <path d="M26.748,9.306 C26.430,9.623 25.914,9.623 25.596,9.306 L18.928,2.657 L18.928,21.702 C18.930,21.753 18.946,21.800 18.946,21.852 C18.946,24.100 16.756,25.923 14.054,25.923 C11.353,25.923 9.162,24.100 9.162,21.852 C9.162,19.605 11.353,17.782 14.054,17.782 C15.305,17.782 16.433,18.184 17.298,18.826 L17.298,0.824 C17.298,0.468 17.531,0.175 17.850,0.065 C18.154,-0.083 18.527,-0.040 18.780,0.212 L26.748,8.157 C27.066,8.474 27.066,8.988 26.748,9.306 ZM14.035,19.420 C12.109,19.420 10.766,20.702 10.766,21.853 C10.766,23.004 12.109,24.287 14.035,24.287 C15.940,24.287 17.269,23.032 17.298,21.890 L17.298,21.815 C17.269,20.674 15.940,19.420 14.035,19.420 Z" class="cls-1"/>
    <rect y="0.91" width="13" height="3" rx="1" ry="1" class="cls-2"/>
    <path d="M1.000,6.910 L12.000,6.910 C12.552,6.910 13.000,7.358 13.000,7.910 C13.000,8.462 12.552,8.910 12.000,8.910 L1.000,8.910 C0.448,8.910 0.000,8.462 0.000,7.910 C0.000,7.358 0.448,6.910 1.000,6.910 Z" class="cls-1"/>
    <path d="M0.500,11.910 L12.500,11.910 C12.776,11.910 13.000,12.134 13.000,12.410 C13.000,12.686 12.776,12.910 12.500,12.910 L0.500,12.910 C0.224,12.910 0.000,12.686 0.000,12.410 C0.000,12.134 0.224,11.910 0.500,11.910 Z" class="cls-1"/>
  </g>
</svg>
