<svg xmlns="http://www.w3.org/2000/svg" width="15" height="13" viewBox="0 0 15 13">
    <metadata><?xpacket begin="﻿" id="W5M0MpCehiHzreSzNTczkc9d"?>
        <x:xmpmeta xmlns:x="adobe:ns:meta/" x:xmptk="Adobe XMP Core 5.6-c138 79.159824, 2016/09/14-01:09:01        ">
            <rdf:RDF xmlns:rdf="http://www.w3.org/1999/02/22-rdf-syntax-ns#">
                <rdf:Description rdf:about=""/>
            </rdf:RDF>
        </x:xmpmeta>
        <?xpacket end="w"?></metadata>
    <defs>
        <style>
            .cls-1 {
            fill: #ffffff;
            fill-rule: evenodd;
            }
        </style>
    </defs>
    <path id="Forma_1" data-name="Forma 1" class="cls-1" d="M840,114l-0.082,2.982L829,117v-3h-2v4a1.014,1.014,0,0,0,1.043.994h12.914a1.023,1.023,0,0,0,1.043-1V114h-2Zm-5.691,1.219-2.981-3.483s-0.453-.414.038-0.414h1.68v-5.069s-0.066-.247.319-0.247h2.364a0.224,0.224,0,0,1,.271.208v5h1.551c0.6,0,.147.433,0.147,0.433s-2.537,3.255-2.89,3.6A0.338,0.338,0,0,1,834.309,115.219Z" transform="translate(-827 -106)"/>
</svg>