<svg xmlns="http://www.w3.org/2000/svg" xmlns:xlink="http://www.w3.org/1999/xlink" preserveAspectRatio="xMidYMid" width="23.719" height="23.75" viewBox="0 0 23.719 23.75">
  <path fill="#ffffff" fill-rule="evenodd" d="M23.729,3.955 C23.729,1.875 21.852,-0.004 19.773,-0.004 L3.949,-0.004 C1.870,-0.004 -0.007,1.875 -0.007,3.955 L-0.007,19.791 C-0.007,21.871 1.870,23.750 3.950,23.750 L11.861,23.750 L11.861,14.776 L8.960,14.776 L8.960,10.817 L11.861,10.817 L11.861,9.275 C11.861,6.615 13.857,4.219 16.312,4.219 L19.509,4.219 L19.509,8.178 L16.312,8.178 C15.962,8.178 15.553,8.603 15.553,9.240 L15.553,10.817 L19.509,10.817 L19.509,14.776 L15.553,14.776 L15.553,23.750 L19.773,23.750 C21.852,23.750 23.729,21.871 23.729,19.791 L23.729,3.955 Z" />
</svg>
