<?xml version="1.0" encoding="iso-8859-1"?>
<!-- Generator: Adobe Illustrator 19.1.0, SVG Export Plug-In . SVG Version: 6.00 Build 0)  -->
<svg xmlns="http://www.w3.org/2000/svg" xmlns:xlink="http://www.w3.org/1999/xlink" version="1.1" id="Capa_1" x="0px" y="0px" viewBox="0 0 306.114 306.114" style="enable-background:new 0 0 306.114 306.114;" xml:space="preserve" width="512px" height="512px">
<g>
	<g id="Monster_2_">
		<g>
			<path d="M85.032,249.404c-12.517,0-22.675,10.158-22.675,22.675h45.35C107.707,259.562,97.548,249.404,85.032,249.404z      M187.07,283.439c-6.258,0-11.338-5.079-11.338-11.338h-22.675c0,18.775,15.238,34.013,34.013,34.013     s34.013-15.238,34.013-34.013h-22.675C198.408,278.36,193.328,283.439,187.07,283.439z M153.057,0     C77.912,0,17.006,60.905,17.006,136.051v136.051c0,18.775,15.238,34.013,34.013,34.013s34.013-15.238,34.013-34.013H62.357     c0,6.258-5.079,11.338-11.338,11.338s-11.338-5.079-11.338-11.338V136.051c0-62.515,50.86-113.376,113.376-113.376     s113.376,50.86,113.376,113.376v136.051c0,6.258-5.079,11.338-11.338,11.338s-11.338-5.079-11.338-11.338h-22.675     c0,18.775,15.238,34.013,34.013,34.013s34.013-15.238,34.013-34.013V136.051C289.108,60.905,228.203,0,153.057,0z      M119.044,283.439c-6.258,0-11.338-5.079-11.338-11.338H85.032c0,18.775,15.238,34.013,34.013,34.013     s34.013-15.238,34.013-34.013h-22.675C130.382,278.36,125.303,283.439,119.044,283.439z M141.72,147.388     c0-18.775-15.238-34.013-34.013-34.013s-34.013,15.238-34.013,34.013s15.238,34.013,34.013,34.013S141.72,166.163,141.72,147.388     z M107.707,158.726c-6.258,0-11.338-5.079-11.338-11.338c0-6.258,5.079-11.338,11.338-11.338s11.338,5.079,11.338,11.338     C119.044,153.647,113.965,158.726,107.707,158.726z M232.42,147.388c0-18.775-15.238-34.013-34.013-34.013     s-34.013,15.238-34.013,34.013s15.238,34.013,34.013,34.013S232.42,166.163,232.42,147.388z M187.07,147.388     c0-6.258,5.079-11.338,11.338-11.338c6.258,0,11.338,5.079,11.338,11.338c0,6.258-5.079,11.338-11.338,11.338     C192.149,158.726,187.07,153.647,187.07,147.388z M221.037,249.404c-12.517,0-22.675,10.158-22.675,22.675h45.35     C243.712,259.562,233.554,249.404,221.037,249.404z M153.012,249.404c-12.517,0-22.675,10.158-22.675,22.675h45.35     C175.687,259.562,165.529,249.404,153.012,249.404z" fill="#FFFFFF"/>
		</g>
	</g>
</g>
<g>
</g>
<g>
</g>
<g>
</g>
<g>
</g>
<g>
</g>
<g>
</g>
<g>
</g>
<g>
</g>
<g>
</g>
<g>
</g>
<g>
</g>
<g>
</g>
<g>
</g>
<g>
</g>
<g>
</g>
</svg>
