<svg xmlns="http://www.w3.org/2000/svg" width="23" height="22" viewBox="0 0 23 22">
  <defs>
    <style>
      .cls-1 {
        fill: #fff;
        fill-rule: evenodd;
        opacity: 0.7;
      }
    </style>
  </defs>
  <path id="basket.svg" class="cls-1" d="M132.679,4478.83H122.568a0.745,0.745,0,0,1-.716-0.53l-3.288-14.12c-0.211-.72-0.52-0.72-0.622-0.72h-3.208a0.735,0.735,0,1,1,0-1.47h3.208a2.138,2.138,0,0,1,2.053,1.79l0.352,3.23h15.9a0.762,0.762,0,0,1,.609.31,0.732,0.732,0,0,1,.091.67l-3.564,10.36A0.74,0.74,0,0,1,132.679,4478.83Zm-9.547-1.46h9.023l3.03-8.89H120.764Zm7.548,2.95a1.84,1.84,0,1,1-1.872,1.84A1.855,1.855,0,0,1,130.68,4480.32Zm-6.741,0a1.84,1.84,0,1,1-1.873,1.84A1.854,1.854,0,0,1,123.939,4480.32Z" transform="translate(-114 -4462)"/>
</svg>
