<svg xmlns="http://www.w3.org/2000/svg" width="17" height="16" viewBox="0 0 17 16">
  <defs>
    <style>
      .cls-1 {
        fill: #fff;
        fill-rule: evenodd;
        opacity: 0.6;
      }
    </style>
  </defs>
  <path id="time.svg" class="cls-1" d="M1136.9,4430a8.058,8.058,0,0,1-8.1-8h1.01a7.086,7.086,0,1,0,7.09-6.99V4414A8,8,0,1,1,1136.9,4430Zm-8.9-7.21,1.31-1.86,1.3,1.86H1128Zm8.85-6.64a0.747,0.747,0,0,0-.75.74v5.12a0.745,0.745,0,0,0,.75.73,0.736,0.736,0,0,0,.74-0.73v-5.12A0.738,0.738,0,0,0,1136.85,4416.15Zm-4.01,7.01a0.756,0.756,0,0,0,.93.5l3.3-.97a0.727,0.727,0,0,0,.5-0.91,0.756,0.756,0,0,0-.93-0.5l-3.29.97A0.733,0.733,0,0,0,1132.84,4423.16Z" transform="translate(-1128 -4414)"/>
</svg>
